<svg xmlns="http://www.w3.org/2000/svg" xmlns:xlink="http://www.w3.org/1999/xlink" width="100" zoomAndPan="magnify" viewBox="0 0 75 225" height="300" preserveAspectRatio="xMidYMid meet" version="1.0"><defs><clipPath id="8fccc40867"><path d="M 1.5 0.933594 L 73.386719 0.933594 L 73.386719 43 L 1.5 43 Z M 1.5 0.933594 " clip-rule="nonzero"/></clipPath><clipPath id="951f17d6ff"><path d="M 39.394531 43.285156 L 67 43.285156 L 67 224.109375 L 39.394531 224.109375 Z M 39.394531 43.285156 " clip-rule="nonzero"/></clipPath></defs><path fill="#bf9b30" d="M 46.300781 19.53125 C 44.621094 19.148438 42.84375 19.210938 41.144531 19.402344 C 39.367188 19.59375 37.742188 19.550781 36.183594 19.800781 C 34.640625 20.039062 33.21875 20.480469 32.304688 21.519531 C 31.800781 22.023438 31.644531 22.5625 31.722656 22.746094 C 31.765625 23.050781 32.558594 23.453125 33.386719 23.6875 C 34.996094 24.226562 36.695312 24.566406 38.410156 24.546875 C 40.125 24.523438 41.816406 24.113281 43.441406 23.722656 C 45.113281 23.328125 46.699219 23.199219 47.859375 22.449219 C 48.40625 22.117188 48.738281 21.457031 48.363281 20.761719 C 47.980469 20.082031 47.109375 19.722656 46.300781 19.53125 Z M 46.34375 19.316406 C 47.1875 19.515625 48.078125 19.722656 48.808594 20.410156 C 49.164062 20.769531 49.398438 21.28125 49.433594 21.847656 C 49.445312 22.433594 49.191406 22.988281 48.867188 23.417969 C 48.214844 24.289062 47.320312 24.808594 46.386719 25.105469 C 45.4375 25.394531 44.609375 25.5 43.695312 25.558594 C 41.902344 25.652344 40.125 25.410156 38.386719 25.269531 C 36.644531 25.125 34.902344 25.050781 33.132812 24.878906 C 32.324219 24.742188 31.191406 24.878906 30.207031 23.703125 C 29.757812 23.09375 29.738281 22.257812 29.902344 21.691406 C 30.050781 21.089844 30.363281 20.59375 30.671875 20.195312 C 31.933594 18.480469 34.015625 17.644531 35.867188 17.453125 C 39.664062 16.972656 42.949219 18.59375 46.34375 19.316406 " fill-opacity="1" fill-rule="nonzero"/><g clip-path="url(#8fccc40867)"><path fill="#bf9b30" d="M 9.964844 31.445312 C 8.5625 32.027344 7.054688 32.480469 5.496094 32.394531 C 3.957031 32.367188 2.335938 31.4375 1.8125 29.894531 C 1.257812 28.386719 1.507812 26.75 2.039062 25.316406 C 2.597656 23.867188 3.425781 22.535156 4.476562 21.414062 C 6.578125 19.042969 9.832031 18.085938 12.878906 18.035156 C 15.972656 17.9375 19.011719 18.460938 21.996094 18.800781 L 21.648438 19.707031 C 18.105469 17.320312 14.570312 14.8125 11.46875 11.757812 L 10.738281 11.042969 L 11.695312 10.582031 C 13.308594 9.816406 15.195312 9.902344 16.78125 10.335938 C 18.382812 10.773438 19.839844 11.46875 21.238281 12.132812 C 22.640625 12.800781 24.019531 13.464844 25.402344 13.847656 C 26.785156 14.238281 28.152344 14.28125 29.328125 13.757812 L 28.824219 15.09375 C 28.164062 13.707031 26.882812 12.6875 25.386719 11.929688 C 23.886719 11.171875 22.207031 10.652344 20.480469 10.101562 C 18.707031 9.527344 16.9375 8.789062 15.320312 7.636719 C 13.714844 6.53125 12.203125 4.765625 11.878906 2.5625 L 11.722656 1.5 L 12.75 1.28125 C 16.859375 0.375 21.066406 1.394531 24.589844 3.265625 C 26.414062 4.25 27.882812 5.285156 29.5625 6.359375 C 31.277344 7.472656 32.699219 9.023438 33.953125 10.449219 L 31.890625 11.226562 C 31.890625 10.894531 31.890625 10.574219 31.921875 10.199219 C 31.933594 9.859375 32.070312 9.308594 32.167969 9.058594 C 32.296875 8.691406 32.324219 8.144531 32.351562 7.558594 C 32.382812 6.097656 32.828125 4.695312 33.648438 3.476562 C 34.457031 2.265625 35.800781 1.222656 37.394531 0.996094 C 38.96875 0.734375 40.578125 1.335938 41.683594 2.25 C 43.957031 4.023438 44.976562 6.949219 45.132812 9.484375 C 45.359375 12.042969 45.203125 14.472656 45.777344 16.640625 L 44.0625 16.144531 C 48.722656 11.878906 54.605469 9.015625 60.8125 7.976562 L 61.765625 7.820312 L 61.878906 8.753906 C 62.183594 11.164062 61.320312 13.550781 59.839844 15.328125 C 58.378906 17.113281 56.207031 18.402344 53.832031 18.546875 L 46.359375 19.035156 L 53.546875 17.007812 C 56.390625 16.207031 59.320312 15.703125 62.269531 15.535156 C 63.730469 15.441406 65.210938 15.441406 66.683594 15.511719 C 67.421875 15.5625 68.304688 15.605469 69.105469 16.171875 C 69.929688 16.746094 70.246094 17.808594 70.132812 18.671875 C 70.054688 19.53125 69.582031 20.386719 68.964844 20.933594 C 68.347656 21.507812 67.613281 21.867188 66.910156 22.136719 C 65.480469 22.648438 64.070312 23 62.617188 23.285156 C 59.726562 23.851562 56.773438 24.035156 53.839844 23.828125 L 53.867188 22.964844 C 57.664062 22.964844 61.457031 23.539062 65.074219 24.703125 C 66.875 25.296875 68.632812 26.003906 70.324219 26.875 C 71.152344 27.300781 72.054688 27.734375 72.753906 28.527344 C 73.492188 29.292969 73.605469 30.667969 72.960938 31.53125 C 72.398438 32.410156 71.394531 32.984375 70.394531 33.097656 C 69.382812 33.238281 68.398438 33.0625 67.476562 32.855469 C 65.632812 32.4375 63.820312 31.941406 62.007812 31.402344 C 58.402344 30.3125 54.867188 28.960938 51.425781 27.402344 L 51.875 26.613281 C 53.726562 27.8125 55.886719 28.535156 57.949219 29.625 C 59.988281 30.710938 62.042969 32.296875 62.886719 34.734375 C 63.730469 37.15625 62.660156 40.289062 59.925781 41.230469 C 58.535156 41.660156 57.070312 41.144531 56.070312 40.367188 C 55.042969 39.59375 54.292969 38.636719 53.597656 37.714844 L 55.058594 37.3125 C 54.824219 39.070312 54.421875 40.828125 52.847656 42.257812 C 52.429688 42.589844 51.875 42.875 51.246094 42.902344 C 50.628906 42.910156 50.070312 42.765625 49.5625 42.449219 C 48.554688 41.78125 48.171875 40.804688 47.875 40.003906 L 44.898438 30.722656 L 46.371094 31.21875 C 45.4375 31.835938 45.246094 33.371094 45.1875 34.988281 C 45.132812 35.773438 45.195312 36.6875 44.878906 37.6875 C 44.59375 38.628906 44.113281 39.492188 43.382812 40.230469 C 42.710938 40.945312 41.390625 41.613281 40.082031 41.109375 C 38.855469 40.648438 38.253906 39.394531 38.078125 38.5 C 37.914062 37.496094 37.757812 36.828125 37.957031 35.589844 C 38.027344 35.257812 38.253906 34.882812 38.367188 34.734375 C 38.480469 34.578125 38.523438 34.492188 38.59375 34.351562 C 38.707031 34.089844 38.785156 33.734375 38.863281 33.371094 L 40.597656 33.839844 C 39.847656 35.851562 38.480469 37.835938 36.597656 39.046875 C 34.734375 40.273438 32.785156 40.910156 30.800781 41.640625 C 29.746094 41.972656 28.355469 42.113281 27.222656 41.335938 C 26.117188 40.570312 25.679688 39.289062 25.65625 38.132812 C 25.65625 35.621094 27.429688 33.945312 28.832031 32.535156 L 29.410156 33.402344 L 24.367188 35.328125 C 23.539062 35.582031 22.710938 36.171875 21.519531 35.917969 C 20.925781 35.773438 20.472656 35.214844 20.386719 34.667969 C 20.289062 34.128906 20.367188 33.628906 20.492188 33.160156 C 21.675781 29.640625 23.84375 26.59375 26.578125 24.199219 L 26.804688 24.558594 Z M 9.875 31.246094 L 26.636719 24.15625 L 27.875 23.632812 L 26.863281 24.523438 C 24.191406 26.863281 22.207031 30.015625 21.1875 33.34375 C 20.96875 34.152344 21.09375 35.023438 21.726562 35.144531 C 22.355469 35.300781 23.207031 34.824219 24.035156 34.5 L 29.007812 32.410156 L 31.390625 31.417969 L 29.589844 33.28125 C 28.203125 34.707031 26.8125 36.339844 26.925781 38.089844 C 26.96875 38.960938 27.351562 39.8125 27.988281 40.1875 C 28.597656 40.597656 29.488281 40.535156 30.332031 40.230469 C 32.160156 39.5 34.101562 38.714844 35.632812 37.644531 C 37.203125 36.582031 38.246094 35.015625 38.90625 33.195312 L 40.648438 33.664062 C 40.570312 34.109375 40.492188 34.570312 40.289062 35.074219 C 40.195312 35.320312 40.039062 35.597656 39.90625 35.78125 C 39.785156 35.972656 39.804688 35.953125 39.785156 36.03125 C 39.71875 36.425781 39.820312 37.445312 39.96875 38.042969 C 40.136719 38.730469 40.421875 39.132812 40.796875 39.261719 C 41.101562 39.375 41.519531 39.238281 41.980469 38.792969 C 42.425781 38.367188 42.789062 37.742188 42.980469 37.105469 C 43.191406 36.519531 43.171875 35.746094 43.226562 34.890625 C 43.277344 34.046875 43.324219 33.167969 43.566406 32.226562 C 43.792969 31.304688 44.351562 30.277344 45.265625 29.640625 L 46.34375 28.894531 L 46.734375 30.140625 L 49.617188 39.394531 C 50.050781 40.867188 50.964844 41.546875 51.777344 40.882812 C 52.691406 40.171875 53.28125 38.558594 53.449219 37.164062 L 53.699219 34.988281 L 54.910156 36.765625 C 56.121094 38.550781 57.75 40.324219 59.527344 39.839844 C 61.25 39.367188 62.339844 36.957031 61.6875 35.128906 C 61.078125 33.167969 59.324219 31.644531 57.429688 30.582031 C 55.503906 29.492188 53.316406 28.703125 51.367188 27.367188 L 51.8125 26.578125 C 55.191406 28.179688 58.671875 29.527344 62.234375 30.652344 C 64.019531 31.210938 65.820312 31.714844 67.632812 32.148438 C 69.363281 32.609375 71.429688 32.679688 72.398438 31.164062 C 72.875 30.46875 72.785156 29.589844 72.222656 28.972656 C 71.664062 28.34375 70.835938 27.925781 70 27.507812 C 68.335938 26.671875 66.613281 25.992188 64.835938 25.425781 C 61.300781 24.320312 57.574219 23.765625 53.875 23.828125 L 53.894531 22.964844 C 56.75 23.101562 59.621094 22.867188 62.40625 22.257812 C 63.792969 21.953125 65.203125 21.570312 66.492188 21.074219 C 67.765625 20.585938 68.835938 19.734375 68.902344 18.546875 C 69.042969 17.3125 68.066406 16.808594 66.632812 16.824219 C 65.210938 16.789062 63.785156 16.816406 62.355469 16.9375 C 59.527344 17.15625 56.714844 17.695312 53.996094 18.523438 L 53.710938 16.980469 C 57.488281 16.675781 60.640625 12.664062 60.066406 8.996094 L 61.136719 9.78125 C 55.3125 10.886719 49.808594 13.664062 45.480469 17.679688 L 44.210938 18.863281 L 43.765625 17.179688 C 43.0625 14.570312 43.226562 12.019531 42.980469 9.703125 C 42.859375 8.515625 42.660156 7.445312 42.207031 6.480469 C 41.753906 5.503906 41.101562 4.609375 40.308594 3.988281 C 38.734375 2.683594 36.636719 3.03125 35.554688 4.757812 C 35.003906 5.574219 34.695312 6.609375 34.675781 7.613281 C 34.648438 8.246094 34.65625 8.945312 34.425781 9.753906 C 34.320312 10.085938 34.308594 10.136719 34.285156 10.414062 C 34.257812 10.652344 34.246094 10.945312 34.246094 11.226562 L 34.195312 14.316406 L 32.175781 12 C 30.921875 10.5625 29.738281 9.265625 28.242188 8.28125 C 26.707031 7.289062 25.042969 6.132812 23.511719 5.304688 C 20.34375 3.597656 16.660156 2.746094 13.238281 3.492188 L 14.117188 2.214844 C 14.316406 3.632812 15.300781 4.871094 16.625 5.808594 C 17.949219 6.765625 19.542969 7.4375 21.179688 8.003906 C 22.875 8.585938 24.652344 9.160156 26.359375 10.078125 C 28.039062 10.964844 29.738281 12.324219 30.609375 14.246094 L 31.035156 15.1875 L 30.105469 15.589844 C 28.386719 16.3125 26.464844 16.144531 24.878906 15.648438 C 23.277344 15.160156 21.847656 14.429688 20.457031 13.734375 C 19.070312 13.027344 17.722656 12.324219 16.335938 11.894531 C 14.953125 11.46875 13.542969 11.375 12.28125 11.914062 L 12.507812 10.738281 C 15.398438 13.792969 18.765625 16.398438 22.222656 18.886719 L 23.886719 20.089844 L 21.867188 19.792969 C 18.855469 19.351562 15.882812 18.738281 12.898438 18.738281 C 9.945312 18.695312 6.835938 19.480469 4.816406 21.726562 C 3.789062 22.796875 2.960938 24.078125 2.414062 25.453125 C 1.882812 26.828125 1.640625 28.386719 2.136719 29.773438 C 2.597656 31.183594 4.035156 32.054688 5.515625 32.113281 C 7.003906 32.21875 8.484375 31.792969 9.875 31.246094 " fill-opacity="1" fill-rule="nonzero"/></g><g clip-path="url(#951f17d6ff)"><path fill="#bf9b30" d="M 42.164062 63.480469 C 42.679688 57.078125 41.433594 50.703125 41.511719 44.253906 L 41.511719 43.773438 L 41.882812 44.070312 C 42.902344 44.878906 43.375 46.109375 43.6875 47.265625 C 43.992188 48.449219 44.140625 49.660156 44.191406 50.859375 C 44.3125 53.273438 44.132812 55.667969 43.921875 58.054688 C 43.679688 60.4375 43.503906 62.773438 43.390625 65.167969 L 42.949219 72.308594 C 42.679688 77.054688 42.546875 81.796875 42.871094 86.503906 C 43.171875 91.210938 43.835938 95.90625 44.660156 100.582031 C 46.359375 109.90625 48.328125 119.320312 49.25 128.878906 C 50.210938 138.433594 50.480469 148.054688 49.878906 157.632812 L 47.710938 157.039062 L 60.796875 132.441406 L 61.78125 130.597656 L 62.644531 132.496094 C 66.066406 140.023438 66.664062 148.445312 65.933594 156.441406 C 65.195312 164.492188 63.21875 172.3125 61.101562 180.011719 C 60.554688 181.933594 60.074219 183.875 59.34375 185.792969 C 58.613281 187.699219 57.558594 189.582031 55.957031 190.957031 C 54.390625 192.3125 52.578125 193.230469 51.472656 194.761719 C 50.332031 196.265625 49.921875 198.234375 49.765625 200.175781 C 49.582031 204.105469 49.6875 208.144531 49.625 212.125 L 49.625 224.109375 L 48.902344 224.109375 L 48.414062 203.929688 C 48.1875 197.207031 47.824219 190.492188 46.777344 183.894531 C 45.855469 177.328125 43.410156 170.832031 43.84375 163.773438 C 44.082031 160.269531 44.996094 156.988281 45.386719 153.742188 C 45.785156 150.511719 45.570312 147.210938 45.289062 143.882812 L 43.261719 123.804688 L 41.40625 103.699219 C 40.816406 97.003906 39.996094 90.296875 39.917969 83.542969 C 39.863281 80.164062 40.074219 76.773438 40.621094 73.449219 C 41.144531 70.121094 41.851562 66.824219 42.164062 63.480469 Z M 42.382812 63.496094 C 42.113281 66.867188 41.441406 70.171875 40.960938 73.5 C 40.449219 76.820312 40.273438 80.179688 40.363281 83.53125 C 40.554688 90.246094 41.640625 96.898438 42.414062 103.585938 L 44.917969 123.621094 L 47.242188 143.691406 C 47.605469 147.0625 47.761719 150.527344 47.320312 153.984375 C 46.867188 157.414062 45.949219 160.660156 45.726562 163.890625 C 45.289062 170.40625 47.398438 176.9375 48.242188 183.675781 C 49.136719 190.40625 49.339844 197.171875 49.398438 203.90625 L 49.625 224.089844 L 48.902344 224.109375 C 49.023438 216.109375 48.800781 208.160156 48.964844 200.113281 C 49.113281 198.113281 49.53125 195.996094 50.773438 194.257812 C 52.019531 192.488281 53.902344 191.511719 55.304688 190.222656 C 58.175781 187.628906 58.898438 183.511719 59.925781 179.695312 C 61.894531 171.980469 63.695312 164.199219 64.273438 156.308594 C 64.863281 148.457031 64.019531 140.433594 60.773438 133.347656 L 62.617188 133.398438 L 49.75 158.101562 L 47.320312 162.753906 L 47.578125 157.5 C 48.050781 148.046875 47.902344 138.542969 46.960938 129.117188 C 46.132812 119.667969 44.054688 110.394531 42.605469 100.917969 C 41.867188 96.191406 41.292969 91.414062 41.085938 86.597656 C 40.894531 81.773438 41.214844 76.964844 41.640625 72.214844 L 42.320312 65.089844 C 42.511719 62.730469 42.765625 60.308594 43.078125 57.96875 C 43.355469 55.605469 43.609375 53.238281 43.566406 50.886719 C 43.554688 49.703125 43.441406 48.527344 43.191406 47.398438 C 42.921875 46.28125 42.46875 45.140625 41.589844 44.4375 L 41.972656 44.261719 C 41.816406 50.644531 42.980469 57.0625 42.382812 63.496094 " fill-opacity="1" fill-rule="nonzero"/></g><path fill="#bf9b30" d="M 41.265625 103.941406 C 39.34375 100.144531 36.285156 97.035156 32.613281 95.25 C 31.714844 94.789062 30.707031 94.433594 29.679688 93.859375 C 28.625 93.285156 27.699219 92.386719 27.039062 91.421875 C 25.664062 89.460938 25.078125 87.320312 24.304688 85.410156 C 23.023438 81.539062 19.601562 78.828125 15.824219 76.90625 C 12.011719 75.007812 8.039062 73.363281 4.070312 71.757812 L 4.695312 70.984375 C 7.621094 74.660156 10.363281 78.515625 12.722656 82.601562 C 13.90625 84.636719 15.023438 86.71875 16.078125 88.835938 C 17.136719 90.941406 18.054688 93.007812 19.472656 94.539062 C 20.882812 96.113281 22.789062 97.316406 24.78125 98.492188 C 26.777344 99.683594 28.804688 100.9375 30.75 102.261719 C 34.640625 104.933594 38.316406 107.914062 41.660156 111.214844 L 41.511719 111.378906 C 37.6875 108.671875 33.804688 106.113281 29.796875 103.769531 C 27.796875 102.574219 25.785156 101.484375 23.695312 100.40625 C 21.640625 99.285156 19.464844 98.054688 17.703125 96.148438 C 15.945312 94.21875 14.96875 91.902344 14.03125 89.808594 C 13.0625 87.710938 12.035156 85.628906 10.949219 83.59375 C 8.769531 79.5 6.445312 75.46875 3.859375 71.59375 L 2.769531 69.964844 L 4.496094 70.820312 C 8.335938 72.726562 12.226562 74.46875 16.171875 76.175781 C 18.132812 77.0625 20.125 77.992188 21.902344 79.371094 C 23.667969 80.703125 25.21875 82.59375 26.066406 84.65625 C 26.988281 86.667969 27.570312 88.714844 28.640625 90.316406 C 29.171875 91.117188 29.816406 91.75 30.625 92.257812 C 31.4375 92.769531 32.429688 93.1875 33.410156 93.753906 C 37.289062 96.019531 40.265625 99.695312 41.476562 103.863281 L 41.265625 103.941406 " fill-opacity="1" fill-rule="nonzero"/><path fill="#bf9b30" d="M 49.101562 188.960938 C 48.625 187.777344 48.371094 186.550781 48.328125 185.261719 C 48.285156 183.980469 48.476562 182.597656 49.15625 181.402344 C 49.851562 180.21875 50.898438 179.453125 51.644531 178.511719 C 52.429688 177.582031 52.925781 176.484375 53.125 175.332031 C 53.484375 173.042969 53.421875 170.71875 53.710938 168.238281 C 54.058594 165.859375 54.972656 162.960938 57.277344 161.585938 L 57.4375 161.742188 C 56.355469 163.988281 56.277344 166.148438 56.078125 168.527344 C 55.957031 169.699219 55.789062 170.910156 55.539062 172.140625 C 55.320312 173.367188 54.921875 174.621094 54.277344 175.753906 C 53.65625 176.902344 52.882812 177.894531 52.238281 178.933594 C 51.585938 179.957031 51.15625 181.144531 50.84375 182.171875 C 50.113281 184.171875 49.972656 186.460938 49.328125 188.953125 L 49.101562 188.960938 " fill-opacity="1" fill-rule="nonzero"/><path fill="#bf9b30" d="M 37.0625 107.171875 C 36.058594 106.589844 35.347656 105.613281 34.832031 104.648438 C 34.308594 103.664062 33.9375 102.671875 33.707031 101.667969 C 33.492188 100.675781 33.410156 99.605469 32.890625 98.726562 C 32.378906 97.847656 31.515625 97.21875 30.59375 96.792969 C 28.71875 95.984375 26.796875 95.296875 24.878906 94.355469 C 23.023438 93.328125 21.25 92.179688 19.664062 90.605469 L 19.757812 90.402344 C 21.972656 90.691406 23.984375 91.378906 25.925781 92.214844 C 26.882812 92.65625 27.796875 93.164062 28.71875 93.738281 C 29.652344 94.285156 30.546875 94.976562 31.3125 95.808594 C 32.089844 96.609375 32.785156 97.464844 33.484375 98.320312 C 34.160156 99.171875 34.945312 100.050781 35.441406 101.035156 C 36.382812 103.0625 36.574219 104.941406 37.234375 107.035156 L 37.0625 107.171875 " fill-opacity="1" fill-rule="nonzero"/></svg>