<?xml version="1.0" encoding="utf-8"?>
<svg xmlns="http://www.w3.org/2000/svg" width="300" zoomAndPan="magnify" viewBox="0 0 224.87999 225" height="300" preserveAspectRatio="xMidYMid meet" version="1.0">
  <defs>
    <clipPath id="a5dae41850">
      <path d="M 148 0.0585938 L 150 0.0585938 L 150 3 L 148 3 Z M 148 0.0585938 " clip-rule="nonzero"/>
    </clipPath>
    <clipPath id="27d31f9bdc">
      <path d="M 154 0.0585938 L 156 0.0585938 L 156 3 L 154 3 Z M 154 0.0585938 " clip-rule="nonzero"/>
    </clipPath>
  </defs>
  <path fill="#bf9b30" d="M 1.988281 123.816406 C 1.910156 123.949219 1.476562 123.839844 0.96875 123.707031 C 0.84375 123.667969 0.722656 123.644531 0.613281 123.601562 C 0.5 123.574219 0.398438 123.539062 0.316406 123.503906 C 0.144531 123.445312 0.0351562 123.371094 0.0351562 123.296875 C 0.0351562 123.222656 0.152344 123.160156 0.351562 123.121094 C 0.449219 123.109375 0.566406 123.105469 0.695312 123.109375 C 0.824219 123.125 0.96875 123.136719 1.113281 123.179688 C 1.183594 123.199219 1.253906 123.222656 1.320312 123.242188 C 1.386719 123.269531 1.445312 123.296875 1.503906 123.328125 C 1.621094 123.378906 1.71875 123.449219 1.796875 123.507812 C 1.875 123.570312 1.933594 123.628906 1.964844 123.683594 C 1.996094 123.738281 2.003906 123.78125 1.988281 123.816406 " fill-opacity="1" fill-rule="nonzero"/>
  <path fill="#bf9b30" d="M 2.617188 112.507812 C 2.628906 112.582031 2.492188 112.679688 2.246094 112.753906 C 1.996094 112.824219 1.632812 112.867188 1.238281 112.800781 C 0.839844 112.734375 0.5 112.574219 0.296875 112.410156 C 0.0859375 112.246094 0.00390625 112.089844 0.0507812 112.03125 C 0.0976562 111.96875 0.25 112.007812 0.472656 112.066406 C 0.695312 112.128906 0.988281 112.207031 1.328125 112.261719 C 1.992188 112.375 2.585938 112.355469 2.617188 112.507812 " fill-opacity="1" fill-rule="nonzero"/>
  <path fill="#bf9b30" d="M 150.618 2.84 C 150.547 2.875 150.45 2.82 150.352 2.703 C 150.254 2.59 150.157 2.41 150.098 2.199 C 149.973 1.781 150.016 1.418 150.157 1.383 C 150.305 1.344 150.5 1.652 150.618 2.043 C 150.731 2.434 150.754 2.777 150.618 2.84" fill-opacity="1" fill-rule="nonzero" style="transform-box: fill-box; transform-origin: 50% 50%;"/>
  <path fill="#bf9b30" d="M 152.078 4.285 C 151.649 4.113 151.305 3.777 151.055 3.395 C 150.801 3.012 150.645 2.57 150.524 2.121 C 150.516 2.09 150.481 2.074 150.442 2.086 L 150.25 2.145 C 150.215 2.156 150.192 2.188 150.203 2.219 C 150.36 2.68 150.559 3.137 150.86 3.535 C 151.156 3.926 151.555 4.262 152.031 4.418 C 152.106 4.441 152.145 4.313 152.078 4.285" fill-opacity="1" fill-rule="nonzero" style="transform-box: fill-box; transform-origin: 50% 50%;"/>
  <g clip-path="url(#a5dae41850)" style="transform-origin: 149.083px 1.29097px;" transform="matrix(1, 0, 0, 1, 0.001315, 0.000215)">
    <path fill="#bf9b30" d="M 149.417969 2.421875 C 149.351562 2.457031 149.226562 2.371094 149.09375 2.183594 C 148.964844 2 148.832031 1.710938 148.757812 1.378906 C 148.683594 1.046875 148.679688 0.734375 148.710938 0.511719 C 148.746094 0.289062 148.8125 0.15625 148.886719 0.152344 C 149.042969 0.152344 149.15625 0.660156 149.289062 1.257812 C 149.355469 1.558594 149.417969 1.832031 149.449219 2.039062 C 149.484375 2.242188 149.484375 2.390625 149.417969 2.421875 " fill-opacity="1" fill-rule="nonzero"/>
  </g>
  <path fill="#bf9b30" d="M 151.969 4.199 C 151.254 4.129 150.602 3.75 150.125 3.234 C 149.641 2.714 149.344 2.046 149.196 1.355 C 149.188 1.308 149.149 1.277 149.11 1.285 L 148.914 1.328 C 148.879 1.336 148.856 1.386 148.868 1.433 C 149.059 2.164 149.411 2.863 149.953 3.398 C 150.489 3.929 151.203 4.296 151.957 4.339 C 152.075 4.347 152.075 4.211 151.969 4.199" fill-opacity="1" fill-rule="nonzero" style="transform-box: fill-box; transform-origin: 50% 50%;"/>
  <path fill="#bf9b30" d="M 153.343 2.649 C 153.203 2.594 153.203 2.251 153.25 1.864 C 153.265 1.766 153.273 1.676 153.297 1.59 C 153.312 1.504 153.332 1.426 153.355 1.36 C 153.398 1.227 153.461 1.137 153.535 1.129 C 153.613 1.122 153.683 1.204 153.742 1.348 C 153.765 1.422 153.785 1.512 153.797 1.61 C 153.8 1.712 153.808 1.821 153.793 1.934 C 153.785 1.989 153.773 2.044 153.761 2.098 C 153.75 2.149 153.734 2.2 153.714 2.247 C 153.687 2.34 153.64 2.422 153.597 2.485 C 153.515 2.614 153.414 2.672 153.343 2.649" fill-opacity="1" fill-rule="nonzero" style="transform-box: fill-box; transform-origin: 50% 50%;"/>
  <path fill="#bf9b30" d="M 152.153 4.422 C 152.946 3.856 153.5 2.953 153.672 1.969 C 153.68 1.938 153.653 1.906 153.614 1.898 L 153.418 1.875 C 153.375 1.871 153.34 1.891 153.34 1.922 C 153.246 2.828 152.789 3.715 152.067 4.313 C 152.012 4.359 152.09 4.469 152.153 4.422" fill-opacity="1" fill-rule="nonzero" style="transform-box: fill-box; transform-origin: 50% 50%;"/>
  <g clip-path="url(#27d31f9bdc)" style="transform-origin: 155.208px 1.22581px;" transform="matrix(1, 0, 0, 1, -0.00027, 0.000217)">
    <path fill="#bf9b30" d="M 154.761719 2.371094 C 154.730469 2.351562 154.71875 2.304688 154.722656 2.234375 C 154.726562 2.164062 154.746094 2.074219 154.777344 1.96875 C 154.832031 1.753906 154.9375 1.484375 155.039062 1.179688 C 155.140625 0.875 155.230469 0.601562 155.308594 0.398438 C 155.390625 0.195312 155.46875 0.0664062 155.546875 0.0703125 C 155.617188 0.0742188 155.675781 0.21875 155.691406 0.457031 C 155.707031 0.691406 155.667969 1.015625 155.554688 1.355469 C 155.441406 1.695312 155.265625 1.972656 155.117188 2.152344 C 155.035156 2.242188 154.964844 2.308594 154.90625 2.34375 C 154.84375 2.382812 154.792969 2.390625 154.761719 2.371094 " fill-opacity="1" fill-rule="nonzero"/>
  </g>
  <path fill="#bf9b30" d="M 152.106 4.434 C 152.489 4.371 152.864 4.223 153.196 4.027 C 153.532 3.832 153.844 3.598 154.125 3.332 C 154.692 2.797 155.137 2.129 155.418 1.395 C 155.438 1.348 155.422 1.297 155.383 1.285 L 155.196 1.219 C 155.161 1.207 155.118 1.234 155.098 1.281 C 154.868 1.981 154.477 2.629 153.958 3.16 C 153.704 3.43 153.411 3.668 153.098 3.867 C 152.786 4.07 152.442 4.219 152.083 4.297 C 151.969 4.32 151.989 4.453 152.106 4.434" fill-opacity="1" fill-rule="nonzero" style="transform-box: fill-box; transform-origin: 50% 50%;"/>
  <path fill="#bf9b30" d="M 148.794 3.559 C 148.766 3.586 148.72 3.59 148.649 3.57 C 148.579 3.551 148.489 3.504 148.388 3.43 C 148.188 3.289 147.95 3.043 147.77 2.711 C 147.583 2.387 147.497 2.051 147.485 1.805 C 147.47 1.559 147.52 1.406 147.595 1.395 C 147.673 1.383 147.755 1.512 147.856 1.707 C 147.958 1.902 148.087 2.168 148.243 2.449 C 148.552 3.012 148.891 3.438 148.794 3.559" fill-opacity="1" fill-rule="nonzero" style="transform-box: fill-box; transform-origin: 50% 50%;"/>
  <path fill="#bf9b30" d="M 152.075 4.25 C 151.328 4.437 150.524 4.363 149.825 4.066 C 149.125 3.769 148.543 3.226 148.18 2.574 C 148.157 2.527 148.11 2.508 148.075 2.527 L 147.903 2.621 C 147.868 2.64 147.864 2.695 147.891 2.742 C 148.317 3.445 148.973 4.004 149.739 4.285 C 150.496 4.574 151.34 4.613 152.11 4.383 C 152.231 4.347 152.188 4.222 152.075 4.25" fill-opacity="1" fill-rule="nonzero" style="transform-box: fill-box; transform-origin: 50% 50%;"/>
  <path fill="#bf9b30" d="M 149.165 5.168 C 149.145 5.242 149.009 5.281 148.798 5.262 C 148.587 5.242 148.305 5.164 148.024 5.008 C 147.743 4.856 147.524 4.656 147.395 4.488 C 147.266 4.32 147.223 4.184 147.274 4.129 C 147.329 4.074 147.462 4.109 147.637 4.192 C 147.813 4.274 148.04 4.395 148.286 4.531 C 148.774 4.805 149.2 5.02 149.165 5.168" fill-opacity="1" fill-rule="nonzero" style="transform-box: fill-box; transform-origin: 50% 50%;"/>
  <path fill="#bf9b30" d="M 151.945 4.395 C 151.668 4.591 151.391 4.778 151.09 4.923 C 150.797 5.067 150.48 5.161 150.156 5.173 C 149.836 5.184 149.508 5.126 149.195 5.04 C 148.879 4.95 148.574 4.821 148.293 4.665 C 148.254 4.641 148.203 4.653 148.187 4.688 L 148.09 4.86 C 148.07 4.895 148.09 4.942 148.133 4.962 C 148.445 5.118 148.781 5.239 149.121 5.317 C 149.465 5.395 149.816 5.442 150.176 5.411 C 150.531 5.38 150.875 5.255 151.18 5.091 C 151.484 4.923 151.762 4.716 152.027 4.509 C 152.109 4.442 152.031 4.337 151.945 4.395" fill-opacity="1" fill-rule="nonzero" style="transform-box: fill-box; transform-origin: 50% 50%;"/>
  <path fill="#bf9b30" d="M 150.86 6.043 C 150.899 6.105 150.864 6.215 150.754 6.324 C 150.645 6.434 150.461 6.539 150.246 6.598 C 149.817 6.715 149.465 6.637 149.442 6.492 C 149.41 6.34 149.727 6.176 150.098 6.074 C 150.285 6.023 150.449 5.988 150.582 5.98 C 150.715 5.969 150.821 5.98 150.86 6.043" fill-opacity="1" fill-rule="nonzero" style="transform-box: fill-box; transform-origin: 50% 50%;"/>
  <path fill="#bf9b30" d="M 151.977 4.351 C 151.934 4.566 151.817 4.761 151.688 4.949 C 151.555 5.14 151.426 5.336 151.278 5.503 C 151.133 5.679 150.973 5.824 150.786 5.929 C 150.598 6.039 150.391 6.113 150.173 6.168 C 150.145 6.175 150.13 6.214 150.141 6.253 L 150.196 6.441 C 150.204 6.48 150.239 6.503 150.27 6.492 C 150.501 6.418 150.731 6.316 150.938 6.175 C 151.149 6.035 151.329 5.847 151.469 5.652 C 151.61 5.453 151.727 5.253 151.848 5.05 C 151.966 4.847 152.083 4.625 152.114 4.371 C 152.122 4.293 151.985 4.285 151.977 4.351" fill-opacity="1" fill-rule="nonzero" style="transform-box: fill-box; transform-origin: 50% 50%;"/>
  <path fill="#bf9b30" d="M 153.274 6.059 C 153.371 5.942 153.672 6.043 153.973 6.164 C 154.125 6.223 154.254 6.278 154.36 6.324 C 154.461 6.375 154.547 6.43 154.559 6.504 C 154.575 6.574 154.504 6.664 154.352 6.711 C 154.204 6.762 153.981 6.754 153.774 6.672 C 153.563 6.59 153.414 6.457 153.329 6.34 C 153.246 6.223 153.227 6.117 153.274 6.059" fill-opacity="1" fill-rule="nonzero" style="transform-box: fill-box; transform-origin: 50% 50%;"/>
  <path fill="#bf9b30" d="M 152.059 4.532 C 152.211 4.95 152.434 5.34 152.719 5.684 C 152.864 5.86 153.02 6.02 153.192 6.165 C 153.364 6.313 153.555 6.446 153.77 6.547 C 153.797 6.559 153.833 6.54 153.848 6.505 L 153.919 6.317 C 153.934 6.282 153.926 6.243 153.899 6.235 C 153.532 6.094 153.192 5.825 152.899 5.528 C 152.606 5.223 152.364 4.868 152.192 4.481 C 152.161 4.422 152.04 4.469 152.059 4.532" fill-opacity="1" fill-rule="nonzero" style="transform-box: fill-box; transform-origin: 50% 50%;"/>
  <path fill="#bf9b30" d="M 154.895 5.422 C 154.887 5.344 154.992 5.266 155.16 5.18 C 155.328 5.09 155.551 4.992 155.793 4.875 C 156.035 4.758 156.254 4.645 156.426 4.566 C 156.598 4.492 156.727 4.453 156.777 4.508 C 156.832 4.559 156.797 4.699 156.668 4.867 C 156.543 5.035 156.32 5.227 156.031 5.363 C 155.742 5.504 155.453 5.559 155.242 5.555 C 155.137 5.555 155.051 5.539 154.992 5.512 C 154.934 5.492 154.898 5.457 154.895 5.422" fill-opacity="1" fill-rule="nonzero" style="transform-box: fill-box; transform-origin: 50% 50%;"/>
  <path fill="#bf9b30" d="M 152.153 4.488 C 152.606 4.988 153.223 5.34 153.891 5.492 C 154.559 5.644 155.278 5.566 155.914 5.293 C 155.961 5.277 155.981 5.23 155.965 5.195 L 155.875 5.016 C 155.86 4.98 155.813 4.965 155.778 4.988 C 155.215 5.262 154.563 5.367 153.938 5.258 C 153.309 5.152 152.711 4.848 152.25 4.391 C 152.184 4.324 152.078 4.41 152.153 4.488" fill-opacity="1" fill-rule="nonzero" style="transform-box: fill-box; transform-origin: 50% 50%;"/>
  <path fill="#bf9b30" d="M 155.039 3.754 C 154.937 3.633 155.25 3.239 155.562 2.743 C 155.723 2.493 155.867 2.266 155.98 2.094 C 156.094 1.93 156.191 1.825 156.266 1.844 C 156.336 1.86 156.371 2.008 156.34 2.231 C 156.312 2.454 156.207 2.75 156.023 3.036 C 155.836 3.325 155.613 3.539 155.422 3.657 C 155.328 3.723 155.242 3.754 155.176 3.774 C 155.109 3.789 155.062 3.782 155.039 3.754" fill-opacity="1" fill-rule="nonzero" style="transform-box: fill-box; transform-origin: 50% 50%;"/>
  <path fill="#bf9b30" d="M 152.059 4.473 C 152.207 4.59 152.387 4.664 152.571 4.7 C 152.758 4.735 152.946 4.739 153.129 4.723 C 153.5 4.684 153.852 4.578 154.192 4.434 C 154.864 4.133 155.453 3.649 155.887 3.039 C 155.914 3 155.907 2.95 155.875 2.926 L 155.711 2.817 C 155.676 2.797 155.629 2.813 155.606 2.852 C 155.235 3.426 154.711 3.907 154.09 4.215 C 153.782 4.368 153.446 4.485 153.11 4.536 C 152.774 4.582 152.414 4.555 152.141 4.364 C 152.063 4.301 151.969 4.399 152.059 4.473" fill-opacity="1" fill-rule="nonzero" style="transform-box: fill-box; transform-origin: 50% 50%;"/>
  <path fill="#bf9b30" d="M 162.598 21.489 C 162.449 21.512 162.273 21.176 162.27 20.731 C 162.266 20.29 162.438 19.95 162.582 19.969 C 162.734 19.989 162.809 20.329 162.816 20.727 C 162.82 21.126 162.746 21.466 162.598 21.489" fill-opacity="1" fill-rule="nonzero" style="transform-box: fill-box; transform-origin: 50% 50%;"/>
  <path fill="#bf9b30" d="M 163.407 23.417 C 162.883 22.64 162.688 21.695 162.704 20.773 C 162.704 20.746 162.672 20.718 162.633 20.718 L 162.434 20.718 C 162.395 20.718 162.364 20.75 162.368 20.781 C 162.379 21.023 162.403 21.265 162.446 21.507 C 162.489 21.746 162.543 21.984 162.622 22.214 C 162.77 22.679 162.993 23.117 163.29 23.5 C 163.336 23.562 163.446 23.48 163.407 23.417" fill-opacity="1" fill-rule="nonzero" style="transform-box: fill-box; transform-origin: 50% 50%;"/>
  <path fill="#bf9b30" d="M 161.47 20.895 C 161.399 20.91 161.305 20.789 161.231 20.578 C 161.161 20.367 161.114 20.063 161.13 19.723 C 161.145 19.387 161.231 19.086 161.325 18.883 C 161.419 18.68 161.528 18.574 161.595 18.598 C 161.743 18.645 161.704 19.148 161.677 19.754 C 161.637 20.356 161.622 20.863 161.47 20.895" fill-opacity="1" fill-rule="nonzero" style="transform-box: fill-box; transform-origin: 50% 50%;"/>
  <path fill="#bf9b30" d="M 163.309 23.383 C 162.699 23.02 162.149 22.52 161.875 21.879 C 161.614 21.234 161.516 20.512 161.559 19.82 C 161.559 19.773 161.532 19.734 161.492 19.73 L 161.293 19.719 C 161.254 19.715 161.223 19.754 161.219 19.805 C 161.207 20.555 161.348 21.297 161.66 21.977 C 161.824 22.32 162.063 22.621 162.336 22.871 C 162.61 23.121 162.914 23.328 163.239 23.504 C 163.336 23.555 163.399 23.438 163.309 23.383" fill-opacity="1" fill-rule="nonzero" style="transform-box: fill-box; transform-origin: 50% 50%;"/>
  <path fill="#bf9b30" d="M 160.066 20.762 C 160 20.793 159.863 20.661 159.734 20.399 C 159.606 20.137 159.496 19.743 159.484 19.293 C 159.469 18.848 159.559 18.446 159.672 18.18 C 159.785 17.911 159.914 17.77 159.981 17.793 C 160.055 17.821 160.059 18 160.047 18.266 C 160.039 18.532 160.016 18.887 160.027 19.278 C 160.039 19.672 160.078 20.028 160.106 20.289 C 160.129 20.559 160.137 20.735 160.066 20.762" fill-opacity="1" fill-rule="nonzero" style="transform-box: fill-box; transform-origin: 50% 50%;"/>
  <path fill="#bf9b30" d="M 163.16 23.309 C 162.703 23.258 162.262 23.087 161.871 22.84 C 161.485 22.594 161.149 22.27 160.867 21.903 C 160.731 21.719 160.602 21.528 160.488 21.329 C 160.43 21.227 160.383 21.122 160.332 21.02 C 160.278 20.919 160.227 20.817 160.188 20.708 C 160.024 20.282 159.934 19.833 159.918 19.376 C 159.914 19.317 159.883 19.266 159.844 19.27 L 159.645 19.274 C 159.61 19.274 159.574 19.329 159.582 19.395 C 159.613 19.883 159.731 20.368 159.922 20.817 C 159.969 20.93 160.028 21.04 160.082 21.145 C 160.145 21.251 160.196 21.36 160.262 21.462 C 160.387 21.669 160.528 21.864 160.684 22.051 C 160.988 22.426 161.356 22.754 161.774 23.001 C 162.196 23.247 162.664 23.411 163.149 23.446 C 163.297 23.458 163.301 23.321 163.16 23.309" fill-opacity="1" fill-rule="nonzero" style="transform-box: fill-box; transform-origin: 50% 50%;"/>
  <path fill="#bf9b30" d="M 159.781 22.255 C 159.727 22.305 159.567 22.231 159.367 22.044 C 159.172 21.856 158.953 21.548 158.781 21.184 C 158.602 20.825 158.5 20.45 158.496 20.169 C 158.489 19.887 158.563 19.716 158.637 19.719 C 158.715 19.719 158.778 19.872 158.871 20.091 C 158.965 20.313 159.102 20.606 159.27 20.946 C 159.438 21.29 159.578 21.594 159.684 21.817 C 159.785 22.048 159.84 22.204 159.781 22.255" fill-opacity="1" fill-rule="nonzero" style="transform-box: fill-box; transform-origin: 50% 50%;"/>
  <path fill="#bf9b30" d="M 163.313 23.324 C 162.891 23.422 162.457 23.469 162.031 23.422 C 161.606 23.375 161.199 23.227 160.84 23 C 160.477 22.778 160.152 22.489 159.879 22.164 C 159.606 21.836 159.391 21.469 159.207 21.078 C 159.184 21.024 159.137 20.996 159.102 21.012 L 158.918 21.098 C 158.883 21.117 158.879 21.176 158.906 21.227 C 159.11 21.625 159.356 22.016 159.664 22.352 C 159.969 22.692 160.324 22.981 160.715 23.207 C 161.11 23.434 161.559 23.578 162.012 23.61 C 162.469 23.641 162.918 23.578 163.348 23.461 C 163.481 23.422 163.442 23.293 163.313 23.324" fill-opacity="1" fill-rule="nonzero" style="transform-box: fill-box; transform-origin: 50% 50%;"/>
  <path fill="#bf9b30" d="M 160.938 24.145 C 160.922 24.219 160.805 24.266 160.629 24.258 C 160.454 24.254 160.215 24.195 159.985 24.067 C 159.754 23.942 159.575 23.778 159.477 23.637 C 159.375 23.492 159.344 23.375 159.395 23.32 C 159.5 23.207 159.852 23.375 160.247 23.59 C 160.446 23.699 160.622 23.801 160.747 23.895 C 160.875 23.985 160.954 24.074 160.938 24.145" fill-opacity="1" fill-rule="nonzero" style="transform-box: fill-box; transform-origin: 50% 50%;"/>
  <path fill="#bf9b30" d="M 163.16 23.505 C 162.809 23.903 162.266 24.087 161.746 24.106 C 161.215 24.126 160.696 23.973 160.242 23.715 C 160.211 23.696 160.168 23.712 160.153 23.747 L 160.055 23.919 C 160.035 23.954 160.047 23.997 160.082 24.012 C 160.598 24.27 161.184 24.399 161.762 24.344 C 162.047 24.317 162.332 24.243 162.594 24.118 C 162.852 24.001 163.09 23.821 163.27 23.59 C 163.324 23.52 163.215 23.442 163.16 23.505" fill-opacity="1" fill-rule="nonzero" style="transform-box: fill-box; transform-origin: 50% 50%;"/>
  <path fill="#bf9b30" d="M 164.102 26.098 C 164.153 26.043 164.278 26.074 164.438 26.137 C 164.598 26.199 164.801 26.301 165.028 26.398 C 165.254 26.5 165.461 26.586 165.618 26.664 C 165.774 26.738 165.875 26.813 165.872 26.887 C 165.868 26.961 165.75 27.027 165.551 27.043 C 165.356 27.059 165.079 27.02 164.805 26.895 C 164.532 26.777 164.321 26.598 164.204 26.441 C 164.079 26.281 164.047 26.152 164.102 26.098" fill-opacity="1" fill-rule="nonzero" style="transform-box: fill-box; transform-origin: 50% 50%;"/>
  <path fill="#bf9b30" d="M 163.239 23.563 C 163.11 24.176 163.188 24.836 163.461 25.414 C 163.731 25.996 164.211 26.477 164.789 26.766 C 164.828 26.785 164.875 26.77 164.891 26.735 L 164.973 26.555 C 164.989 26.516 164.973 26.477 164.938 26.461 C 164.406 26.231 163.949 25.825 163.676 25.305 C 163.395 24.789 163.285 24.176 163.375 23.586 C 163.391 23.496 163.258 23.465 163.239 23.563" fill-opacity="1" fill-rule="nonzero" style="transform-box: fill-box; transform-origin: 50% 50%;"/>
  <path fill="#bf9b30" d="M 165.996 25 C 165.996 24.848 166.496 24.727 167.078 24.567 C 167.371 24.484 167.636 24.41 167.824 24.356 C 168.023 24.305 168.164 24.281 168.211 24.344 C 168.254 24.402 168.187 24.543 168.011 24.695 C 167.84 24.848 167.554 25 167.222 25.09 C 166.89 25.18 166.582 25.195 166.359 25.168 C 166.133 25.141 166 25.074 165.996 25" fill-opacity="1" fill-rule="nonzero" style="transform-box: fill-box; transform-origin: 50% 50%;"/>
  <path fill="#bf9b30" d="M 163.321 23.449 C 163.59 24.144 164.176 24.715 164.895 24.961 C 165.254 25.086 165.629 25.133 166.004 25.133 C 166.383 25.133 166.751 25.086 167.118 25 C 167.168 24.988 167.2 24.949 167.188 24.91 L 167.137 24.719 C 167.126 24.679 167.079 24.66 167.036 24.672 C 166.364 24.855 165.633 24.929 164.969 24.734 C 164.305 24.543 163.731 24.039 163.45 23.394 C 163.407 23.297 163.278 23.34 163.321 23.449" fill-opacity="1" fill-rule="nonzero" style="transform-box: fill-box; transform-origin: 50% 50%;"/>
  <path fill="#bf9b30" d="M 165.149 22.204 C 165.036 22.102 165.172 21.762 165.407 21.411 C 165.52 21.235 165.614 21.102 165.692 21.001 C 165.766 20.899 165.829 20.817 165.903 20.813 C 165.977 20.805 166.059 20.907 166.063 21.091 C 166.075 21.274 165.993 21.509 165.86 21.708 C 165.606 22.098 165.262 22.305 165.149 22.204" fill-opacity="1" fill-rule="nonzero" style="transform-box: fill-box; transform-origin: 50% 50%;"/>
  <path fill="#bf9b30" d="M 163.277 23.411 C 163.789 23.348 164.273 23.118 164.684 22.809 C 165.098 22.497 165.438 22.102 165.738 21.692 C 165.758 21.661 165.746 21.622 165.715 21.598 L 165.547 21.489 C 165.516 21.469 165.473 21.473 165.457 21.501 C 165.195 21.915 164.898 22.305 164.531 22.622 C 164.168 22.938 163.734 23.18 163.254 23.27 C 163.184 23.286 163.199 23.418 163.277 23.411" fill-opacity="1" fill-rule="nonzero" style="transform-box: fill-box; transform-origin: 50% 50%;"/>
  <path fill="#bf9b30" d="M 166.035 23.445 C 165.972 23.309 166.324 23.024 166.703 22.684 C 166.898 22.512 167.062 22.352 167.199 22.234 C 167.336 22.121 167.437 22.047 167.511 22.082 C 167.574 22.113 167.59 22.254 167.519 22.449 C 167.453 22.641 167.301 22.887 167.07 23.09 C 166.84 23.293 166.59 23.422 166.398 23.473 C 166.203 23.527 166.066 23.516 166.035 23.445" fill-opacity="1" fill-rule="nonzero" style="transform-box: fill-box; transform-origin: 50% 50%;"/>
  <path fill="#bf9b30" d="M 163.278 23.484 C 163.524 23.723 163.863 23.824 164.188 23.855 C 164.348 23.871 164.512 23.875 164.672 23.879 C 164.828 23.879 164.992 23.883 165.16 23.859 C 165.332 23.836 165.488 23.789 165.641 23.742 C 165.797 23.691 165.953 23.633 166.098 23.566 C 166.399 23.43 166.684 23.262 166.942 23.047 C 166.977 23.019 166.985 22.973 166.957 22.941 L 166.824 22.797 C 166.797 22.765 166.75 22.765 166.723 22.793 C 166.5 22.996 166.246 23.164 165.977 23.305 C 165.84 23.375 165.699 23.433 165.555 23.492 C 165.41 23.547 165.266 23.594 165.121 23.625 C 164.981 23.652 164.828 23.656 164.668 23.664 C 164.508 23.668 164.356 23.672 164.199 23.668 C 163.899 23.652 163.594 23.578 163.371 23.383 C 163.309 23.324 163.207 23.406 163.278 23.484" fill-opacity="1" fill-rule="nonzero" style="transform-box: fill-box; transform-origin: 50% 50%;"/>
  <path fill="#bf9b30" d="M 161.07 37.185 C 161.004 36.821 160.926 36.466 160.918 36.095 C 160.91 35.72 160.949 35.349 160.988 34.974 C 161.004 34.856 160.871 34.825 160.793 34.88 C 160.777 34.868 160.762 34.868 160.754 34.884 C 160.469 35.497 160.215 36.11 159.98 36.739 C 159.781 37.274 159.457 37.923 159.691 38.493 C 159.883 38.962 160.437 39.106 160.801 38.743 C 161.211 38.341 161.16 37.704 161.07 37.185" fill-opacity="1" fill-rule="nonzero" style="transform-box: fill-box; transform-origin: 50% 50%;"/>
  <path fill="#bf9b30" d="M 154.86 16.695 C 154.591 16.145 154.239 15.641 153.993 15.082 C 153.946 14.977 153.809 15.012 153.766 15.094 C 153.751 15.094 153.735 15.098 153.735 15.113 C 153.743 15.395 153.786 15.668 153.798 15.949 C 153.809 16.242 153.813 16.543 153.782 16.832 C 153.727 17.297 153.649 17.922 154.024 18.281 C 154.356 18.598 154.77 18.508 154.966 18.102 C 155.196 17.629 155.075 17.149 154.86 16.695" fill-opacity="1" fill-rule="nonzero" style="transform-box: fill-box; transform-origin: 50% 50%;"/>
  <path fill="#bf9b30" d="M 154.395 16.052 C 154.204 15.622 154.075 15.122 153.942 14.677 C 153.809 14.235 153.7 13.786 153.602 13.337 C 153.391 12.348 153.196 11.352 153.009 10.36 C 152.829 9.376 152.602 8.403 152.454 7.415 C 152.38 6.895 152.321 6.372 152.282 5.852 C 152.243 5.368 152.251 4.872 152.149 4.395 C 152.138 4.329 152.032 4.329 152.02 4.395 C 151.93 4.891 151.985 5.407 152.032 5.907 C 152.071 6.38 152.13 6.848 152.196 7.317 C 152.345 8.364 152.501 9.407 152.72 10.438 C 152.93 11.446 153.118 12.458 153.329 13.466 C 153.427 13.93 153.536 14.395 153.68 14.848 C 153.743 15.048 153.809 15.247 153.899 15.438 C 154.009 15.68 154.161 15.88 154.298 16.106 C 154.337 16.173 154.427 16.114 154.395 16.052" fill-opacity="1" fill-rule="nonzero" style="transform-box: fill-box; transform-origin: 50% 50%;"/>
  <path fill="#bf9b30" d="M 160.414 36.907 C 160.743 36.083 160.856 35.149 161.016 34.282 C 161.18 33.419 161.34 32.552 161.5 31.688 C 161.817 29.935 162.118 28.185 162.493 26.446 C 162.602 25.946 162.719 25.454 162.848 24.958 C 162.969 24.466 163.125 23.974 163.215 23.474 C 163.231 23.392 163.114 23.325 163.075 23.411 C 162.727 24.2 162.543 25.079 162.34 25.911 C 162.122 26.802 161.934 27.696 161.766 28.595 C 161.434 30.36 161.172 32.142 160.86 33.911 C 160.774 34.415 160.684 34.919 160.586 35.423 C 160.493 35.911 160.375 36.399 160.348 36.899 C 160.348 36.938 160.403 36.938 160.414 36.907" fill-opacity="1" fill-rule="nonzero" style="transform-box: fill-box; transform-origin: 50% 50%;"/>
</svg>