<?xml version="1.0" encoding="utf-8"?>
<svg xmlns="http://www.w3.org/2000/svg" width="300" zoomAndPan="magnify" viewBox="0 0 224.87999 225" height="300" preserveAspectRatio="xMidYMid meet" version="1.0">
  <path fill="#bf9b30" d="M 98.321 43.34 C 98.204 43.438 97.782 43.114 97.454 42.563 C 97.122 42.016 97.044 41.485 97.176 41.43 C 97.321 41.372 97.614 41.774 97.922 42.282 C 98.223 42.793 98.438 43.243 98.321 43.34" fill-opacity="1" fill-rule="nonzero" style="transform-box: fill-box; transform-origin: 50% 50%;"/>
  <path fill="#bf9b30" d="M 100.719 45.265 C 99.508 44.605 98.535 43.578 97.86 42.398 C 97.836 42.359 97.793 42.344 97.758 42.367 L 97.586 42.465 C 97.555 42.488 97.547 42.535 97.571 42.574 C 98.332 43.765 99.387 44.777 100.653 45.387 C 100.75 45.437 100.809 45.316 100.719 45.265" fill-opacity="1" fill-rule="nonzero" style="transform-box: fill-box; transform-origin: 50% 50%;"/>
  <path fill="#bf9b30" d="M 101.7 43.484 C 101.555 43.437 101.544 43.09 101.567 42.707 C 101.579 42.515 101.598 42.343 101.626 42.211 C 101.657 42.074 101.7 41.976 101.774 41.957 C 101.844 41.941 101.938 42.011 102.008 42.152 C 102.079 42.297 102.126 42.511 102.11 42.742 C 102.094 42.976 102.024 43.175 101.946 43.308 C 101.864 43.441 101.774 43.504 101.7 43.484" fill-opacity="1" fill-rule="nonzero" style="transform-box: fill-box; transform-origin: 50% 50%;"/>
  <path fill="#bf9b30" d="M 100.762 45.43 C 100.883 45.372 100.973 45.266 101.043 45.161 C 101.113 45.055 101.164 44.946 101.223 44.845 C 101.336 44.634 101.449 44.419 101.555 44.2 C 101.762 43.762 101.934 43.29 101.992 42.79 C 101.996 42.755 101.965 42.727 101.926 42.723 L 101.727 42.712 C 101.688 42.708 101.656 42.731 101.656 42.762 C 101.637 43.216 101.508 43.665 101.336 44.106 C 101.25 44.325 101.152 44.544 101.055 44.759 C 101.004 44.868 100.957 44.977 100.902 45.075 C 100.848 45.173 100.781 45.259 100.695 45.309 C 100.645 45.337 100.684 45.466 100.762 45.43" fill-opacity="1" fill-rule="nonzero" style="transform-box: fill-box; transform-origin: 50% 50%;"/>
  <path fill="#bf9b30" d="M 97.001 43.867 C 96.95 43.922 96.782 43.863 96.555 43.707 C 96.329 43.547 96.055 43.277 95.821 42.926 C 95.587 42.574 95.438 42.215 95.387 41.941 C 95.352 41.809 95.352 41.691 95.36 41.609 C 95.368 41.527 95.387 41.481 95.422 41.469 C 95.462 41.457 95.508 41.488 95.559 41.543 C 95.618 41.602 95.669 41.691 95.743 41.797 C 95.879 42.016 96.063 42.309 96.274 42.625 C 96.692 43.254 97.102 43.746 97.001 43.867" fill-opacity="1" fill-rule="nonzero" style="transform-box: fill-box; transform-origin: 50% 50%;"/>
  <path fill="#bf9b30" d="M 100.622 45.304 C 100.196 45.398 99.747 45.308 99.333 45.16 C 99.126 45.086 98.922 44.992 98.727 44.89 C 98.528 44.793 98.333 44.683 98.145 44.566 C 97.391 44.097 96.715 43.492 96.231 42.761 C 96.2 42.711 96.145 42.691 96.114 42.711 L 95.946 42.824 C 95.915 42.843 95.919 42.902 95.954 42.957 C 96.501 43.715 97.227 44.316 98.02 44.769 C 98.219 44.883 98.426 44.988 98.633 45.086 C 98.84 45.179 99.051 45.265 99.274 45.34 C 99.708 45.48 100.192 45.558 100.653 45.437 C 100.797 45.398 100.751 45.269 100.622 45.304" fill-opacity="1" fill-rule="nonzero" style="transform-box: fill-box; transform-origin: 50% 50%;"/>
  <path fill="#bf9b30" d="M 96.942 45.415 C 96.915 45.481 96.739 45.481 96.485 45.399 C 96.231 45.317 95.903 45.153 95.587 44.907 C 94.942 44.426 94.595 43.864 94.7 43.762 C 94.813 43.657 95.317 44.028 95.911 44.473 C 96.208 44.7 96.477 44.899 96.673 45.059 C 96.86 45.219 96.977 45.344 96.942 45.415" fill-opacity="1" fill-rule="nonzero" style="transform-box: fill-box; transform-origin: 50% 50%;"/>
  <path fill="#bf9b30" d="M 100.684 45.403 C 99.919 45.789 99.024 45.86 98.196 45.696 C 97.36 45.535 96.59 45.129 95.915 44.614 C 95.872 44.582 95.813 44.578 95.79 44.61 L 95.672 44.766 C 95.649 44.797 95.669 44.852 95.715 44.887 C 96.442 45.399 97.27 45.793 98.153 45.93 C 99.032 46.071 99.969 45.961 100.751 45.524 C 100.872 45.457 100.801 45.344 100.684 45.403" fill-opacity="1" fill-rule="nonzero" style="transform-box: fill-box; transform-origin: 50% 50%;"/>
  <path fill="#bf9b30" d="M 103.168 42.926 C 103.027 42.864 103.121 42.36 103.246 41.751 C 103.383 41.141 103.535 40.633 103.687 40.649 C 103.836 40.657 103.926 41.208 103.781 41.864 C 103.711 42.196 103.59 42.481 103.472 42.669 C 103.351 42.86 103.234 42.958 103.168 42.926" fill-opacity="1" fill-rule="nonzero" style="transform-box: fill-box; transform-origin: 50% 50%;"/>
  <path fill="#bf9b30" d="M 101.012 45.317 C 101.707 45.048 102.297 44.544 102.738 43.942 C 103.18 43.341 103.473 42.638 103.652 41.915 C 103.664 41.868 103.645 41.821 103.605 41.813 L 103.41 41.77 C 103.371 41.763 103.332 41.794 103.324 41.841 C 103.18 42.536 102.937 43.216 102.543 43.806 C 102.148 44.395 101.609 44.899 100.957 45.188 C 100.859 45.231 100.906 45.356 101.012 45.317" fill-opacity="1" fill-rule="nonzero" style="transform-box: fill-box; transform-origin: 50% 50%;"/>
  <path fill="#bf9b30" d="M 103.473 44.243 C 103.423 44.188 103.466 44.059 103.555 43.891 C 103.641 43.723 103.778 43.508 103.93 43.27 C 104.235 42.801 104.528 42.411 104.669 42.473 C 104.801 42.532 104.727 43.043 104.387 43.567 C 104.216 43.829 104.012 44.036 103.837 44.153 C 103.661 44.27 103.524 44.301 103.473 44.243" fill-opacity="1" fill-rule="nonzero" style="transform-box: fill-box; transform-origin: 50% 50%;"/>
  <path fill="#bf9b30" d="M 100.746 45.418 C 101.403 45.305 102.075 45.188 102.7 44.899 C 103.012 44.758 103.309 44.567 103.567 44.34 C 103.829 44.11 104.055 43.848 104.254 43.567 C 104.278 43.528 104.274 43.477 104.239 43.457 L 104.075 43.348 C 104.039 43.328 103.993 43.34 103.973 43.375 C 103.629 43.926 103.172 44.395 102.598 44.688 C 102.02 44.985 101.371 45.137 100.719 45.281 C 100.621 45.301 100.645 45.434 100.746 45.418" fill-opacity="1" fill-rule="nonzero" style="transform-box: fill-box; transform-origin: 50% 50%;"/>
  <path fill="#bf9b30" d="M 98.516 46.952 C 98.531 47.027 98.438 47.12 98.254 47.206 C 98.074 47.288 97.801 47.359 97.485 47.351 C 97.168 47.343 96.867 47.238 96.699 47.093 C 96.528 46.952 96.481 46.812 96.528 46.757 C 96.578 46.699 96.703 46.722 96.867 46.749 C 97.031 46.777 97.246 46.8 97.5 46.808 C 97.754 46.816 98 46.808 98.184 46.827 C 98.371 46.843 98.5 46.882 98.516 46.952" fill-opacity="1" fill-rule="nonzero" style="transform-box: fill-box; transform-origin: 50% 50%;"/>
  <path fill="#bf9b30" d="M 100.688 45.305 C 100.583 45.598 100.395 45.856 100.165 46.063 C 99.938 46.277 99.669 46.438 99.384 46.559 C 99.095 46.68 98.794 46.762 98.485 46.824 C 98.173 46.887 97.864 46.93 97.559 46.922 C 97.52 46.918 97.485 46.949 97.485 46.988 L 97.477 47.188 C 97.477 47.227 97.513 47.262 97.559 47.258 C 97.903 47.254 98.231 47.184 98.548 47.106 C 98.864 47.024 99.18 46.922 99.481 46.777 C 99.782 46.629 100.063 46.441 100.298 46.199 C 100.532 45.961 100.72 45.672 100.821 45.352 C 100.848 45.25 100.72 45.215 100.688 45.305" fill-opacity="1" fill-rule="nonzero" style="transform-box: fill-box; transform-origin: 50% 50%;"/>
  <path fill="#bf9b30" d="M 99.961 47.457 C 100.02 47.504 100.012 47.621 99.938 47.765 C 99.864 47.91 99.715 48.082 99.5 48.215 C 99.293 48.348 99.063 48.402 98.895 48.398 C 98.727 48.394 98.625 48.34 98.614 48.265 C 98.602 48.191 98.68 48.113 98.789 48.031 C 98.903 47.945 99.051 47.855 99.215 47.75 C 99.383 47.648 99.536 47.555 99.664 47.496 C 99.793 47.433 99.903 47.41 99.961 47.457" fill-opacity="1" fill-rule="nonzero" style="transform-box: fill-box; transform-origin: 50% 50%;"/>
  <path fill="#bf9b30" d="M 100.708 45.422 C 100.727 45.657 100.665 45.895 100.579 46.122 C 100.493 46.352 100.391 46.575 100.274 46.786 C 100.036 47.211 99.715 47.582 99.317 47.821 C 99.29 47.836 99.286 47.879 99.305 47.911 L 99.407 48.082 C 99.43 48.114 99.469 48.125 99.501 48.106 C 99.942 47.797 100.262 47.36 100.485 46.899 C 100.594 46.664 100.684 46.426 100.758 46.184 C 100.829 45.938 100.883 45.672 100.844 45.407 C 100.829 45.321 100.7 45.352 100.708 45.422" fill-opacity="1" fill-rule="nonzero" style="transform-box: fill-box; transform-origin: 50% 50%;"/>
  <path fill="#bf9b30" d="M 102.391 47.149 C 102.434 47.09 102.551 47.086 102.704 47.121 C 102.86 47.16 103.04 47.231 103.215 47.266 C 103.395 47.305 103.59 47.32 103.747 47.352 C 103.899 47.387 104.004 47.438 104.016 47.512 C 104.028 47.586 103.946 47.668 103.79 47.738 C 103.633 47.801 103.391 47.859 103.102 47.801 C 102.809 47.731 102.614 47.574 102.504 47.453 C 102.391 47.324 102.348 47.211 102.391 47.149" fill-opacity="1" fill-rule="nonzero" style="transform-box: fill-box; transform-origin: 50% 50%;"/>
  <path fill="#bf9b30" d="M 100.719 45.426 C 100.973 45.907 101.301 46.348 101.691 46.731 C 101.887 46.926 102.098 47.102 102.316 47.262 C 102.543 47.419 102.769 47.583 103.062 47.672 C 103.101 47.684 103.141 47.661 103.148 47.622 L 103.191 47.426 C 103.199 47.387 103.18 47.356 103.152 47.348 C 102.93 47.297 102.699 47.161 102.48 47.024 C 102.262 46.883 102.051 46.731 101.855 46.555 C 101.461 46.212 101.113 45.809 100.84 45.36 C 100.797 45.29 100.68 45.352 100.719 45.426" fill-opacity="1" fill-rule="nonzero" style="transform-box: fill-box; transform-origin: 50% 50%;"/>
  <path fill="#bf9b30" d="M 103.938 45.688 C 103.915 45.618 104.012 45.516 104.176 45.391 C 104.34 45.27 104.563 45.122 104.809 44.958 C 105.051 44.79 105.278 44.633 105.446 44.528 C 105.481 44.508 105.497 44.508 105.516 44.497 C 105.536 44.481 105.547 44.465 105.555 44.446 C 105.571 44.411 105.559 44.395 105.587 44.387 C 105.622 44.376 105.7 44.36 105.762 44.438 C 105.79 44.473 105.809 44.532 105.805 44.598 C 105.801 44.665 105.758 44.743 105.723 44.793 C 105.602 44.989 105.395 45.215 105.114 45.407 C 104.837 45.594 104.547 45.708 104.329 45.747 C 104.11 45.786 103.962 45.758 103.938 45.688" fill-opacity="1" fill-rule="nonzero" style="transform-box: fill-box; transform-origin: 50% 50%;"/>
  <path fill="#bf9b30" d="M 100.797 45.547 C 101.442 45.876 102.172 46.036 102.903 46.004 C 103.637 45.977 104.36 45.743 104.989 45.356 C 105.032 45.329 105.047 45.278 105.024 45.247 L 104.911 45.083 C 104.887 45.051 104.84 45.047 104.801 45.071 C 104.243 45.458 103.579 45.708 102.891 45.766 C 102.204 45.829 101.493 45.708 100.856 45.419 C 100.758 45.376 100.696 45.497 100.797 45.547" fill-opacity="1" fill-rule="nonzero" style="transform-box: fill-box; transform-origin: 50% 50%;"/>
  <path fill="#bf9b30" d="M 1.988281 123.816406 C 1.910156 123.949219 1.476562 123.839844 0.96875 123.707031 C 0.84375 123.667969 0.722656 123.644531 0.613281 123.601562 C 0.5 123.574219 0.398438 123.539062 0.316406 123.503906 C 0.144531 123.445312 0.0351562 123.371094 0.0351562 123.296875 C 0.0351562 123.222656 0.152344 123.160156 0.351562 123.121094 C 0.449219 123.109375 0.566406 123.105469 0.695312 123.109375 C 0.824219 123.125 0.96875 123.136719 1.113281 123.179688 C 1.183594 123.199219 1.253906 123.222656 1.320312 123.242188 C 1.386719 123.269531 1.445312 123.296875 1.503906 123.328125 C 1.621094 123.378906 1.71875 123.449219 1.796875 123.507812 C 1.875 123.570312 1.933594 123.628906 1.964844 123.683594 C 1.996094 123.738281 2.003906 123.78125 1.988281 123.816406 " fill-opacity="1" fill-rule="nonzero"/>
  <path fill="#bf9b30" d="M 2.617188 112.507812 C 2.628906 112.582031 2.492188 112.679688 2.246094 112.753906 C 1.996094 112.824219 1.632812 112.867188 1.238281 112.800781 C 0.839844 112.734375 0.5 112.574219 0.296875 112.410156 C 0.0859375 112.246094 0.00390625 112.089844 0.0507812 112.03125 C 0.0976562 111.96875 0.25 112.007812 0.472656 112.066406 C 0.695312 112.128906 0.988281 112.207031 1.328125 112.261719 C 1.992188 112.375 2.585938 112.355469 2.617188 112.507812 " fill-opacity="1" fill-rule="nonzero"/>
  <path fill="#bf9b30" d="M 114.137 56.324 C 114.067 56.344 113.965 56.262 113.872 56.098 C 113.778 55.934 113.692 55.687 113.665 55.402 C 113.637 55.113 113.68 54.848 113.758 54.668 C 113.833 54.488 113.93 54.394 114.001 54.414 C 114.075 54.434 114.114 54.551 114.137 54.719 C 114.165 54.887 114.184 55.105 114.208 55.352 C 114.255 55.84 114.286 56.273 114.137 56.324" fill-opacity="1" fill-rule="nonzero" style="transform-box: fill-box; transform-origin: 50% 50%;"/>
  <path fill="#bf9b30" d="M 115.582 58.532 C 115.121 58.165 114.797 57.653 114.562 57.114 C 114.332 56.571 114.148 55.997 114.101 55.423 C 114.098 55.384 114.062 55.356 114.023 55.36 L 113.828 55.376 C 113.789 55.38 113.762 55.419 113.765 55.458 C 113.851 56.087 114.078 56.665 114.348 57.216 C 114.621 57.759 114.988 58.282 115.496 58.645 C 115.578 58.7 115.652 58.591 115.582 58.532" fill-opacity="1" fill-rule="nonzero" style="transform-box: fill-box; transform-origin: 50% 50%;"/>
  <path fill="#bf9b30" d="M 116.973 57 C 116.848 56.918 116.922 56.578 117.094 56.215 C 117.27 55.856 117.484 55.586 117.629 55.629 C 117.77 55.676 117.777 56.055 117.586 56.453 C 117.395 56.852 117.098 57.082 116.973 57" fill-opacity="1" fill-rule="nonzero" style="transform-box: fill-box; transform-origin: 50% 50%;"/>
  <path fill="#bf9b30" d="M 115.559 58.586 C 115.809 58.508 115.985 58.325 116.161 58.165 C 116.333 58 116.497 57.825 116.653 57.645 C 116.962 57.278 117.239 56.875 117.462 56.45 C 117.477 56.418 117.462 56.383 117.426 56.364 L 117.247 56.278 C 117.212 56.262 117.172 56.274 117.161 56.301 C 116.973 56.719 116.739 57.122 116.465 57.497 C 116.329 57.684 116.18 57.86 116.024 58.032 C 115.868 58.204 115.712 58.375 115.512 58.454 C 115.454 58.477 115.481 58.61 115.559 58.586" fill-opacity="1" fill-rule="nonzero" style="transform-box: fill-box; transform-origin: 50% 50%;"/>
  <path fill="#bf9b30" d="M 112.528 56.137 C 112.462 56.168 112.325 56.051 112.176 55.816 C 112.028 55.582 111.872 55.227 111.786 54.813 C 111.696 54.398 111.692 54.012 111.731 53.734 C 111.751 53.598 111.782 53.488 111.813 53.414 C 111.848 53.34 111.883 53.301 111.923 53.301 C 112.079 53.313 112.153 53.945 112.317 54.699 C 112.399 55.074 112.481 55.414 112.532 55.672 C 112.583 55.926 112.598 56.102 112.528 56.137" fill-opacity="1" fill-rule="nonzero" style="transform-box: fill-box; transform-origin: 50% 50%;"/>
  <path fill="#bf9b30" d="M 115.594 58.433 C 115.149 58.422 114.707 58.301 114.321 58.086 C 113.934 57.875 113.614 57.562 113.344 57.207 C 112.789 56.508 112.41 55.676 112.227 54.812 C 112.215 54.754 112.172 54.711 112.137 54.718 L 111.942 54.761 C 111.903 54.769 111.883 54.824 111.899 54.886 C 112.125 55.797 112.555 56.648 113.156 57.359 C 113.305 57.535 113.469 57.707 113.645 57.859 C 113.824 58.015 114.024 58.148 114.235 58.254 C 114.653 58.468 115.121 58.578 115.59 58.574 C 115.735 58.57 115.727 58.433 115.594 58.433" fill-opacity="1" fill-rule="nonzero" style="transform-box: fill-box; transform-origin: 50% 50%;"/>
  <path fill="#bf9b30" d="M 111.583 57.207 C 111.524 57.257 111.36 57.175 111.149 56.976 C 110.946 56.781 110.704 56.468 110.508 56.082 C 110.309 55.695 110.208 55.296 110.2 55.003 C 110.192 54.707 110.262 54.531 110.333 54.527 C 110.411 54.527 110.477 54.687 110.579 54.925 C 110.676 55.167 110.813 55.484 110.993 55.835 C 111.172 56.191 111.344 56.507 111.462 56.75 C 111.579 56.988 111.637 57.156 111.583 57.207" fill-opacity="1" fill-rule="nonzero" style="transform-box: fill-box; transform-origin: 50% 50%;"/>
  <path fill="#bf9b30" d="M 115.375 58.41 C 114.911 58.43 114.446 58.445 113.993 58.394 C 113.536 58.344 113.094 58.219 112.704 57.992 C 112.309 57.769 111.969 57.461 111.676 57.113 C 111.387 56.766 111.141 56.379 110.934 55.973 C 110.911 55.918 110.86 55.887 110.821 55.902 L 110.645 55.992 C 110.61 56.012 110.606 56.074 110.637 56.129 C 110.868 56.547 111.141 56.945 111.461 57.305 C 111.782 57.66 112.157 57.977 112.586 58.203 C 113.016 58.434 113.5 58.547 113.973 58.582 C 114.45 58.617 114.918 58.586 115.383 58.551 C 115.528 58.539 115.52 58.406 115.375 58.41" fill-opacity="1" fill-rule="nonzero" style="transform-box: fill-box; transform-origin: 50% 50%;"/>
  <path fill="#bf9b30" d="M 112.426 59.309 C 112.43 59.383 112.305 59.461 112.086 59.496 C 111.867 59.535 111.539 59.516 111.219 59.387 C 110.903 59.262 110.656 59.071 110.512 58.907 C 110.364 58.742 110.313 58.606 110.36 58.547 C 110.461 58.43 110.899 58.676 111.418 58.879 C 111.68 58.985 111.918 59.055 112.106 59.114 C 112.293 59.172 112.426 59.235 112.426 59.309" fill-opacity="1" fill-rule="nonzero" style="transform-box: fill-box; transform-origin: 50% 50%;"/>
  <path fill="#bf9b30" d="M 115.418 58.465 C 114.797 58.778 114.125 58.985 113.446 59.094 C 113.106 59.145 112.762 59.176 112.418 59.176 C 112.075 59.18 111.75 59.133 111.442 59.008 C 111.403 58.996 111.356 59.008 111.34 59.043 L 111.27 59.231 C 111.254 59.266 111.278 59.313 111.325 59.328 C 111.504 59.387 111.688 59.43 111.875 59.449 C 112.063 59.473 112.246 59.473 112.426 59.465 C 112.785 59.446 113.137 59.399 113.489 59.328 C 114.188 59.184 114.864 58.934 115.481 58.59 C 115.578 58.535 115.512 58.418 115.418 58.465" fill-opacity="1" fill-rule="nonzero" style="transform-box: fill-box; transform-origin: 50% 50%;"/>
  <path fill="#bf9b30" d="M 114.094 59.981 C 114.126 60.047 114.083 60.145 113.981 60.243 C 113.876 60.344 113.708 60.438 113.508 60.493 C 113.106 60.61 112.758 60.524 112.739 60.375 C 112.719 60.227 113.008 60.071 113.356 59.969 C 113.708 59.872 114.02 59.848 114.094 59.981" fill-opacity="1" fill-rule="nonzero" style="transform-box: fill-box; transform-origin: 50% 50%;"/>
  <path fill="#bf9b30" d="M 115.375 58.571 C 115.207 58.965 114.918 59.297 114.578 59.543 C 114.238 59.797 113.84 59.961 113.43 60.067 C 113.402 60.075 113.391 60.11 113.398 60.149 L 113.453 60.34 C 113.465 60.375 113.496 60.399 113.527 60.391 C 113.961 60.246 114.375 60.032 114.727 59.731 C 115.074 59.434 115.359 59.051 115.508 58.621 C 115.531 58.555 115.402 58.512 115.375 58.571" fill-opacity="1" fill-rule="nonzero" style="transform-box: fill-box; transform-origin: 50% 50%;"/>
  <path fill="#bf9b30" d="M 116.598 60.902 C 116.707 60.797 117.07 61.023 117.461 61.277 C 117.66 61.402 117.828 61.5 117.965 61.57 C 118.094 61.648 118.199 61.703 118.203 61.777 C 118.211 61.852 118.102 61.937 117.895 61.949 C 117.691 61.969 117.414 61.895 117.172 61.738 C 116.926 61.582 116.762 61.395 116.664 61.238 C 116.563 61.082 116.543 60.953 116.598 60.902" fill-opacity="1" fill-rule="nonzero" style="transform-box: fill-box; transform-origin: 50% 50%;"/>
  <path fill="#bf9b30" d="M 115.496 58.555 C 115.484 59.153 115.668 59.75 115.969 60.27 C 116.273 60.793 116.684 61.243 117.176 61.606 C 117.211 61.633 117.258 61.622 117.277 61.59 L 117.383 61.422 C 117.406 61.387 117.395 61.344 117.363 61.325 C 116.902 61.024 116.484 60.618 116.172 60.145 C 115.859 59.672 115.656 59.122 115.637 58.555 C 115.633 58.465 115.496 58.461 115.496 58.555" fill-opacity="1" fill-rule="nonzero" style="transform-box: fill-box; transform-origin: 50% 50%;"/>
  <path fill="#bf9b30" d="M 119.02 56.957 C 118.911 56.852 119.266 56.329 119.622 55.668 C 119.805 55.34 119.95 55.032 120.067 54.809 C 120.18 54.582 120.274 54.438 120.348 54.454 C 120.422 54.465 120.465 54.641 120.438 54.914 C 120.407 55.188 120.301 55.563 120.102 55.926 C 119.903 56.297 119.653 56.586 119.446 56.762 C 119.239 56.938 119.075 57.008 119.02 56.957" fill-opacity="1" fill-rule="nonzero" style="transform-box: fill-box; transform-origin: 50% 50%;"/>
  <path fill="#bf9b30" d="M 115.54 58.656 L 116.211 58.633 C 116.434 58.625 116.661 58.625 116.891 58.578 C 117.122 58.535 117.34 58.433 117.536 58.316 C 117.735 58.199 117.915 58.07 118.098 57.937 C 118.825 57.402 119.485 56.754 119.954 55.957 C 119.985 55.902 119.985 55.844 119.95 55.828 L 119.774 55.734 C 119.739 55.715 119.688 55.738 119.661 55.793 C 119.25 56.551 118.641 57.199 117.954 57.746 C 117.606 58.015 117.258 58.301 116.848 58.394 C 116.645 58.441 116.426 58.453 116.204 58.469 L 115.536 58.515 C 115.399 58.523 115.403 58.66 115.54 58.656" fill-opacity="1" fill-rule="nonzero" style="transform-box: fill-box; transform-origin: 50% 50%;"/>
  <path fill="#bf9b30" d="M 119.883 58.325 C 119.797 58.2 120.297 57.7 120.871 57.067 C 121.446 56.442 121.891 55.891 122.028 55.969 C 122.09 56.008 122.059 56.2 121.934 56.473 C 121.805 56.747 121.582 57.098 121.274 57.434 C 120.965 57.774 120.637 58.032 120.375 58.184 C 120.117 58.333 119.93 58.383 119.883 58.325" fill-opacity="1" fill-rule="nonzero" style="transform-box: fill-box; transform-origin: 50% 50%;"/>
  <path fill="#bf9b30" d="M 115.621 58.734 C 116.09 58.906 116.574 59.055 117.074 59.129 C 117.574 59.207 118.094 59.207 118.594 59.094 C 118.844 59.035 119.09 58.949 119.32 58.832 C 119.551 58.715 119.766 58.574 119.969 58.426 C 120.379 58.133 120.766 57.801 121.117 57.437 C 121.164 57.387 121.18 57.324 121.149 57.297 L 121.004 57.164 C 120.973 57.14 120.914 57.156 120.871 57.207 C 120.543 57.566 120.184 57.898 119.797 58.195 C 119.606 58.344 119.406 58.488 119.199 58.601 C 118.992 58.715 118.77 58.801 118.539 58.863 C 118.074 58.984 117.582 59 117.098 58.941 C 116.613 58.887 116.137 58.758 115.668 58.601 C 115.524 58.555 115.477 58.68 115.621 58.734" fill-opacity="1" fill-rule="nonzero" style="transform-box: fill-box; transform-origin: 50% 50%;"/>
  <path fill="#bf9b30" d="M 118.024 60.176 C 118.044 60.024 118.54 59.965 119.118 59.856 C 119.411 59.805 119.673 59.746 119.876 59.719 C 120.079 59.692 120.22 59.692 120.255 59.762 C 120.29 59.828 120.204 59.949 120.02 60.078 C 119.837 60.203 119.552 60.332 119.22 60.391 C 118.884 60.453 118.575 60.438 118.356 60.387 C 118.141 60.332 118.016 60.25 118.024 60.176" fill-opacity="1" fill-rule="nonzero" style="transform-box: fill-box; transform-origin: 50% 50%;"/>
  <path fill="#bf9b30" d="M 115.434 58.501 C 115.734 59.161 116.27 59.723 116.949 60.036 C 117.633 60.321 118.387 60.395 119.121 60.294 C 119.172 60.286 119.203 60.247 119.195 60.208 L 119.16 60.012 C 119.152 59.977 119.109 59.95 119.066 59.962 C 118.398 60.087 117.68 60.048 117.039 59.817 C 116.41 59.563 115.875 59.055 115.563 58.438 C 115.512 58.344 115.391 58.395 115.434 58.501" fill-opacity="1" fill-rule="nonzero" style="transform-box: fill-box; transform-origin: 50% 50%;"/>
  <path fill="#bf9b30" d="M 138.726 58.11 C 138.578 58.091 138.512 57.739 138.637 57.348 C 138.758 56.958 139.008 56.712 139.14 56.774 C 139.281 56.837 139.265 57.161 139.156 57.512 C 139.043 57.86 138.875 58.134 138.726 58.11" fill-opacity="1" fill-rule="nonzero" style="transform-box: fill-box; transform-origin: 50% 50%;"/>
  <path fill="#bf9b30" d="M 138.941 60.016 C 138.797 59.614 138.746 59.184 138.769 58.762 C 138.797 58.336 138.89 57.922 139.031 57.52 C 139.043 57.493 139.019 57.461 138.984 57.45 L 138.793 57.387 C 138.754 57.379 138.718 57.391 138.711 57.422 C 138.593 57.852 138.523 58.305 138.531 58.754 C 138.543 59.207 138.629 59.657 138.812 60.067 C 138.84 60.133 138.965 60.078 138.941 60.016" fill-opacity="1" fill-rule="nonzero" style="transform-box: fill-box; transform-origin: 50% 50%;"/>
  <path fill="#bf9b30" d="M 137.617 57.219 C 137.543 57.223 137.465 57.094 137.422 56.872 C 137.379 56.649 137.391 56.325 137.473 56.005 C 137.547 55.68 137.672 55.391 137.808 55.208 C 137.941 55.02 138.074 54.942 138.137 54.981 C 138.203 55.02 138.195 55.161 138.16 55.36 C 138.129 55.563 138.074 55.829 138 56.13 C 137.926 56.43 137.863 56.688 137.808 56.884 C 137.75 57.083 137.691 57.216 137.617 57.219" fill-opacity="1" fill-rule="nonzero" style="transform-box: fill-box; transform-origin: 50% 50%;"/>
  <path fill="#bf9b30" d="M 138.91 60.004 C 138.598 59.852 138.363 59.574 138.211 59.262 C 138.058 58.949 137.969 58.602 137.891 58.254 C 137.734 57.559 137.683 56.848 137.875 56.176 C 137.887 56.129 137.863 56.082 137.824 56.074 L 137.633 56.027 C 137.594 56.016 137.555 56.051 137.543 56.098 C 137.465 56.461 137.433 56.852 137.465 57.223 C 137.492 57.594 137.562 57.957 137.66 58.313 C 137.758 58.664 137.863 59.02 138.047 59.352 C 138.226 59.68 138.496 59.977 138.851 60.129 C 138.965 60.176 139.004 60.047 138.91 60.004" fill-opacity="1" fill-rule="nonzero" style="transform-box: fill-box; transform-origin: 50% 50%;"/>
  <path fill="#bf9b30" d="M 136.438 57.488 C 136.367 57.5 136.27 57.363 136.207 57.109 C 136.145 56.855 136.133 56.492 136.207 56.113 C 136.281 55.73 136.406 55.414 136.539 55.183 C 136.676 54.957 136.828 54.859 136.891 54.902 C 136.953 54.945 136.93 55.093 136.902 55.32 C 136.871 55.547 136.809 55.871 136.742 56.211 C 136.676 56.554 136.633 56.863 136.59 57.093 C 136.555 57.32 136.512 57.476 136.438 57.488" fill-opacity="1" fill-rule="nonzero" style="transform-box: fill-box; transform-origin: 50% 50%;"/>
  <path fill="#bf9b30" d="M 138.852 59.992 C 138.063 59.793 137.368 59.273 136.965 58.582 C 136.762 58.238 136.626 57.851 136.571 57.461 C 136.516 57.07 136.544 56.668 136.618 56.273 C 136.626 56.223 136.606 56.172 136.567 56.164 L 136.372 56.129 C 136.333 56.121 136.294 56.16 136.286 56.215 C 136.219 56.641 136.208 57.078 136.286 57.508 C 136.364 57.937 136.528 58.344 136.762 58.707 C 137.227 59.437 137.989 59.953 138.821 60.125 C 138.95 60.152 138.973 60.019 138.852 59.992" fill-opacity="1" fill-rule="nonzero" style="transform-box: fill-box; transform-origin: 50% 50%;"/>
  <path fill="#bf9b30" d="M 136.25 58.868 C 136.192 58.914 136.063 58.864 135.907 58.723 C 135.75 58.582 135.578 58.348 135.457 58.063 C 135.332 57.778 135.274 57.5 135.27 57.293 C 135.266 57.086 135.309 56.953 135.383 56.938 C 135.535 56.911 135.735 57.34 135.953 57.844 C 136.067 58.098 136.164 58.328 136.227 58.508 C 136.289 58.688 136.309 58.821 136.25 58.868" fill-opacity="1" fill-rule="nonzero" style="transform-box: fill-box; transform-origin: 50% 50%;"/>
  <path fill="#bf9b30" d="M 138.864 59.989 C 138.211 59.992 137.563 59.801 137.035 59.442 C 136.512 59.074 136.129 58.539 135.879 57.949 C 135.86 57.91 135.821 57.891 135.782 57.907 L 135.602 57.989 C 135.567 58.004 135.551 58.051 135.571 58.09 C 135.867 58.707 136.317 59.274 136.907 59.641 C 137.496 60.004 138.192 60.164 138.867 60.125 C 138.973 60.121 138.961 59.985 138.864 59.989" fill-opacity="1" fill-rule="nonzero" style="transform-box: fill-box; transform-origin: 50% 50%;"/>
  <path fill="#bf9b30" d="M 136.707 60.34 C 136.683 60.414 136.574 60.454 136.406 60.434 C 136.238 60.414 136.015 60.321 135.828 60.149 C 135.637 59.973 135.527 59.762 135.492 59.598 C 135.457 59.43 135.492 59.317 135.558 59.289 C 135.629 59.262 135.722 59.321 135.828 59.411 C 135.933 59.497 136.058 59.618 136.195 59.747 C 136.336 59.875 136.465 59.985 136.562 60.082 C 136.664 60.18 136.726 60.27 136.707 60.34" fill-opacity="1" fill-rule="nonzero" style="transform-box: fill-box; transform-origin: 50% 50%;"/>
  <path fill="#bf9b30" d="M 138.875 60.059 C 138.406 60.215 137.922 60.337 137.438 60.329 C 136.961 60.325 136.484 60.176 136.156 59.86 C 136.133 59.84 136.094 59.848 136.066 59.876 L 135.93 60.02 C 135.906 60.051 135.906 60.094 135.934 60.118 C 136.145 60.29 136.398 60.419 136.656 60.489 C 136.914 60.559 137.184 60.583 137.445 60.567 C 137.969 60.54 138.457 60.379 138.922 60.192 C 138.996 60.165 138.949 60.036 138.875 60.059" fill-opacity="1" fill-rule="nonzero" style="transform-box: fill-box; transform-origin: 50% 50%;"/>
  <path fill="#bf9b30" d="M 137.965 61.945 C 138.039 61.949 138.102 62.031 138.164 62.152 C 138.227 62.273 138.293 62.426 138.364 62.602 C 138.504 62.945 138.641 63.258 138.528 63.363 C 138.473 63.414 138.36 63.391 138.227 63.297 C 138.098 63.207 137.954 63.035 137.86 62.809 C 137.766 62.586 137.75 62.355 137.782 62.191 C 137.813 62.031 137.891 61.941 137.965 61.945" fill-opacity="1" fill-rule="nonzero" style="transform-box: fill-box; transform-origin: 50% 50%;"/>
  <path fill="#bf9b30" d="M 138.836 59.976 C 138.527 60.348 138.211 60.73 138.011 61.199 C 137.91 61.433 137.843 61.683 137.828 61.945 C 137.816 62.207 137.859 62.469 137.945 62.715 C 137.957 62.75 137.996 62.765 138.035 62.75 L 138.215 62.672 C 138.25 62.656 138.269 62.621 138.261 62.594 C 138.172 62.39 138.121 62.172 138.117 61.949 C 138.113 61.73 138.156 61.504 138.234 61.285 C 138.383 60.848 138.664 60.453 138.949 60.062 C 138.992 60 138.886 59.918 138.836 59.976" fill-opacity="1" fill-rule="nonzero" style="transform-box: fill-box; transform-origin: 50% 50%;"/>
  <path fill="#bf9b30" d="M 139.547 62.754 C 139.59 62.692 139.722 62.703 139.902 62.743 C 140.086 62.778 140.32 62.84 140.59 62.907 C 140.855 62.973 141.105 63.039 141.289 63.114 C 141.472 63.188 141.582 63.27 141.57 63.348 C 141.562 63.422 141.433 63.473 141.234 63.496 C 141.035 63.52 140.758 63.508 140.457 63.434 C 140.152 63.36 139.89 63.223 139.73 63.086 C 139.566 62.946 139.504 62.817 139.547 62.754" fill-opacity="1" fill-rule="nonzero" style="transform-box: fill-box; transform-origin: 50% 50%;"/>
  <path fill="#bf9b30" d="M 138.809 60.09 C 138.656 60.395 138.57 60.734 138.567 61.078 C 138.559 61.422 138.641 61.77 138.797 62.078 C 138.953 62.391 139.188 62.664 139.477 62.867 C 139.762 63.07 140.086 63.211 140.414 63.305 C 140.461 63.32 140.504 63.297 140.512 63.258 L 140.559 63.066 C 140.57 63.027 140.543 62.988 140.5 62.98 C 140.195 62.906 139.899 62.797 139.637 62.629 C 139.379 62.465 139.164 62.238 139.008 61.969 C 138.695 61.43 138.672 60.734 138.934 60.152 C 138.977 60.063 138.86 59.996 138.809 60.09" fill-opacity="1" fill-rule="nonzero" style="transform-box: fill-box; transform-origin: 50% 50%;"/>
  <path fill="#bf9b30" d="M 140.68 59.449 C 140.602 59.316 140.805 59.055 141.055 58.777 C 141.184 58.641 141.305 58.524 141.41 58.441 C 141.52 58.359 141.613 58.316 141.684 58.348 C 141.75 58.383 141.774 58.492 141.738 58.645 C 141.707 58.793 141.61 58.981 141.453 59.149 C 141.301 59.316 141.121 59.426 140.977 59.473 C 140.832 59.524 140.723 59.512 140.68 59.449" fill-opacity="1" fill-rule="nonzero" style="transform-box: fill-box; transform-origin: 50% 50%;"/>
  <path fill="#bf9b30" d="M 138.692 60.086 C 139.164 60.09 139.645 60.024 140.098 59.863 C 140.555 59.707 140.985 59.457 141.336 59.11 C 141.36 59.086 141.356 59.043 141.325 59.02 L 141.18 58.883 C 141.153 58.86 141.11 58.856 141.09 58.875 C 140.801 59.207 140.43 59.465 140.016 59.641 C 139.598 59.821 139.149 59.918 138.688 59.946 C 138.618 59.949 138.618 60.086 138.692 60.086" fill-opacity="1" fill-rule="nonzero" style="transform-box: fill-box; transform-origin: 50% 50%;"/>
  <path fill="#bf9b30" d="M 141.825 59.852 C 141.766 59.715 142.141 59.41 142.626 59.098 C 142.868 58.942 143.099 58.813 143.274 58.731 C 143.45 58.653 143.571 58.621 143.63 58.668 C 143.688 58.715 143.645 58.864 143.516 59.032 C 143.388 59.196 143.181 59.387 142.919 59.555 C 142.399 59.891 141.888 59.993 141.825 59.852" fill-opacity="1" fill-rule="nonzero" style="transform-box: fill-box; transform-origin: 50% 50%;"/>
  <path fill="#bf9b30" d="M 138.895 60.192 C 139.196 60.368 139.551 60.442 139.895 60.454 C 140.243 60.461 140.586 60.407 140.922 60.321 C 141.586 60.145 142.211 59.848 142.797 59.501 C 142.836 59.477 142.852 59.426 142.832 59.395 L 142.723 59.227 C 142.704 59.196 142.653 59.188 142.618 59.211 C 142.071 59.575 141.481 59.891 140.856 60.09 C 140.543 60.188 140.219 60.254 139.895 60.262 C 139.575 60.27 139.247 60.215 138.961 60.067 C 138.875 60.024 138.801 60.137 138.895 60.192" fill-opacity="1" fill-rule="nonzero" style="transform-box: fill-box; transform-origin: 50% 50%;"/>
  <path fill="#bf9b30" d="M 141.544 61.743 C 141.544 61.586 142.063 61.5 142.594 61.286 C 142.86 61.18 143.087 61.051 143.262 60.954 C 143.442 60.856 143.575 60.797 143.633 60.848 C 143.688 60.895 143.661 61.043 143.524 61.239 C 143.391 61.426 143.137 61.657 142.797 61.789 C 142.462 61.93 142.129 61.946 141.907 61.918 C 141.676 61.891 141.544 61.817 141.544 61.743" fill-opacity="1" fill-rule="nonzero" style="transform-box: fill-box; transform-origin: 50% 50%;"/>
  <path fill="#bf9b30" d="M 138.848 60.246 C 138.946 60.609 139.145 60.953 139.43 61.203 C 139.715 61.465 140.071 61.629 140.434 61.73 C 140.797 61.828 141.172 61.871 141.547 61.879 C 141.739 61.882 141.926 61.867 142.118 61.847 C 142.305 61.82 142.496 61.777 142.68 61.715 C 142.727 61.699 142.754 61.652 142.743 61.617 L 142.664 61.433 C 142.649 61.394 142.602 61.382 142.563 61.398 C 142.407 61.461 142.239 61.504 142.067 61.539 C 141.895 61.566 141.723 61.586 141.547 61.59 C 141.192 61.601 140.832 61.574 140.493 61.496 C 140.153 61.418 139.821 61.285 139.555 61.062 C 139.285 60.843 139.09 60.543 138.981 60.207 C 138.946 60.101 138.817 60.136 138.848 60.246" fill-opacity="1" fill-rule="nonzero" style="transform-box: fill-box; transform-origin: 50% 50%;"/>
  <path fill="#bf9b30" d="M 115.614 58.176 C 114.907 60.102 114.415 62.118 113.86 64.09 C 113.313 66.028 112.72 67.973 112.302 69.942 C 112.087 70.977 111.817 72.11 112.02 73.165 C 112.036 73.239 112.153 73.235 112.169 73.165 C 112.376 72.219 112.395 71.247 112.579 70.294 C 112.767 69.317 113.009 68.348 113.278 67.395 C 113.825 65.458 114.372 63.52 114.895 61.579 C 115.2 60.461 115.524 59.348 115.743 58.215 C 115.763 58.129 115.645 58.094 115.614 58.176" fill-opacity="1" fill-rule="nonzero" style="transform-box: fill-box; transform-origin: 50% 50%;"/>
  <path fill="#bf9b30" d="M 100.606 45.305 C 101.711 48.918 101.211 52.703 100.352 56.309 C 100.234 56.813 100.094 57.313 99.977 57.817 C 99.863 58.324 99.723 58.848 99.664 59.367 C 99.649 59.504 99.836 59.5 99.883 59.395 C 100.066 58.957 100.18 58.477 100.316 58.02 C 100.453 57.559 100.555 57.086 100.66 56.617 C 100.879 55.68 101.07 54.735 101.223 53.785 C 101.508 51.973 101.625 50.106 101.434 48.274 C 101.328 47.246 101.109 46.235 100.774 45.258 C 100.738 45.156 100.574 45.196 100.606 45.305" fill-opacity="1" fill-rule="nonzero" style="transform-box: fill-box; transform-origin: 50% 50%;"/>
  <path fill="#bf9b30" d="M 112.398 71.156 C 112.363 71.027 112.258 70.996 112.164 71.023 C 112.164 71.019 112.164 71.019 112.164 71.015 C 112.168 70.965 112.094 70.933 112.059 70.972 C 111.848 71.215 111.727 71.504 111.594 71.793 C 111.457 72.097 111.32 72.398 111.188 72.703 C 110.965 73.218 110.742 73.832 110.938 74.386 C 111.105 74.867 111.582 75.09 112.043 74.855 C 112.598 74.578 112.656 73.957 112.664 73.402 C 112.672 72.656 112.594 71.879 112.398 71.156" fill-opacity="1" fill-rule="nonzero" style="transform-box: fill-box; transform-origin: 50% 50%;"/>
  <path fill="#bf9b30" d="M 100.372 58.317 C 100.368 58.235 100.309 58.138 100.219 58.118 C 100.208 58.118 100.196 58.122 100.184 58.122 C 100.262 57.95 100.325 57.778 100.356 57.583 C 100.364 57.532 100.301 57.478 100.254 57.524 C 100.098 57.704 99.973 57.892 99.848 58.095 C 99.723 58.294 99.583 58.481 99.45 58.677 C 99.192 59.052 98.879 59.399 98.879 59.88 C 98.883 60.2 98.989 60.856 99.43 60.817 C 99.825 60.782 100.106 60.31 100.231 59.981 C 100.325 59.728 100.344 59.454 100.368 59.185 C 100.395 58.895 100.383 58.61 100.372 58.317" fill-opacity="1" fill-rule="nonzero" style="transform-box: fill-box; transform-origin: 50% 50%;"/>
  <path fill="#bf9b30" d="M 126.293 68.161 C 126.012 68.196 125.734 68.274 125.449 68.305 C 125.375 68.313 125.301 68.317 125.227 68.321 C 125.16 68.321 125.094 68.325 125.031 68.341 C 124.895 68.348 124.762 68.364 124.629 68.387 C 124.188 68.469 123.633 68.692 123.426 69.122 C 123.258 69.477 123.445 69.977 123.879 69.981 C 124.305 69.989 124.711 69.688 125.016 69.426 C 125.203 69.266 125.379 69.094 125.566 68.93 C 125.656 68.852 125.746 68.778 125.84 68.704 C 125.938 68.626 126.047 68.524 126.156 68.466 C 126.215 68.434 126.219 68.384 126.207 68.337 C 126.246 68.317 126.285 68.301 126.324 68.282 C 126.375 68.251 126.359 68.153 126.293 68.161" fill-opacity="1" fill-rule="nonzero" style="transform-box: fill-box; transform-origin: 50% 50%;"/>
  <path fill="#bf9b30" d="M 124.816 69.152 C 126.73 68.082 128.844 67.523 130.832 66.625 C 132.777 65.746 134.504 64.441 136.07 63.004 C 136.5 62.609 136.957 62.211 137.32 61.754 C 137.711 61.266 138.207 60.859 138.601 60.379 C 138.676 60.289 138.559 60.164 138.473 60.25 C 138.094 60.625 137.742 61.031 137.367 61.418 C 137 61.801 136.582 62.156 136.191 62.519 C 135.398 63.266 134.566 63.973 133.672 64.598 C 132.801 65.207 131.879 65.754 130.918 66.207 C 129.93 66.672 128.894 67.023 127.875 67.41 C 126.758 67.832 125.664 68.289 124.723 69.031 C 124.652 69.086 124.742 69.195 124.816 69.152" fill-opacity="1" fill-rule="nonzero" style="transform-box: fill-box; transform-origin: 50% 50%;"/>
</svg>