<?xml version="1.0" encoding="utf-8"?>
<svg xmlns="http://www.w3.org/2000/svg" width="300" zoomAndPan="magnify" viewBox="0 0 224.87999 225" height="300" preserveAspectRatio="xMidYMid meet" version="1.0">
  <path fill="#bf9b30" d="M 1.988281 123.816406 C 1.910156 123.949219 1.476562 123.839844 0.96875 123.707031 C 0.84375 123.667969 0.722656 123.644531 0.613281 123.601562 C 0.5 123.574219 0.398438 123.539062 0.316406 123.503906 C 0.144531 123.445312 0.0351562 123.371094 0.0351562 123.296875 C 0.0351562 123.222656 0.152344 123.160156 0.351562 123.121094 C 0.449219 123.109375 0.566406 123.105469 0.695312 123.109375 C 0.824219 123.125 0.96875 123.136719 1.113281 123.179688 C 1.183594 123.199219 1.253906 123.222656 1.320312 123.242188 C 1.386719 123.269531 1.445312 123.296875 1.503906 123.328125 C 1.621094 123.378906 1.71875 123.449219 1.796875 123.507812 C 1.875 123.570312 1.933594 123.628906 1.964844 123.683594 C 1.996094 123.738281 2.003906 123.78125 1.988281 123.816406 " fill-opacity="1" fill-rule="nonzero"/>
  <path fill="#bf9b30" d="M 2.617188 112.507812 C 2.628906 112.582031 2.492188 112.679688 2.246094 112.753906 C 1.996094 112.824219 1.632812 112.867188 1.238281 112.800781 C 0.839844 112.734375 0.5 112.574219 0.296875 112.410156 C 0.0859375 112.246094 0.00390625 112.089844 0.0507812 112.03125 C 0.0976562 111.96875 0.25 112.007812 0.472656 112.066406 C 0.695312 112.128906 0.988281 112.207031 1.328125 112.261719 C 1.992188 112.375 2.585938 112.355469 2.617188 112.507812 " fill-opacity="1" fill-rule="nonzero"/>
  <path fill="#bf9b30" d="M 126.923 37.855 C 126.778 37.797 126.837 37.336 126.899 36.804 C 126.93 36.535 126.954 36.293 126.985 36.109 C 127.02 35.925 127.063 35.8 127.141 35.789 C 127.212 35.773 127.305 35.882 127.372 36.078 C 127.438 36.273 127.473 36.558 127.438 36.867 C 127.403 37.175 127.305 37.441 127.204 37.617 C 127.102 37.793 126.989 37.879 126.923 37.855" fill-opacity="1" fill-rule="nonzero" style="transform-box: fill-box; transform-origin: 50% 50%;"/>
  <path fill="#bf9b30" d="M 125.134 40.122 C 125.45 40 125.728 39.797 125.966 39.563 C 126.204 39.329 126.407 39.063 126.591 38.786 C 126.954 38.227 127.212 37.594 127.318 36.922 C 127.325 36.879 127.298 36.836 127.259 36.832 L 127.064 36.813 C 127.025 36.809 126.989 36.84 126.982 36.879 C 126.919 37.5 126.704 38.11 126.388 38.661 C 126.228 38.934 126.044 39.2 125.829 39.43 C 125.614 39.661 125.368 39.864 125.083 39.993 C 124.993 40.032 125.036 40.161 125.134 40.122" fill-opacity="1" fill-rule="nonzero" style="transform-box: fill-box; transform-origin: 50% 50%;"/>
  <path fill="#bf9b30" d="M 125.746 38.285 C 125.594 38.27 125.492 37.992 125.445 37.668 C 125.438 37.582 125.422 37.504 125.422 37.43 C 125.418 37.359 125.422 37.289 125.43 37.227 C 125.441 37.109 125.484 37.016 125.555 36.988 C 125.625 36.961 125.711 37.008 125.801 37.117 C 125.84 37.172 125.879 37.238 125.914 37.32 C 125.941 37.399 125.973 37.488 125.984 37.586 C 126 37.684 126.004 37.781 125.992 37.867 C 125.984 37.953 125.965 38.027 125.941 38.09 C 125.895 38.219 125.816 38.289 125.746 38.285" fill-opacity="1" fill-rule="nonzero" style="transform-box: fill-box; transform-origin: 50% 50%;"/>
  <path fill="#bf9b30" d="M 125.199 40.035 C 125.715 39.375 125.957 38.504 125.879 37.649 C 125.875 37.617 125.84 37.602 125.801 37.606 L 125.605 37.633 C 125.57 37.641 125.539 37.668 125.543 37.692 C 125.68 38.453 125.523 39.285 125.086 39.953 C 125.055 40.004 125.16 40.086 125.199 40.035" fill-opacity="1" fill-rule="nonzero" style="transform-box: fill-box; transform-origin: 50% 50%;"/>
  <path fill="#bf9b30" d="M 128.138 38.778 C 128.075 38.735 128.091 38.598 128.11 38.391 C 128.126 38.289 128.146 38.16 128.173 38.016 C 128.204 37.875 128.243 37.723 128.286 37.567 C 128.372 37.254 128.454 36.981 128.517 36.778 C 128.583 36.578 128.642 36.442 128.72 36.438 C 128.79 36.434 128.872 36.574 128.899 36.813 C 128.935 37.047 128.903 37.375 128.81 37.711 C 128.763 37.879 128.708 38.031 128.653 38.168 C 128.595 38.301 128.54 38.426 128.474 38.528 C 128.407 38.629 128.337 38.707 128.278 38.746 C 128.22 38.789 128.169 38.797 128.138 38.778" fill-opacity="1" fill-rule="nonzero" style="transform-box: fill-box; transform-origin: 50% 50%;"/>
  <path fill="#bf9b30" d="M 125.203 40.176 C 125.582 40.286 125.985 40.27 126.363 40.168 C 126.742 40.067 127.09 39.879 127.403 39.657 C 127.563 39.543 127.711 39.422 127.856 39.293 C 128 39.161 128.137 39.02 128.254 38.844 C 128.367 38.672 128.442 38.481 128.504 38.301 C 128.563 38.122 128.621 37.942 128.68 37.758 C 128.696 37.708 128.676 37.657 128.637 37.649 L 128.446 37.598 C 128.406 37.586 128.367 37.618 128.356 37.665 C 128.309 37.844 128.254 38.024 128.203 38.208 C 128.149 38.383 128.098 38.547 128.008 38.692 C 127.922 38.836 127.805 38.973 127.672 39.098 C 127.543 39.227 127.406 39.352 127.262 39.465 C 126.973 39.692 126.656 39.879 126.309 39.989 C 125.965 40.098 125.594 40.125 125.242 40.04 C 125.137 40.012 125.09 40.137 125.203 40.176" fill-opacity="1" fill-rule="nonzero" style="transform-box: fill-box; transform-origin: 50% 50%;"/>
  <path fill="#bf9b30" d="M 122.598 40.035 C 122.555 40.098 122.426 40.098 122.258 40.019 C 122.086 39.937 121.883 39.773 121.723 39.539 C 121.563 39.305 121.484 39.055 121.469 38.871 C 121.453 38.687 121.496 38.566 121.566 38.547 C 121.641 38.527 121.73 38.609 121.828 38.738 C 121.93 38.867 122.043 39.043 122.172 39.23 C 122.301 39.418 122.422 39.586 122.508 39.723 C 122.59 39.859 122.637 39.969 122.598 40.035" fill-opacity="1" fill-rule="nonzero" style="transform-box: fill-box; transform-origin: 50% 50%;"/>
  <path fill="#bf9b30" d="M 125.02 40.016 C 124.754 40.121 124.489 40.219 124.215 40.27 C 123.946 40.324 123.668 40.32 123.403 40.258 C 122.868 40.133 122.407 39.789 122.11 39.34 C 122.09 39.313 122.047 39.305 122.016 39.328 L 121.852 39.438 C 121.817 39.461 121.813 39.504 121.836 39.539 C 122.02 39.781 122.247 39.996 122.508 40.16 C 122.766 40.324 123.055 40.438 123.356 40.488 C 123.653 40.543 123.965 40.531 124.258 40.457 C 124.547 40.383 124.813 40.266 125.075 40.145 C 125.157 40.109 125.102 39.984 125.02 40.016" fill-opacity="1" fill-rule="nonzero" style="transform-box: fill-box; transform-origin: 50% 50%;"/>
  <path fill="#bf9b30" d="M 121.876 40.805 C 121.844 40.875 121.68 40.879 121.446 40.805 C 121.216 40.731 120.907 40.579 120.614 40.329 C 120.469 40.204 120.344 40.063 120.251 39.922 C 120.153 39.782 120.091 39.637 120.051 39.512 C 119.977 39.262 120.012 39.094 120.083 39.079 C 120.157 39.055 120.255 39.172 120.395 39.336 C 120.532 39.497 120.723 39.704 120.973 39.914 C 121.219 40.129 121.462 40.313 121.633 40.465 C 121.805 40.622 121.907 40.735 121.876 40.805" fill-opacity="1" fill-rule="nonzero" style="transform-box: fill-box; transform-origin: 50% 50%;"/>
  <path fill="#bf9b30" d="M 125.07 40.047 C 124.98 40.211 124.836 40.344 124.676 40.449 C 124.515 40.555 124.34 40.637 124.156 40.707 L 123.879 40.797 C 123.785 40.828 123.695 40.86 123.601 40.879 C 123.414 40.918 123.223 40.938 123.031 40.934 C 122.644 40.93 122.265 40.84 121.926 40.68 C 121.582 40.512 121.246 40.301 120.957 40.051 C 120.918 40.02 120.867 40.016 120.844 40.047 L 120.711 40.196 C 120.683 40.223 120.699 40.278 120.742 40.313 C 120.906 40.442 121.082 40.559 121.258 40.664 C 121.433 40.766 121.613 40.86 121.805 40.942 C 122.195 41.106 122.617 41.184 123.031 41.172 C 123.242 41.168 123.449 41.137 123.648 41.086 C 123.754 41.063 123.848 41.028 123.941 40.988 L 124.23 40.879 C 124.414 40.801 124.601 40.707 124.769 40.582 C 124.937 40.461 125.094 40.309 125.191 40.113 C 125.25 39.992 125.121 39.949 125.07 40.047" fill-opacity="1" fill-rule="nonzero" style="transform-box: fill-box; transform-origin: 50% 50%;"/>
  <path fill="#bf9b30" d="M 122.258 41.863 C 122.262 41.934 122.129 42.024 121.887 42.063 C 121.766 42.086 121.614 42.094 121.45 42.07 C 121.282 42.051 121.102 42.004 120.93 41.93 C 120.586 41.777 120.328 41.57 120.168 41.402 C 120.004 41.231 119.934 41.094 119.977 41.031 C 120.02 40.969 120.176 41 120.383 41.082 C 120.594 41.168 120.86 41.305 121.145 41.426 C 121.434 41.555 121.688 41.625 121.899 41.68 C 122.106 41.734 122.25 41.785 122.258 41.863" fill-opacity="1" fill-rule="nonzero" style="transform-box: fill-box; transform-origin: 50% 50%;"/>
  <path fill="#bf9b30" d="M 124.985 40.105 C 124.86 40.461 124.626 40.765 124.337 41.004 C 124.048 41.242 123.704 41.41 123.348 41.523 C 122.989 41.636 122.61 41.703 122.239 41.73 C 122.052 41.742 121.868 41.738 121.688 41.711 C 121.513 41.687 121.337 41.632 121.173 41.562 C 121.126 41.543 121.075 41.554 121.063 41.589 L 120.981 41.773 C 120.966 41.812 120.993 41.859 121.048 41.875 C 121.239 41.949 121.442 42 121.653 42.023 C 121.856 42.043 122.063 42.035 122.263 42.015 C 122.661 41.972 123.048 41.882 123.427 41.75 C 123.798 41.613 124.161 41.418 124.458 41.148 C 124.759 40.879 124.997 40.535 125.118 40.148 C 125.153 40.027 125.02 40 124.985 40.105" fill-opacity="1" fill-rule="nonzero" style="transform-box: fill-box; transform-origin: 50% 50%;"/>
  <path fill="#bf9b30" d="M 123.567 42.457 C 123.637 42.586 123.285 42.93 122.699 43.074 C 122.551 43.109 122.395 43.121 122.25 43.101 C 122.11 43.086 121.973 43.035 121.899 42.988 C 121.821 42.937 121.774 42.902 121.739 42.871 C 121.699 42.836 121.668 42.809 121.66 42.769 C 121.653 42.734 121.676 42.691 121.739 42.656 C 121.805 42.625 121.903 42.613 121.996 42.613 C 122.094 42.617 122.164 42.613 122.262 42.601 C 122.356 42.59 122.461 42.57 122.578 42.543 C 122.813 42.488 123.055 42.426 123.227 42.406 C 123.403 42.387 123.528 42.391 123.567 42.457" fill-opacity="1" fill-rule="nonzero" style="transform-box: fill-box; transform-origin: 50% 50%;"/>
  <path fill="#bf9b30" d="M 124.965 40.258 C 124.988 40.551 124.887 40.84 124.742 41.098 C 124.594 41.356 124.406 41.602 124.199 41.817 C 123.992 42.032 123.758 42.211 123.496 42.34 C 123.367 42.407 123.231 42.465 123.09 42.512 C 122.949 42.563 122.805 42.606 122.664 42.641 C 122.625 42.649 122.602 42.684 122.609 42.723 L 122.652 42.918 C 122.66 42.957 122.703 42.977 122.746 42.969 C 122.906 42.922 123.055 42.864 123.199 42.805 C 123.348 42.746 123.492 42.676 123.633 42.594 C 123.918 42.434 124.168 42.219 124.379 41.977 C 124.586 41.735 124.762 41.473 124.91 41.188 C 125.051 40.903 125.149 40.575 125.106 40.246 C 125.086 40.141 124.957 40.172 124.965 40.258" fill-opacity="1" fill-rule="nonzero" style="transform-box: fill-box; transform-origin: 50% 50%;"/>
  <path fill="#bf9b30" d="M 125.043 41.805 C 125.113 41.824 125.168 41.906 125.18 42.028 C 125.191 42.145 125.164 42.305 125.09 42.461 C 125.055 42.539 125.004 42.606 124.957 42.668 C 124.91 42.723 124.859 42.77 124.809 42.801 C 124.703 42.867 124.609 42.879 124.551 42.836 C 124.43 42.738 124.48 42.485 124.598 42.227 C 124.723 41.969 124.895 41.77 125.043 41.805" fill-opacity="1" fill-rule="nonzero" style="transform-box: fill-box; transform-origin: 50% 50%;"/>
  <path fill="#bf9b30" d="M 125 40.239 C 125.141 40.922 125.028 41.645 124.715 42.243 C 124.703 42.262 124.727 42.294 124.762 42.309 L 124.938 42.395 C 124.977 42.415 125.012 42.407 125.02 42.383 C 125.309 41.688 125.352 40.907 125.137 40.204 C 125.121 40.149 124.992 40.184 125 40.239" fill-opacity="1" fill-rule="nonzero" style="transform-box: fill-box; transform-origin: 50% 50%;"/>
  <path fill="#bf9b30" d="M 127.59 40.555 C 127.575 40.481 127.661 40.395 127.793 40.301 C 127.926 40.203 128.106 40.094 128.301 39.973 C 128.497 39.852 128.645 39.746 128.754 39.657 C 128.86 39.575 128.934 39.492 129.012 39.5 C 129.047 39.508 129.083 39.539 129.098 39.602 C 129.118 39.66 129.118 39.75 129.086 39.852 C 129.024 40.059 128.833 40.285 128.59 40.434 C 128.352 40.586 128.098 40.657 127.915 40.664 C 127.727 40.676 127.606 40.629 127.59 40.555" fill-opacity="1" fill-rule="nonzero" style="transform-box: fill-box; transform-origin: 50% 50%;"/>
  <path fill="#bf9b30" d="M 125.067 40.172 C 125.563 40.481 126.133 40.692 126.727 40.739 C 127.324 40.789 127.942 40.676 128.477 40.371 C 128.512 40.352 128.524 40.305 128.5 40.274 L 128.395 40.106 C 128.375 40.075 128.332 40.063 128.301 40.082 C 127.848 40.375 127.293 40.516 126.742 40.5 C 126.188 40.489 125.633 40.321 125.137 40.051 C 125.059 40.012 124.988 40.125 125.067 40.172" fill-opacity="1" fill-rule="nonzero" style="transform-box: fill-box; transform-origin: 50% 50%;"/>
  <path fill="#bf9b30" d="M 138.445 24.364 C 138.41 24.371 138.363 24.332 138.32 24.258 C 138.274 24.184 138.227 24.071 138.188 23.926 C 138.11 23.637 138.059 23.223 138.098 22.77 C 138.137 22.313 138.254 21.914 138.383 21.645 C 138.512 21.371 138.645 21.231 138.715 21.258 C 138.785 21.285 138.781 21.469 138.754 21.746 C 138.723 22.028 138.676 22.399 138.641 22.817 C 138.567 23.641 138.598 24.332 138.445 24.364" fill-opacity="1" fill-rule="nonzero" style="transform-box: fill-box; transform-origin: 50% 50%;"/>
  <path fill="#bf9b30" d="M 140.731 27.993 C 139.977 27.379 139.376 26.59 138.989 25.708 C 138.598 24.829 138.438 23.856 138.52 22.903 C 138.528 22.84 138.501 22.786 138.462 22.782 L 138.262 22.766 C 138.227 22.762 138.188 22.813 138.184 22.879 C 138.134 23.891 138.337 24.907 138.77 25.809 C 139.204 26.712 139.856 27.504 140.645 28.102 C 140.766 28.196 140.848 28.087 140.731 27.993" fill-opacity="1" fill-rule="nonzero" style="transform-box: fill-box; transform-origin: 50% 50%;"/>
  <path fill="#bf9b30" d="M 139.746 25.309 C 139.672 25.316 139.586 25.207 139.535 25.02 C 139.504 24.922 139.481 24.809 139.469 24.684 C 139.465 24.617 139.457 24.551 139.457 24.481 C 139.457 24.41 139.461 24.34 139.465 24.266 C 139.473 24.117 139.5 23.981 139.527 23.856 C 139.563 23.731 139.598 23.621 139.637 23.531 C 139.727 23.352 139.817 23.254 139.887 23.273 C 140.039 23.313 140.039 23.766 140.008 24.305 C 139.969 24.844 139.895 25.293 139.746 25.309" fill-opacity="1" fill-rule="nonzero" style="transform-box: fill-box; transform-origin: 50% 50%;"/>
  <path fill="#bf9b30" d="M 140.73 27.946 C 140.031 26.891 139.781 25.594 139.89 24.364 C 139.894 24.321 139.867 24.286 139.828 24.282 L 139.629 24.266 C 139.59 24.262 139.555 24.298 139.555 24.341 C 139.543 24.669 139.555 24.997 139.59 25.321 C 139.629 25.645 139.687 25.966 139.777 26.278 C 139.949 26.907 140.23 27.505 140.617 28.024 C 140.676 28.106 140.781 28.028 140.73 27.946" fill-opacity="1" fill-rule="nonzero" style="transform-box: fill-box; transform-origin: 50% 50%;"/>
  <path fill="#bf9b30" d="M 140.492 26.188 C 140.344 26.184 140.235 25.852 140.305 25.449 C 140.375 25.051 140.598 24.778 140.739 24.824 C 140.883 24.875 140.903 25.192 140.84 25.547 C 140.774 25.903 140.641 26.196 140.492 26.188" fill-opacity="1" fill-rule="nonzero" style="transform-box: fill-box; transform-origin: 50% 50%;"/>
  <path fill="#bf9b30" d="M 140.777 28.087 C 140.563 27.259 140.547 26.391 140.723 25.571 C 140.727 25.544 140.703 25.516 140.664 25.509 L 140.469 25.473 C 140.43 25.466 140.395 25.485 140.391 25.512 C 140.27 26.395 140.356 27.298 140.641 28.13 C 140.664 28.192 140.793 28.153 140.777 28.087" fill-opacity="1" fill-rule="nonzero" style="transform-box: fill-box; transform-origin: 50% 50%;"/>
  <path fill="#bf9b30" d="M 137.883 25.821 C 137.817 25.864 137.684 25.778 137.524 25.595 C 137.364 25.411 137.184 25.122 137.047 24.782 C 136.914 24.439 136.848 24.107 136.844 23.864 C 136.836 23.618 136.879 23.462 136.95 23.45 C 137.106 23.427 137.305 23.954 137.555 24.583 C 137.801 25.212 138.008 25.739 137.883 25.821" fill-opacity="1" fill-rule="nonzero" style="transform-box: fill-box; transform-origin: 50% 50%;"/>
  <path fill="#bf9b30" d="M 140.591 27.945 C 140.212 27.894 139.856 27.714 139.544 27.488 C 139.388 27.371 139.235 27.246 139.095 27.109 C 139.024 27.043 138.954 26.972 138.888 26.902 C 138.817 26.836 138.751 26.761 138.688 26.687 C 138.169 26.101 137.759 25.425 137.481 24.699 C 137.462 24.648 137.419 24.621 137.38 24.636 L 137.196 24.707 C 137.161 24.722 137.145 24.773 137.169 24.828 C 137.489 25.578 137.95 26.265 138.513 26.851 C 138.579 26.925 138.653 26.996 138.727 27.062 C 138.798 27.136 138.876 27.203 138.954 27.269 C 139.102 27.402 139.263 27.527 139.434 27.64 C 139.774 27.871 140.161 28.047 140.579 28.082 C 140.708 28.089 140.708 27.953 140.591 27.945" fill-opacity="1" fill-rule="nonzero" style="transform-box: fill-box; transform-origin: 50% 50%;"/>
  <path fill="#bf9b30" d="M 137.949 27.5 C 137.93 27.531 137.891 27.551 137.828 27.551 C 137.762 27.555 137.68 27.539 137.586 27.504 C 137.492 27.473 137.383 27.426 137.274 27.356 C 137.219 27.321 137.156 27.285 137.098 27.242 C 137.043 27.199 136.988 27.153 136.93 27.102 C 136.817 27.004 136.727 26.891 136.641 26.789 C 136.567 26.68 136.504 26.578 136.461 26.489 C 136.387 26.297 136.371 26.164 136.434 26.125 C 136.5 26.082 136.621 26.137 136.766 26.25 C 136.844 26.301 136.926 26.371 137.012 26.449 C 137.106 26.52 137.195 26.61 137.297 26.699 C 137.688 27.055 138.02 27.364 137.949 27.5" fill-opacity="1" fill-rule="nonzero" style="transform-box: fill-box; transform-origin: 50% 50%;"/>
  <path fill="#bf9b30" d="M 140.718 27.996 C 139.457 28.125 138.175 27.664 137.269 26.825 C 137.238 26.797 137.191 26.797 137.164 26.825 L 137.031 26.973 C 137.004 27 137.011 27.051 137.047 27.078 C 138.066 27.93 139.441 28.336 140.738 28.133 C 140.836 28.121 140.812 27.989 140.718 27.996" fill-opacity="1" fill-rule="nonzero" style="transform-box: fill-box; transform-origin: 50% 50%;"/>
  <path fill="#bf9b30" d="M 141.055 30.172 C 141.196 30.109 141.43 30.351 141.673 30.633 C 141.798 30.777 141.903 30.914 141.973 31.027 C 142.044 31.144 142.079 31.246 142.036 31.309 C 142.001 31.371 141.887 31.387 141.739 31.332 C 141.591 31.281 141.411 31.164 141.259 30.988 C 141.11 30.812 141.02 30.617 140.993 30.465 C 140.962 30.312 140.985 30.203 141.055 30.172" fill-opacity="1" fill-rule="nonzero" style="transform-box: fill-box; transform-origin: 50% 50%;"/>
  <path fill="#bf9b30" d="M 140.68 28.09 C 140.617 28.567 140.617 29.051 140.715 29.532 C 140.809 30.008 141.008 30.477 141.313 30.871 C 141.332 30.899 141.375 30.899 141.407 30.875 L 141.555 30.742 C 141.586 30.719 141.594 30.68 141.575 30.657 C 141.278 30.325 141.067 29.914 140.946 29.477 C 140.825 29.035 140.789 28.567 140.817 28.106 C 140.821 28.032 140.688 28.016 140.68 28.09" fill-opacity="1" fill-rule="nonzero" style="transform-box: fill-box; transform-origin: 50% 50%;"/>
  <path fill="#bf9b30" d="M 139.165 28.887 C 139.172 28.962 139.106 29.04 138.977 29.09 C 138.852 29.145 138.665 29.169 138.462 29.133 C 138.262 29.102 138.094 29.012 137.993 28.919 C 137.891 28.829 137.856 28.731 137.887 28.665 C 137.922 28.594 138.016 28.571 138.133 28.563 C 138.254 28.555 138.399 28.571 138.559 28.598 C 138.715 28.626 138.856 28.661 138.969 28.708 C 139.079 28.751 139.157 28.813 139.165 28.887" fill-opacity="1" fill-rule="nonzero" style="transform-box: fill-box; transform-origin: 50% 50%;"/>
  <path fill="#bf9b30" d="M 140.723 28.012 C 140.415 28.278 140.083 28.512 139.716 28.637 C 139.348 28.766 138.95 28.789 138.575 28.715 C 138.552 28.711 138.524 28.739 138.52 28.778 L 138.485 28.973 C 138.477 29.012 138.497 29.047 138.524 29.051 C 138.962 29.102 139.407 29.035 139.805 28.86 C 140.2 28.684 140.528 28.406 140.817 28.117 C 140.864 28.071 140.77 27.973 140.723 28.012" fill-opacity="1" fill-rule="nonzero" style="transform-box: fill-box; transform-origin: 50% 50%;"/>
  <path fill="#bf9b30" d="M 143.298 26.997 C 143.212 26.872 143.493 26.528 143.868 26.157 C 144.247 25.793 144.587 25.508 144.716 25.594 C 144.774 25.641 144.762 25.77 144.684 25.95 C 144.645 26.036 144.587 26.133 144.516 26.239 C 144.442 26.336 144.356 26.446 144.251 26.547 C 143.837 26.954 143.38 27.122 143.298 26.997" fill-opacity="1" fill-rule="nonzero" style="transform-box: fill-box; transform-origin: 50% 50%;"/>
  <path fill="#bf9b30" d="M 140.766 28.156 C 142.004 27.953 143.184 27.371 144.125 26.508 C 144.157 26.481 144.161 26.434 144.133 26.406 L 143.993 26.266 C 143.965 26.238 143.918 26.238 143.891 26.266 C 143.043 27.133 141.938 27.758 140.739 28.02 C 140.645 28.043 140.668 28.172 140.766 28.156" fill-opacity="1" fill-rule="nonzero" style="transform-box: fill-box; transform-origin: 50% 50%;"/>
  <path fill="#bf9b30" d="M 142.504 30.152 C 142.543 30.09 142.668 30.082 142.832 30.121 C 143 30.152 143.211 30.222 143.442 30.304 C 143.672 30.386 143.879 30.465 144.027 30.543 C 144.18 30.617 144.277 30.695 144.27 30.769 C 144.262 30.843 144.149 30.902 143.961 30.922 C 143.777 30.937 143.524 30.91 143.258 30.82 C 142.996 30.726 142.785 30.586 142.649 30.461 C 142.52 30.328 142.461 30.215 142.504 30.152" fill-opacity="1" fill-rule="nonzero" style="transform-box: fill-box; transform-origin: 50% 50%;"/>
  <path fill="#bf9b30" d="M 140.735 28.227 C 140.786 28.539 140.962 28.801 141.138 29.035 C 141.317 29.277 141.517 29.5 141.731 29.707 C 142.165 30.121 142.673 30.461 143.239 30.688 C 143.278 30.703 143.321 30.688 143.333 30.649 L 143.399 30.461 C 143.411 30.426 143.392 30.383 143.356 30.371 C 142.825 30.192 142.325 29.899 141.892 29.527 C 141.673 29.344 141.474 29.141 141.286 28.918 C 141.103 28.699 140.931 28.469 140.872 28.203 C 140.856 28.125 140.724 28.129 140.735 28.227" fill-opacity="1" fill-rule="nonzero" style="transform-box: fill-box; transform-origin: 50% 50%;"/>
  <path fill="#bf9b30" d="M 143.497 29.434 C 143.501 29.36 143.63 29.301 143.829 29.25 C 143.931 29.227 144.048 29.203 144.181 29.184 C 144.306 29.168 144.446 29.153 144.591 29.133 C 144.727 29.114 144.845 29.09 144.962 29.059 C 145.087 29.024 145.196 28.992 145.286 28.965 C 145.485 28.914 145.626 28.903 145.669 28.969 C 145.704 29.032 145.634 29.157 145.473 29.305 C 145.391 29.375 145.282 29.453 145.149 29.524 C 145.013 29.594 144.841 29.649 144.669 29.672 C 144.493 29.696 144.337 29.696 144.2 29.688 C 144.063 29.68 143.934 29.66 143.829 29.637 C 143.618 29.586 143.493 29.508 143.497 29.434" fill-opacity="1" fill-rule="nonzero" style="transform-box: fill-box; transform-origin: 50% 50%;"/>
  <path fill="#bf9b30" d="M 140.692 28.113 C 141.142 28.672 141.751 29.102 142.431 29.348 C 142.77 29.469 143.134 29.543 143.493 29.57 C 143.677 29.582 143.856 29.586 144.032 29.586 C 144.212 29.586 144.388 29.586 144.575 29.57 C 144.622 29.567 144.661 29.528 144.653 29.488 L 144.626 29.293 C 144.622 29.254 144.583 29.231 144.536 29.235 C 144.376 29.254 144.196 29.266 144.024 29.274 C 143.853 29.281 143.681 29.285 143.509 29.281 C 143.169 29.274 142.833 29.219 142.509 29.121 C 141.856 28.922 141.255 28.543 140.798 28.024 C 140.728 27.945 140.622 28.028 140.692 28.113" fill-opacity="1" fill-rule="nonzero" style="transform-box: fill-box; transform-origin: 50% 50%;"/>
  <path fill="#bf9b30" d="M 143.645 28.09 C 143.614 27.942 144.016 27.739 144.508 27.543 C 144.633 27.5 144.747 27.45 144.856 27.418 C 144.965 27.375 145.067 27.348 145.157 27.328 C 145.333 27.282 145.465 27.282 145.504 27.348 C 145.547 27.41 145.485 27.528 145.344 27.664 C 145.274 27.731 145.18 27.801 145.075 27.868 C 144.965 27.93 144.844 28.004 144.708 28.051 C 144.161 28.266 143.672 28.235 143.645 28.09" fill-opacity="1" fill-rule="nonzero" style="transform-box: fill-box; transform-origin: 50% 50%;"/>
  <path fill="#bf9b30" d="M 140.841 28.184 C 141.458 28.321 142.094 28.372 142.731 28.336 C 143.048 28.321 143.364 28.282 143.677 28.219 C 143.989 28.165 144.302 28.079 144.602 27.973 C 144.641 27.957 144.665 27.915 144.649 27.879 L 144.575 27.692 C 144.563 27.657 144.52 27.641 144.481 27.657 C 143.36 28.114 142.087 28.25 140.868 28.047 C 140.774 28.032 140.747 28.165 140.841 28.184" fill-opacity="1" fill-rule="nonzero" style="transform-box: fill-box; transform-origin: 50% 50%;"/>
  <path fill="#bf9b30" d="M 149.782 38.277 C 149.723 38.324 149.614 38.293 149.496 38.195 C 149.383 38.098 149.254 37.934 149.172 37.723 C 149.086 37.519 149.059 37.316 149.071 37.164 C 149.082 37.012 149.137 36.918 149.207 36.902 C 149.36 36.879 149.528 37.168 149.676 37.519 C 149.746 37.695 149.801 37.859 149.825 37.996 C 149.852 38.129 149.844 38.234 149.782 38.277" fill-opacity="1" fill-rule="nonzero" style="transform-box: fill-box; transform-origin: 50% 50%;"/>
  <path fill="#bf9b30" d="M 151.512 39.317 C 151.063 39.235 150.649 39.012 150.321 38.711 C 149.992 38.406 149.746 38.02 149.586 37.606 C 149.578 37.574 149.539 37.567 149.504 37.582 L 149.321 37.656 C 149.282 37.672 149.262 37.707 149.278 37.738 C 149.485 38.18 149.782 38.586 150.164 38.891 C 150.547 39.196 151.008 39.403 151.492 39.453 C 151.567 39.461 151.578 39.328 151.512 39.317" fill-opacity="1" fill-rule="nonzero" style="transform-box: fill-box; transform-origin: 50% 50%;"/>
  <path fill="#bf9b30" d="M 152.184 37.942 C 152.032 37.918 151.958 37.657 151.946 37.364 C 151.942 37.208 151.958 37.098 151.977 37.016 C 152.001 36.934 152.016 36.852 152.067 36.797 C 152.095 36.774 152.134 36.762 152.184 36.774 C 152.231 36.786 152.286 36.821 152.337 36.879 C 152.438 36.993 152.485 37.18 152.489 37.348 C 152.497 37.524 152.458 37.684 152.395 37.79 C 152.333 37.899 152.255 37.954 152.184 37.942" fill-opacity="1" fill-rule="nonzero" style="transform-box: fill-box; transform-origin: 50% 50%;"/>
  <path fill="#bf9b30" d="M 151.555 39.461 C 151.715 39.344 151.824 39.18 151.918 39.019 C 152.012 38.855 152.094 38.683 152.16 38.508 C 152.293 38.156 152.367 37.777 152.375 37.39 C 152.379 37.367 152.348 37.344 152.305 37.347 L 152.105 37.351 C 152.066 37.355 152.039 37.375 152.039 37.398 C 152.063 37.742 152.027 38.094 151.934 38.433 C 151.887 38.601 151.824 38.769 151.75 38.93 C 151.676 39.09 151.59 39.242 151.469 39.355 C 151.43 39.387 151.504 39.5 151.555 39.461" fill-opacity="1" fill-rule="nonzero" style="transform-box: fill-box; transform-origin: 50% 50%;"/>
  <path fill="#bf9b30" d="M 153.883 37.117 C 153.812 37.086 153.809 36.938 153.836 36.735 C 153.863 36.527 153.918 36.258 153.973 35.957 C 154.027 35.66 154.074 35.387 154.121 35.184 C 154.172 34.981 154.223 34.848 154.301 34.84 C 154.375 34.836 154.457 34.961 154.508 35.184 C 154.559 35.402 154.57 35.719 154.508 36.055 C 154.445 36.395 154.32 36.684 154.199 36.871 C 154.07 37.059 153.949 37.149 153.883 37.117" fill-opacity="1" fill-rule="nonzero" style="transform-box: fill-box; transform-origin: 50% 50%;"/>
  <path fill="#bf9b30" d="M 151.649 39.41 C 152.36 39.192 152.993 38.727 153.422 38.113 C 153.528 37.961 153.629 37.809 153.723 37.649 L 153.868 37.414 L 153.942 37.293 L 154.004 37.172 C 154.172 36.836 154.301 36.481 154.383 36.113 C 154.395 36.063 154.371 36.016 154.332 36.012 L 154.137 35.973 C 154.098 35.969 154.059 36 154.051 36.043 C 153.993 36.391 153.887 36.727 153.746 37.047 L 153.688 37.164 L 153.625 37.281 L 153.496 37.516 C 153.414 37.672 153.321 37.828 153.223 37.977 C 152.848 38.571 152.274 39.039 151.606 39.278 C 151.504 39.317 151.543 39.446 151.649 39.41" fill-opacity="1" fill-rule="nonzero" style="transform-box: fill-box; transform-origin: 50% 50%;"/>
  <path fill="#bf9b30" d="M 148.739 38.305 C 148.684 38.352 148.544 38.305 148.38 38.16 C 148.216 38.016 148.024 37.774 147.887 37.469 C 147.747 37.168 147.688 36.867 147.692 36.645 C 147.692 36.426 147.747 36.289 147.817 36.278 C 147.895 36.27 147.977 36.383 148.067 36.559 C 148.157 36.739 148.259 36.981 148.384 37.246 C 148.618 37.77 148.852 38.203 148.739 38.305" fill-opacity="1" fill-rule="nonzero" style="transform-box: fill-box; transform-origin: 50% 50%;"/>
  <path fill="#bf9b30" d="M 151.481 39.293 C 151.325 39.348 151.153 39.355 150.981 39.367 C 150.805 39.375 150.637 39.379 150.473 39.351 C 150.149 39.297 149.852 39.109 149.575 38.914 C 149.02 38.519 148.586 37.965 148.309 37.355 C 148.289 37.316 148.246 37.293 148.211 37.308 L 148.032 37.39 C 147.992 37.406 147.981 37.457 148.004 37.5 C 148.336 38.152 148.828 38.719 149.438 39.113 C 149.516 39.16 149.59 39.211 149.672 39.25 C 149.75 39.297 149.828 39.34 149.91 39.375 C 150.078 39.453 150.258 39.515 150.446 39.539 C 150.633 39.558 150.817 39.547 150.992 39.531 C 151.164 39.512 151.352 39.496 151.532 39.422 C 151.641 39.371 151.567 39.254 151.481 39.293" fill-opacity="1" fill-rule="nonzero" style="transform-box: fill-box; transform-origin: 50% 50%;"/>
  <path fill="#bf9b30" d="M 148.454 39.524 C 148.418 39.59 148.262 39.59 148.043 39.504 C 147.825 39.422 147.543 39.25 147.297 38.992 C 147.047 38.738 146.883 38.453 146.801 38.234 C 146.723 38.016 146.727 37.859 146.79 37.828 C 146.86 37.793 146.977 37.883 147.129 38.031 C 147.282 38.18 147.469 38.391 147.688 38.613 C 147.903 38.836 148.106 39.031 148.254 39.184 C 148.399 39.34 148.489 39.457 148.454 39.524" fill-opacity="1" fill-rule="nonzero" style="transform-box: fill-box; transform-origin: 50% 50%;"/>
  <path fill="#bf9b30" d="M 151.544 39.321 C 151.446 39.461 151.29 39.551 151.122 39.618 C 150.954 39.684 150.771 39.743 150.595 39.793 C 150.419 39.84 150.247 39.868 150.067 39.856 C 149.892 39.848 149.712 39.813 149.532 39.77 L 149.267 39.704 C 149.177 39.68 149.087 39.657 149.005 39.625 C 148.833 39.567 148.669 39.489 148.513 39.403 C 148.196 39.231 147.907 39.004 147.661 38.747 C 147.626 38.711 147.575 38.704 147.548 38.731 L 147.403 38.868 C 147.376 38.895 147.384 38.95 147.423 38.985 C 147.708 39.254 148.028 39.485 148.38 39.657 C 148.552 39.747 148.735 39.817 148.923 39.875 C 149.017 39.907 149.11 39.922 149.204 39.946 L 149.485 40.004 C 149.673 40.04 149.864 40.071 150.064 40.071 C 150.263 40.075 150.466 40.036 150.65 39.973 C 150.837 39.915 151.005 39.848 151.185 39.77 C 151.36 39.688 151.548 39.582 151.661 39.395 C 151.724 39.274 151.591 39.239 151.544 39.321" fill-opacity="1" fill-rule="nonzero" style="transform-box: fill-box; transform-origin: 50% 50%;"/>
  <path fill="#bf9b30" d="M 149.094 40.911 C 149.09 40.989 148.954 41.044 148.735 41.048 C 148.524 41.052 148.227 40.993 147.938 40.864 C 147.79 40.798 147.665 40.727 147.544 40.649 C 147.426 40.571 147.317 40.477 147.247 40.376 C 147.172 40.278 147.137 40.177 147.137 40.106 C 147.133 40.032 147.161 39.989 147.192 39.973 C 147.227 39.962 147.27 39.977 147.321 40.001 C 147.372 40.028 147.43 40.055 147.505 40.091 C 147.579 40.126 147.672 40.165 147.782 40.208 C 147.895 40.251 148.028 40.305 148.157 40.364 C 148.419 40.481 148.649 40.583 148.821 40.673 C 148.993 40.759 149.102 40.837 149.094 40.911" fill-opacity="1" fill-rule="nonzero" style="transform-box: fill-box; transform-origin: 50% 50%;"/>
  <path fill="#bf9b30" d="M 151.439 39.434 C 151.357 39.75 151.173 40.039 150.923 40.242 C 150.677 40.445 150.36 40.582 150.056 40.695 C 149.755 40.809 149.427 40.82 149.107 40.778 C 148.786 40.735 148.474 40.629 148.173 40.496 C 148.134 40.477 148.087 40.488 148.071 40.528 L 147.993 40.707 C 147.978 40.742 148.001 40.789 148.044 40.805 C 148.368 40.934 148.716 41.035 149.075 41.067 C 149.431 41.094 149.806 41.063 150.138 40.922 C 150.298 40.848 150.462 40.778 150.61 40.692 C 150.763 40.606 150.915 40.508 151.048 40.387 C 151.317 40.141 151.501 39.817 151.575 39.465 C 151.595 39.356 151.458 39.336 151.439 39.434" fill-opacity="1" fill-rule="nonzero" style="transform-box: fill-box; transform-origin: 50% 50%;"/>
  <path fill="#bf9b30" d="M 150.914 41.363 C 150.965 41.41 150.957 41.524 150.879 41.656 C 150.797 41.789 150.645 41.942 150.438 42.043 C 150.231 42.149 150.016 42.188 149.864 42.172 C 149.707 42.156 149.61 42.098 149.602 42.024 C 149.594 41.945 149.664 41.875 149.774 41.797 C 149.883 41.719 150.028 41.641 150.192 41.559 C 150.352 41.477 150.5 41.406 150.629 41.363 C 150.754 41.32 150.86 41.309 150.914 41.363" fill-opacity="1" fill-rule="nonzero" style="transform-box: fill-box; transform-origin: 50% 50%;"/>
  <path fill="#bf9b30" d="M 151.481 39.454 C 151.52 39.903 151.426 40.36 151.215 40.751 C 151.004 41.137 150.672 41.45 150.281 41.641 C 150.254 41.653 150.246 41.692 150.266 41.727 L 150.356 41.903 C 150.371 41.938 150.41 41.954 150.441 41.938 C 150.875 41.688 151.227 41.305 151.426 40.856 C 151.629 40.407 151.695 39.907 151.617 39.434 C 151.606 39.36 151.473 39.383 151.481 39.454" fill-opacity="1" fill-rule="nonzero" style="transform-box: fill-box; transform-origin: 50% 50%;"/>
  <path fill="#bf9b30" d="M 154.778 38.324 C 154.669 38.215 154.942 37.765 155.212 37.203 C 155.349 36.918 155.466 36.66 155.563 36.465 C 155.614 36.371 155.657 36.293 155.7 36.238 C 155.743 36.187 155.782 36.16 155.821 36.164 C 155.856 36.172 155.888 36.211 155.907 36.277 C 155.931 36.344 155.938 36.441 155.935 36.558 C 155.931 36.793 155.86 37.117 155.704 37.437 C 155.548 37.762 155.341 38.015 155.157 38.168 C 154.978 38.32 154.833 38.375 154.778 38.324" fill-opacity="1" fill-rule="nonzero" style="transform-box: fill-box; transform-origin: 50% 50%;"/>
  <path fill="#bf9b30" d="M 151.699 39.489 C 152.082 39.583 152.481 39.543 152.856 39.473 C 153.043 39.438 153.227 39.395 153.414 39.352 C 153.602 39.305 153.793 39.235 153.965 39.133 C 154.641 38.743 155.192 38.157 155.563 37.465 C 155.59 37.418 155.578 37.364 155.543 37.348 L 155.363 37.262 C 155.328 37.243 155.285 37.266 155.262 37.313 C 154.949 37.961 154.453 38.536 153.844 38.93 C 153.692 39.028 153.535 39.094 153.356 39.145 C 153.18 39.196 152.996 39.247 152.817 39.29 C 152.457 39.372 152.086 39.422 151.731 39.352 C 151.625 39.329 151.582 39.454 151.699 39.489" fill-opacity="1" fill-rule="nonzero" style="transform-box: fill-box; transform-origin: 50% 50%;"/>
  <path fill="#bf9b30" d="M 154.454 40.027 C 154.438 39.953 154.548 39.867 154.704 39.766 C 154.739 39.742 154.782 39.715 154.806 39.691 C 154.848 39.656 154.891 39.621 154.942 39.586 C 155.036 39.512 155.141 39.43 155.247 39.348 C 155.458 39.176 155.634 39.012 155.774 38.891 C 155.911 38.77 156.016 38.688 156.087 38.715 C 156.153 38.742 156.169 38.891 156.095 39.102 C 156.02 39.305 155.845 39.566 155.587 39.77 C 155.462 39.871 155.329 39.953 155.2 40.016 C 155.138 40.043 155.075 40.07 155.016 40.09 C 154.938 40.121 154.88 40.129 154.821 40.133 C 154.598 40.149 154.47 40.098 154.454 40.027" fill-opacity="1" fill-rule="nonzero" style="transform-box: fill-box; transform-origin: 50% 50%;"/>
  <path fill="#bf9b30" d="M 151.555 39.528 C 151.77 39.813 152.102 39.985 152.43 40.086 C 152.762 40.188 153.11 40.227 153.453 40.235 C 153.797 40.238 154.141 40.219 154.485 40.156 C 154.571 40.145 154.656 40.125 154.742 40.102 C 154.785 40.09 154.832 40.078 154.875 40.063 C 154.899 40.055 154.918 40.047 154.946 40.035 C 154.969 40.024 154.992 40.012 155.008 40.004 C 155.164 39.922 155.317 39.832 155.457 39.727 C 155.496 39.699 155.508 39.649 155.485 39.621 L 155.36 39.465 C 155.332 39.434 155.285 39.43 155.254 39.457 C 155.129 39.559 154.996 39.649 154.86 39.727 C 154.75 39.797 154.582 39.84 154.426 39.875 C 154.11 39.945 153.781 39.985 153.453 39.996 C 153.125 40.004 152.793 39.981 152.481 39.903 C 152.168 39.824 151.867 39.684 151.664 39.438 C 151.606 39.367 151.489 39.438 151.555 39.528" fill-opacity="1" fill-rule="nonzero" style="transform-box: fill-box; transform-origin: 50% 50%;"/>
  <path fill="#bf9b30" d="M 153.641 41.164 C 153.656 41.09 153.781 41.054 153.942 41.019 C 154.102 40.984 154.285 40.929 154.508 40.84 C 154.727 40.746 154.946 40.644 155.125 40.59 C 155.215 40.562 155.278 40.554 155.328 40.554 C 155.379 40.551 155.422 40.551 155.453 40.578 C 155.485 40.597 155.496 40.648 155.469 40.711 C 155.449 40.777 155.391 40.851 155.328 40.918 C 155.199 41.051 155 41.222 154.715 41.34 C 154.574 41.402 154.422 41.437 154.281 41.445 C 154.141 41.453 154.012 41.437 153.91 41.402 C 153.715 41.336 153.625 41.234 153.641 41.164" fill-opacity="1" fill-rule="nonzero" style="transform-box: fill-box; transform-origin: 50% 50%;"/>
  <path fill="#bf9b30" d="M 151.555 39.516 C 151.727 40.122 152.157 40.657 152.723 40.969 C 152.793 41.008 152.864 41.047 152.938 41.079 C 153.012 41.106 153.09 41.13 153.164 41.157 L 153.387 41.231 C 153.461 41.255 153.539 41.278 153.614 41.297 C 153.77 41.337 153.938 41.368 154.11 41.36 C 154.286 41.356 154.454 41.317 154.61 41.262 C 154.653 41.247 154.672 41.204 154.657 41.169 L 154.579 40.985 C 154.563 40.95 154.524 40.93 154.489 40.946 C 154.36 41.001 154.227 41.036 154.094 41.047 C 153.961 41.059 153.825 41.044 153.68 41.016 C 153.61 41.001 153.536 40.985 153.461 40.965 L 153.247 40.907 C 153.176 40.883 153.102 40.868 153.032 40.844 C 152.965 40.821 152.899 40.79 152.832 40.758 C 152.313 40.505 151.879 40.036 151.688 39.473 C 151.657 39.387 151.524 39.419 151.555 39.516" fill-opacity="1" fill-rule="nonzero" style="transform-box: fill-box; transform-origin: 50% 50%;"/>
  <path fill="#bf9b30" d="M 125.094 40.176 C 125.102 40.598 125.364 41.051 125.524 41.438 C 125.7 41.864 125.872 42.29 126.04 42.719 C 126.387 43.606 126.719 44.504 127.008 45.411 C 127.579 47.196 127.989 49.043 128.083 50.918 C 128.106 51.438 128.13 51.965 128.122 52.481 C 128.114 53.028 128.028 53.547 127.989 54.09 C 127.981 54.184 128.13 54.2 128.153 54.11 C 128.274 53.668 128.305 53.196 128.36 52.743 C 128.415 52.278 128.454 51.805 128.442 51.336 C 128.419 50.399 128.309 49.461 128.137 48.54 C 127.782 46.633 127.165 44.786 126.462 42.985 C 126.266 42.493 126.067 42.001 125.864 41.508 C 125.766 41.27 125.665 41.028 125.559 40.79 C 125.458 40.559 125.376 40.321 125.196 40.137 C 125.161 40.102 125.094 40.126 125.094 40.176" fill-opacity="1" fill-rule="nonzero" style="transform-box: fill-box; transform-origin: 50% 50%;"/>
  <path fill="#bf9b30" d="M 128.438 50.887 C 128.438 50.82 128.403 50.789 128.356 50.77 C 128.348 50.641 128.321 50.52 128.266 50.402 C 128.235 50.344 128.149 50.363 128.129 50.422 C 128.035 50.695 128.051 50.996 127.993 51.281 C 127.938 51.582 127.86 51.887 127.778 52.184 C 127.696 52.473 127.598 52.758 127.496 53.043 C 127.403 53.305 127.262 53.578 127.293 53.863 C 127.34 54.324 127.84 54.723 128.266 54.406 C 128.676 54.106 128.723 53.461 128.715 53 C 128.703 52.285 128.461 51.598 128.438 50.887" fill-opacity="1" fill-rule="nonzero" style="transform-box: fill-box; transform-origin: 50% 50%;"/>
  <path fill="#bf9b30" d="M 135.473 43.887 C 135.449 43.571 135.375 43.274 135.348 42.957 C 135.324 42.629 135.305 42.301 135.309 41.973 C 135.309 41.824 135.082 41.789 135.051 41.938 C 135.031 42.012 135.004 42.082 134.98 42.153 C 134.734 42.547 134.519 42.961 134.324 43.379 C 134.125 43.805 133.902 44.364 134.09 44.832 C 134.25 45.239 134.707 45.434 135.09 45.184 C 135.527 44.891 135.504 44.348 135.473 43.887" fill-opacity="1" fill-rule="nonzero" style="transform-box: fill-box; transform-origin: 50% 50%;"/>
  <path fill="#bf9b30" d="M 152.66 52.325 C 152.641 52.11 152.305 52.114 152.328 52.325 C 152.332 52.368 152.332 52.415 152.332 52.458 C 152.246 52.657 152.172 52.86 152.078 53.059 C 151.95 53.329 151.797 53.591 151.645 53.848 C 151.379 54.294 150.895 54.829 150.973 55.384 C 151 55.591 151.078 55.833 151.266 55.946 C 151.493 56.083 151.77 56.028 151.985 55.891 C 152.43 55.602 152.649 55.071 152.723 54.563 C 152.828 53.829 152.723 53.059 152.66 52.325" fill-opacity="1" fill-rule="nonzero" style="transform-box: fill-box; transform-origin: 50% 50%;"/>
  <path fill="#bf9b30" d="M 151.633 39.774 C 151.672 40.227 151.789 40.68 151.875 41.125 C 151.961 41.586 152.059 42.043 152.145 42.508 C 152.328 43.489 152.489 44.473 152.586 45.469 C 152.68 46.414 152.727 47.368 152.7 48.321 C 152.684 48.805 152.653 49.289 152.618 49.77 C 152.602 49.989 152.586 50.2 152.571 50.418 C 152.551 50.684 152.59 50.957 152.547 51.215 C 152.465 51.746 152.442 52.258 152.426 52.793 C 152.414 53.356 152.371 53.914 152.336 54.473 C 152.332 54.543 152.442 54.543 152.446 54.473 C 152.485 53.985 152.516 53.496 152.567 53.012 C 152.621 52.524 152.703 52.047 152.703 51.551 C 152.703 51.289 152.703 51.071 152.754 50.809 C 152.797 50.579 152.793 50.329 152.809 50.094 C 152.844 49.61 152.879 49.129 152.899 48.645 C 152.989 46.739 152.789 44.852 152.453 42.981 C 152.36 42.446 152.258 41.914 152.145 41.387 C 152.032 40.848 151.93 40.278 151.75 39.758 C 151.731 39.7 151.625 39.704 151.633 39.774" fill-opacity="1" fill-rule="nonzero" style="transform-box: fill-box; transform-origin: 50% 50%;"/>
  <path fill="#bf9b30" d="M 134.895 43.551 C 135.246 42.536 135.473 41.485 135.762 40.45 C 136.051 39.43 136.363 38.422 136.703 37.418 C 137.395 35.383 138.223 33.379 139.168 31.446 C 139.699 30.36 140.285 29.301 140.859 28.239 C 140.922 28.122 140.75 28.016 140.68 28.133 C 139.547 29.993 138.609 31.985 137.746 33.981 C 136.898 35.942 136.188 37.985 135.602 40.04 C 135.273 41.188 134.941 42.352 134.828 43.543 C 134.824 43.582 134.883 43.586 134.895 43.551" fill-opacity="1" fill-rule="nonzero" style="transform-box: fill-box; transform-origin: 50% 50%;"/>
</svg>