<?xml version="1.0" encoding="utf-8"?>
<svg xmlns="http://www.w3.org/2000/svg" width="300" zoomAndPan="magnify" viewBox="0 0 224.87999 225" height="300" preserveAspectRatio="xMidYMid meet" version="1.0">
  <path fill="#bf9b30" d="M 1.988281 123.816406 C 1.910156 123.949219 1.476562 123.839844 0.96875 123.707031 C 0.84375 123.667969 0.722656 123.644531 0.613281 123.601562 C 0.5 123.574219 0.398438 123.539062 0.316406 123.503906 C 0.144531 123.445312 0.0351562 123.371094 0.0351562 123.296875 C 0.0351562 123.222656 0.152344 123.160156 0.351562 123.121094 C 0.449219 123.109375 0.566406 123.105469 0.695312 123.109375 C 0.824219 123.125 0.96875 123.136719 1.113281 123.179688 C 1.183594 123.199219 1.253906 123.222656 1.320312 123.242188 C 1.386719 123.269531 1.445312 123.296875 1.503906 123.328125 C 1.621094 123.378906 1.71875 123.449219 1.796875 123.507812 C 1.875 123.570312 1.933594 123.628906 1.964844 123.683594 C 1.996094 123.738281 2.003906 123.78125 1.988281 123.816406 " fill-opacity="1" fill-rule="nonzero"/>
  <path fill="#bf9b30" d="M 2.617188 112.507812 C 2.628906 112.582031 2.492188 112.679688 2.246094 112.753906 C 1.996094 112.824219 1.632812 112.867188 1.238281 112.800781 C 0.839844 112.734375 0.5 112.574219 0.296875 112.410156 C 0.0859375 112.246094 0.00390625 112.089844 0.0507812 112.03125 C 0.0976562 111.96875 0.25 112.007812 0.472656 112.066406 C 0.695312 112.128906 0.988281 112.207031 1.328125 112.261719 C 1.992188 112.375 2.585938 112.355469 2.617188 112.507812 " fill-opacity="1" fill-rule="nonzero"/>
  <path fill="#bf9b30" d="M 105.715 62.473 C 105.641 62.45 105.613 62.313 105.645 62.102 C 105.676 61.895 105.77 61.617 105.934 61.344 C 106.098 61.071 106.301 60.86 106.469 60.735 C 106.641 60.61 106.778 60.571 106.832 60.625 C 106.938 60.735 106.688 61.141 106.399 61.625 C 106.106 62.106 105.86 62.516 105.715 62.473" fill-opacity="1" fill-rule="nonzero" style="transform-box: fill-box; transform-origin: 50% 50%;"/>
  <path fill="#bf9b30" d="M 105.793 65.441 C 105.594 64.805 105.536 64.129 105.618 63.473 C 105.696 62.813 105.922 62.18 106.27 61.625 C 106.293 61.59 106.286 61.539 106.25 61.52 L 106.082 61.418 C 106.047 61.399 106 61.414 105.977 61.453 C 105.637 62.066 105.43 62.754 105.379 63.445 C 105.325 64.141 105.422 64.84 105.661 65.488 C 105.696 65.586 105.821 65.539 105.793 65.441" fill-opacity="1" fill-rule="nonzero" style="transform-box: fill-box; transform-origin: 50% 50%;"/>
  <path fill="#bf9b30" d="M 104.742 61.981 C 104.668 61.977 104.609 61.825 104.59 61.575 C 104.578 61.325 104.597 60.973 104.722 60.61 C 104.746 60.52 104.785 60.434 104.82 60.348 C 104.855 60.266 104.886 60.188 104.929 60.114 C 105.011 59.962 105.113 59.829 105.219 59.739 C 105.32 59.641 105.429 59.591 105.511 59.575 C 105.594 59.559 105.644 59.575 105.66 59.61 C 105.691 59.68 105.597 59.79 105.519 59.973 C 105.476 60.067 105.433 60.18 105.39 60.321 C 105.344 60.462 105.293 60.614 105.242 60.778 C 105.133 61.102 105.054 61.403 104.969 61.622 C 104.898 61.844 104.816 61.985 104.742 61.981" fill-opacity="1" fill-rule="nonzero" style="transform-box: fill-box; transform-origin: 50% 50%;"/>
  <path fill="#bf9b30" d="M 105.793 65.395 C 105.324 64.739 105.039 63.966 104.922 63.177 C 104.863 62.782 104.848 62.38 104.879 61.985 C 104.91 61.587 104.988 61.196 105.109 60.821 C 105.125 60.77 105.109 60.72 105.07 60.708 L 104.883 60.645 C 104.844 60.634 104.801 60.669 104.785 60.723 C 104.672 61.13 104.609 61.548 104.59 61.966 C 104.574 62.388 104.609 62.806 104.684 63.216 C 104.84 64.032 105.172 64.821 105.68 65.477 C 105.754 65.579 105.859 65.497 105.793 65.395" fill-opacity="1" fill-rule="nonzero" style="transform-box: fill-box; transform-origin: 50% 50%;"/>
  <path fill="#bf9b30" d="M 103.656 61.734 C 103.582 61.746 103.484 61.594 103.414 61.324 C 103.34 61.054 103.289 60.66 103.367 60.219 C 103.441 59.777 103.648 59.402 103.859 59.195 C 104.07 58.98 104.258 58.926 104.305 58.984 C 104.355 59.043 104.273 59.191 104.176 59.414 C 104.074 59.64 103.965 59.949 103.902 60.312 C 103.84 60.676 103.824 61.027 103.797 61.289 C 103.769 61.554 103.73 61.726 103.656 61.734" fill-opacity="1" fill-rule="nonzero" style="transform-box: fill-box; transform-origin: 50% 50%;"/>
  <path fill="#bf9b30" d="M 105.582 65.207 C 105.211 64.949 104.902 64.613 104.648 64.242 C 104.398 63.871 104.207 63.461 104.07 63.031 C 103.933 62.601 103.844 62.16 103.789 61.711 C 103.73 61.265 103.707 60.812 103.777 60.382 C 103.785 60.328 103.765 60.273 103.726 60.265 L 103.531 60.23 C 103.492 60.222 103.449 60.269 103.441 60.336 C 103.383 60.816 103.43 61.293 103.504 61.75 C 103.574 62.211 103.683 62.668 103.844 63.109 C 104.16 63.984 104.711 64.808 105.504 65.324 C 105.625 65.402 105.695 65.285 105.582 65.207" fill-opacity="1" fill-rule="nonzero" style="transform-box: fill-box; transform-origin: 50% 50%;"/>
  <path fill="#bf9b30" d="M 102.934 63.445 C 102.871 63.481 102.735 63.391 102.59 63.195 C 102.446 62.996 102.297 62.688 102.223 62.324 C 102.145 61.957 102.156 61.613 102.215 61.375 C 102.27 61.137 102.364 61 102.434 61.012 C 102.512 61.024 102.559 61.168 102.602 61.387 C 102.645 61.602 102.688 61.895 102.754 62.211 C 102.883 62.844 103.067 63.363 102.934 63.445" fill-opacity="1" fill-rule="nonzero" style="transform-box: fill-box; transform-origin: 50% 50%;"/>
  <path fill="#bf9b30" d="M 105.684 65.34 C 105.489 65.329 105.298 65.309 105.114 65.262 C 104.93 65.215 104.759 65.137 104.598 65.036 C 104.278 64.829 103.977 64.579 103.716 64.301 C 103.192 63.743 102.813 63.051 102.661 62.313 C 102.649 62.262 102.614 62.227 102.575 62.235 L 102.38 62.278 C 102.341 62.286 102.317 62.337 102.333 62.387 C 102.532 63.184 102.973 63.903 103.548 64.465 C 103.837 64.747 104.153 64.993 104.501 65.2 C 104.676 65.297 104.872 65.383 105.075 65.422 C 105.278 65.465 105.477 65.473 105.676 65.481 C 105.798 65.485 105.801 65.352 105.684 65.34" fill-opacity="1" fill-rule="nonzero" style="transform-box: fill-box; transform-origin: 50% 50%;"/>
  <path fill="#bf9b30" d="M 104.422 66.723 C 104.489 66.758 104.512 66.848 104.52 66.973 C 104.524 67.031 104.52 67.098 104.512 67.172 C 104.508 67.211 104.5 67.246 104.496 67.285 C 104.489 67.324 104.481 67.363 104.473 67.402 C 104.453 67.481 104.442 67.559 104.414 67.629 C 104.395 67.695 104.367 67.762 104.34 67.816 C 104.293 67.922 104.227 67.996 104.149 68 C 104.074 68.004 104.004 67.934 103.957 67.801 C 103.934 67.738 103.922 67.66 103.914 67.57 C 103.914 67.484 103.918 67.387 103.942 67.289 C 103.953 67.242 103.965 67.191 103.977 67.148 C 103.996 67.102 104.016 67.063 104.032 67.023 C 104.071 66.945 104.117 66.879 104.164 66.828 C 104.254 66.727 104.356 66.691 104.422 66.723" fill-opacity="1" fill-rule="nonzero" style="transform-box: fill-box; transform-origin: 50% 50%;"/>
  <path fill="#bf9b30" d="M 105.657 65.379 C 104.887 65.715 104.289 66.43 104.063 67.269 C 104.055 67.297 104.078 67.328 104.118 67.336 L 104.313 67.375 C 104.352 67.383 104.387 67.367 104.391 67.344 C 104.528 66.59 105.016 65.879 105.719 65.504 C 105.77 65.472 105.715 65.347 105.657 65.379" fill-opacity="1" fill-rule="nonzero" style="transform-box: fill-box; transform-origin: 50% 50%;"/>
  <path fill="#bf9b30" d="M 105.516 68.551 C 105.583 68.516 105.696 68.602 105.84 68.739 C 105.985 68.875 106.165 69.071 106.368 69.289 C 106.77 69.719 107.102 70.106 107.008 70.227 C 106.965 70.285 106.821 70.266 106.629 70.168 C 106.434 70.071 106.192 69.899 105.969 69.656 C 105.743 69.414 105.586 69.153 105.512 68.942 C 105.442 68.731 105.45 68.582 105.516 68.551" fill-opacity="1" fill-rule="nonzero" style="transform-box: fill-box; transform-origin: 50% 50%;"/>
  <path fill="#bf9b30" d="M 105.657 65.504 C 105.501 65.821 105.348 66.141 105.235 66.485 C 105.13 66.825 105.067 67.196 105.102 67.563 C 105.165 68.297 105.524 68.981 106.001 69.524 C 106.032 69.563 106.083 69.571 106.11 69.544 L 106.255 69.407 C 106.286 69.379 106.282 69.333 106.251 69.301 C 106.016 69.055 105.813 68.782 105.653 68.485 C 105.497 68.192 105.383 67.868 105.341 67.54 C 105.294 67.208 105.329 66.868 105.419 66.536 C 105.508 66.208 105.641 65.883 105.782 65.563 C 105.825 65.465 105.704 65.407 105.657 65.504" fill-opacity="1" fill-rule="nonzero" style="transform-box: fill-box; transform-origin: 50% 50%;"/>
  <path fill="#bf9b30" d="M 103.298 65.148 C 103.27 65.214 103.145 65.238 102.974 65.203 C 102.802 65.164 102.575 65.066 102.364 64.898 C 102.153 64.73 102.005 64.531 101.934 64.367 C 101.864 64.203 101.864 64.078 101.927 64.035 C 101.989 63.992 102.099 64.035 102.231 64.121 C 102.364 64.207 102.528 64.332 102.704 64.472 C 103.056 64.753 103.356 65.007 103.298 65.148" fill-opacity="1" fill-rule="nonzero" style="transform-box: fill-box; transform-origin: 50% 50%;"/>
  <path fill="#bf9b30" d="M 105.738 65.379 C 105.192 65.438 104.637 65.418 104.11 65.293 C 103.582 65.168 103.086 64.934 102.676 64.598 C 102.649 64.575 102.61 64.578 102.582 64.61 L 102.457 64.766 C 102.434 64.793 102.438 64.84 102.473 64.864 C 102.945 65.207 103.496 65.426 104.063 65.524 C 104.629 65.625 105.203 65.61 105.758 65.516 C 105.844 65.5 105.824 65.368 105.738 65.379" fill-opacity="1" fill-rule="nonzero" style="transform-box: fill-box; transform-origin: 50% 50%;"/>
  <path fill="#bf9b30" d="M 107.653 68.035 C 107.688 67.969 107.836 67.973 108.055 68.008 C 108.27 68.043 108.555 68.11 108.875 68.184 C 109.504 68.332 110.039 68.469 110.031 68.625 C 110.024 68.699 109.883 68.758 109.649 68.785 C 109.418 68.809 109.094 68.797 108.75 68.715 C 108.403 68.633 108.102 68.496 107.906 68.364 C 107.711 68.231 107.617 68.102 107.653 68.035" fill-opacity="1" fill-rule="nonzero" style="transform-box: fill-box; transform-origin: 50% 50%;"/>
  <path fill="#bf9b30" d="M 105.602 65.414 C 105.664 66.199 106.075 66.93 106.637 67.473 C 107.207 68.028 107.942 68.379 108.696 68.586 C 108.747 68.598 108.797 68.578 108.805 68.539 L 108.848 68.344 C 108.86 68.305 108.825 68.266 108.778 68.258 C 108.055 68.094 107.352 67.793 106.801 67.301 C 106.247 66.813 105.832 66.141 105.743 65.399 C 105.727 65.285 105.594 65.293 105.602 65.414" fill-opacity="1" fill-rule="nonzero" style="transform-box: fill-box; transform-origin: 50% 50%;"/>
  <path fill="#bf9b30" d="M 108.583 66.488 C 108.594 66.336 109.102 66.254 109.688 66.132 C 109.985 66.07 110.251 66.011 110.454 65.976 C 110.657 65.945 110.801 65.937 110.84 66.007 C 110.856 66.039 110.844 66.086 110.805 66.14 C 110.766 66.199 110.7 66.265 110.606 66.332 C 110.422 66.464 110.133 66.597 109.797 66.668 C 109.461 66.734 109.149 66.73 108.93 66.683 C 108.708 66.64 108.579 66.566 108.583 66.488" fill-opacity="1" fill-rule="nonzero" style="transform-box: fill-box; transform-origin: 50% 50%;"/>
  <path fill="#bf9b30" d="M 105.622 65.313 C 105.825 65.629 106.126 65.871 106.454 66.051 C 106.778 66.231 107.13 66.356 107.485 66.449 C 108.2 66.633 108.958 66.696 109.7 66.571 C 109.751 66.563 109.782 66.524 109.774 66.485 L 109.735 66.289 C 109.727 66.25 109.68 66.227 109.637 66.239 C 108.954 66.383 108.235 66.364 107.544 66.215 C 107.196 66.141 106.856 66.039 106.54 65.883 C 106.227 65.727 105.938 65.516 105.739 65.231 C 105.676 65.149 105.559 65.211 105.622 65.313" fill-opacity="1" fill-rule="nonzero" style="transform-box: fill-box; transform-origin: 50% 50%;"/>
  <path fill="#bf9b30" d="M 107.774 65.044 C 107.712 64.907 107.97 64.661 108.306 64.419 C 108.645 64.18 108.977 64.024 109.083 64.133 C 109.184 64.239 109.005 64.59 108.622 64.864 C 108.431 64.997 108.231 65.083 108.075 65.11 C 107.919 65.137 107.806 65.114 107.774 65.044" fill-opacity="1" fill-rule="nonzero" style="transform-box: fill-box; transform-origin: 50% 50%;"/>
  <path fill="#bf9b30" d="M 105.582 65.324 C 106.066 65.488 106.598 65.5 107.098 65.398 C 107.605 65.297 108.082 65.078 108.512 64.801 C 108.539 64.781 108.543 64.738 108.519 64.707 L 108.406 64.547 C 108.383 64.515 108.344 64.504 108.316 64.523 C 107.934 64.808 107.504 65.039 107.043 65.164 C 106.582 65.293 106.09 65.312 105.621 65.191 C 105.551 65.172 105.508 65.301 105.582 65.324" fill-opacity="1" fill-rule="nonzero" style="transform-box: fill-box; transform-origin: 50% 50%;"/>
  <path fill="#bf9b30" d="M 103.836 81.082 C 103.699 81.141 103.453 80.848 103.355 80.414 C 103.258 79.981 103.359 79.614 103.508 79.606 C 103.66 79.598 103.801 79.911 103.891 80.297 C 103.973 80.684 103.976 81.028 103.836 81.082" fill-opacity="1" fill-rule="nonzero" style="transform-box: fill-box; transform-origin: 50% 50%;"/>
  <path fill="#bf9b30" d="M 105.051 82.727 C 104.852 82.625 104.692 82.461 104.559 82.278 C 104.43 82.09 104.321 81.883 104.219 81.676 C 104.02 81.258 103.875 80.817 103.789 80.368 C 103.785 80.336 103.746 80.321 103.707 80.329 L 103.516 80.372 C 103.477 80.379 103.453 80.414 103.461 80.446 C 103.586 80.914 103.77 81.368 104.008 81.786 C 104.125 81.997 104.254 82.2 104.41 82.391 C 104.567 82.582 104.758 82.754 104.992 82.856 C 105.067 82.883 105.11 82.758 105.051 82.727" fill-opacity="1" fill-rule="nonzero" style="transform-box: fill-box; transform-origin: 50% 50%;"/>
  <path fill="#bf9b30" d="M 104.941 79.316 C 104.871 79.3 104.828 79.14 104.844 78.89 C 104.859 78.636 104.938 78.3 105.078 77.949 C 105.219 77.593 105.41 77.304 105.574 77.113 C 105.738 76.925 105.879 76.836 105.941 76.875 C 106.004 76.918 105.981 77.078 105.906 77.304 C 105.836 77.531 105.715 77.828 105.582 78.152 C 105.316 78.804 105.09 79.343 104.941 79.316" fill-opacity="1" fill-rule="nonzero" style="transform-box: fill-box; transform-origin: 50% 50%;"/>
  <path fill="#bf9b30" d="M 105.239 82.899 C 105.005 82.583 104.97 82.157 104.919 81.758 C 104.876 81.352 104.868 80.946 104.895 80.54 C 104.95 79.731 105.134 78.934 105.446 78.188 C 105.466 78.141 105.458 78.086 105.419 78.071 L 105.235 77.997 C 105.2 77.981 105.149 78.012 105.134 78.063 C 104.837 78.856 104.681 79.692 104.657 80.528 C 104.645 80.95 104.669 81.368 104.731 81.782 C 104.767 81.989 104.794 82.192 104.853 82.399 C 104.907 82.602 104.989 82.813 105.13 82.985 C 105.224 83.09 105.313 82.985 105.239 82.899" fill-opacity="1" fill-rule="nonzero" style="transform-box: fill-box; transform-origin: 50% 50%;"/>
  <path fill="#bf9b30" d="M 103.512 85.004 C 103.657 85.063 103.594 85.492 103.504 85.977 C 103.462 86.219 103.422 86.438 103.376 86.602 C 103.356 86.684 103.329 86.75 103.305 86.801 C 103.278 86.852 103.243 86.883 103.208 86.891 C 103.169 86.895 103.129 86.871 103.094 86.824 C 103.055 86.778 103.02 86.703 102.993 86.613 C 102.938 86.43 102.919 86.16 102.969 85.879 C 103.02 85.598 103.126 85.36 103.231 85.207 C 103.34 85.051 103.446 84.977 103.512 85.004" fill-opacity="1" fill-rule="nonzero" style="transform-box: fill-box; transform-origin: 50% 50%;"/>
  <path fill="#bf9b30" d="M 105.027 82.805 C 104.75 82.945 104.512 83.152 104.312 83.387 C 104.113 83.621 103.945 83.879 103.797 84.145 C 103.5 84.672 103.234 85.227 103.094 85.836 C 103.082 85.875 103.109 85.918 103.148 85.922 L 103.344 85.957 C 103.383 85.965 103.418 85.938 103.426 85.902 C 103.519 85.336 103.746 84.785 104.008 84.254 C 104.137 83.988 104.285 83.734 104.461 83.504 C 104.633 83.274 104.844 83.07 105.094 82.926 C 105.168 82.887 105.113 82.762 105.027 82.805" fill-opacity="1" fill-rule="nonzero" style="transform-box: fill-box; transform-origin: 50% 50%;"/>
  <path fill="#bf9b30" d="M 105.09 82.894 C 104.731 83.566 104.571 84.332 104.575 85.097 C 104.582 85.859 104.77 86.625 105.133 87.312 C 105.157 87.359 105.207 87.379 105.239 87.359 L 105.411 87.258 C 105.446 87.238 105.45 87.187 105.426 87.148 C 105.067 86.527 104.852 85.816 104.813 85.09 C 104.793 84.726 104.817 84.359 104.883 84 C 104.946 83.64 105.059 83.289 105.215 82.957 C 105.262 82.855 105.145 82.789 105.09 82.894" fill-opacity="1" fill-rule="nonzero" style="transform-box: fill-box; transform-origin: 50% 50%;"/>
  <path fill="#bf9b30" d="M 105.133 82.82 C 105.04 83.558 105.157 84.32 105.426 85.023 C 105.692 85.726 106.118 86.363 106.629 86.914 C 106.661 86.949 106.715 86.957 106.743 86.929 L 106.883 86.789 C 106.911 86.761 106.907 86.711 106.872 86.679 C 106.364 86.176 105.93 85.59 105.645 84.933 C 105.36 84.277 105.215 83.551 105.274 82.832 C 105.282 82.722 105.149 82.703 105.133 82.82" fill-opacity="1" fill-rule="nonzero" style="transform-box: fill-box; transform-origin: 50% 50%;"/>
  <path fill="#bf9b30" d="M 107.547 85.551 C 107.637 85.43 108.145 85.648 108.746 85.926 C 108.895 85.996 109.039 86.055 109.168 86.125 C 109.301 86.183 109.418 86.246 109.512 86.305 C 109.711 86.41 109.828 86.515 109.809 86.586 C 109.793 86.66 109.637 86.691 109.399 86.672 C 109.281 86.66 109.145 86.633 108.992 86.594 C 108.844 86.547 108.68 86.5 108.52 86.418 C 108.438 86.383 108.359 86.34 108.285 86.301 C 108.211 86.262 108.141 86.215 108.078 86.172 C 107.945 86.09 107.84 85.996 107.754 85.918 C 107.664 85.836 107.606 85.758 107.57 85.695 C 107.535 85.633 107.527 85.582 107.547 85.551" fill-opacity="1" fill-rule="nonzero" style="transform-box: fill-box; transform-origin: 50% 50%;"/>
  <path fill="#bf9b30" d="M 105.235 82.973 C 105.899 84.391 107.071 85.574 108.493 86.281 C 108.54 86.305 108.591 86.297 108.606 86.258 L 108.692 86.078 C 108.708 86.043 108.681 85.996 108.638 85.977 C 107.255 85.359 106.071 84.27 105.36 82.91 C 105.302 82.805 105.181 82.863 105.235 82.973" fill-opacity="1" fill-rule="nonzero" style="transform-box: fill-box; transform-origin: 50% 50%;"/>
  <path fill="#bf9b30" d="M 106.199 79 C 106.133 78.964 106.16 78.773 106.278 78.5 C 106.395 78.23 106.606 77.875 106.91 77.535 C 107.215 77.195 107.555 76.945 107.821 76.808 C 107.891 76.773 107.949 76.746 108.008 76.722 C 108.067 76.703 108.117 76.687 108.16 76.679 C 108.246 76.664 108.301 76.671 108.321 76.703 C 108.34 76.734 108.321 76.789 108.274 76.859 C 108.25 76.894 108.219 76.933 108.18 76.972 C 108.141 77.019 108.102 77.066 108.051 77.117 C 107.86 77.32 107.598 77.585 107.317 77.898 C 107.039 78.21 106.793 78.503 106.602 78.71 C 106.407 78.921 106.262 79.039 106.199 79" fill-opacity="1" fill-rule="nonzero" style="transform-box: fill-box; transform-origin: 50% 50%;"/>
  <path fill="#bf9b30" d="M 105.242 83.172 C 105.149 82.696 105.141 82.207 105.207 81.731 C 105.246 81.492 105.297 81.258 105.371 81.028 C 105.446 80.801 105.539 80.578 105.641 80.356 C 106.047 79.473 106.528 78.614 107.168 77.899 C 107.211 77.848 107.223 77.793 107.196 77.766 L 107.047 77.633 C 107.016 77.606 106.957 77.625 106.914 77.676 C 106.266 78.453 105.805 79.348 105.422 80.258 C 105.325 80.489 105.239 80.723 105.168 80.965 C 105.098 81.207 105.051 81.457 105.02 81.707 C 104.965 82.207 104.992 82.711 105.106 83.2 C 105.141 83.352 105.27 83.317 105.242 83.172" fill-opacity="1" fill-rule="nonzero" style="transform-box: fill-box; transform-origin: 50% 50%;"/>
  <path fill="#bf9b30" d="M 107.402 79.16 C 107.348 79.105 107.418 78.934 107.594 78.699 C 107.77 78.469 108.059 78.18 108.437 77.937 C 108.812 77.691 109.207 77.547 109.5 77.5 C 109.574 77.488 109.641 77.476 109.699 77.476 C 109.762 77.476 109.812 77.476 109.855 77.484 C 109.941 77.496 109.992 77.519 110 77.559 C 110.008 77.594 109.973 77.641 109.906 77.691 C 109.875 77.715 109.832 77.742 109.785 77.769 C 109.738 77.797 109.684 77.832 109.625 77.863 C 109.391 77.996 109.074 78.172 108.734 78.394 C 108.395 78.613 108.09 78.832 107.855 78.984 C 107.625 79.133 107.457 79.211 107.402 79.16" fill-opacity="1" fill-rule="nonzero" style="transform-box: fill-box; transform-origin: 50% 50%;"/>
  <path fill="#bf9b30" d="M 105.336 82.824 C 105.363 82.356 105.523 81.903 105.75 81.488 C 105.973 81.07 106.258 80.688 106.555 80.317 C 107.152 79.574 107.809 78.867 108.59 78.352 C 108.645 78.317 108.668 78.266 108.648 78.231 L 108.539 78.063 C 108.52 78.031 108.457 78.035 108.402 78.07 C 107.59 78.649 106.945 79.399 106.367 80.168 C 106.078 80.559 105.797 80.961 105.582 81.403 C 105.363 81.84 105.207 82.32 105.195 82.82 C 105.191 82.973 105.324 82.969 105.336 82.824" fill-opacity="1" fill-rule="nonzero" style="transform-box: fill-box; transform-origin: 50% 50%;"/>
  <path fill="#bf9b30" d="M 107.633 80.312 C 107.594 80.25 107.676 80.109 107.855 79.945 C 108.035 79.777 108.312 79.589 108.644 79.433 C 108.98 79.281 109.304 79.191 109.547 79.16 C 109.789 79.132 109.949 79.16 109.969 79.23 C 110.008 79.378 109.5 79.64 108.875 79.929 C 108.25 80.214 107.722 80.437 107.633 80.312" fill-opacity="1" fill-rule="nonzero" style="transform-box: fill-box; transform-origin: 50% 50%;"/>
  <path fill="#bf9b30" d="M 105.266 82.898 C 105.289 82.715 105.391 82.547 105.508 82.394 C 105.629 82.242 105.766 82.094 105.903 81.949 C 106.172 81.656 106.457 81.379 106.758 81.125 C 107.364 80.609 108.036 80.183 108.754 79.863 C 108.801 79.84 108.829 79.793 108.813 79.758 L 108.731 79.578 C 108.711 79.543 108.657 79.531 108.61 79.555 C 107.875 79.922 107.2 80.39 106.602 80.945 C 106.301 81.219 106.024 81.515 105.762 81.82 C 105.629 81.976 105.5 82.129 105.375 82.297 C 105.258 82.465 105.149 82.66 105.125 82.883 C 105.121 83.023 105.254 83.008 105.266 82.898" fill-opacity="1" fill-rule="nonzero" style="transform-box: fill-box; transform-origin: 50% 50%;"/>
  <path fill="#bf9b30" d="M 106.949 81.563 C 106.879 81.43 107.16 81.137 107.606 80.962 C 108.051 80.782 108.457 80.805 108.492 80.954 C 108.531 81.098 108.215 81.305 107.805 81.466 C 107.395 81.63 107.024 81.696 106.949 81.563" fill-opacity="1" fill-rule="nonzero" style="transform-box: fill-box; transform-origin: 50% 50%;"/>
  <path fill="#bf9b30" d="M 105.239 83.02 C 105.309 82.797 105.528 82.645 105.727 82.485 C 105.927 82.328 106.138 82.184 106.352 82.047 C 106.782 81.778 107.239 81.555 107.716 81.379 C 107.747 81.367 107.763 81.328 107.747 81.293 L 107.673 81.11 C 107.661 81.071 107.622 81.051 107.591 81.067 C 107.106 81.281 106.645 81.543 106.22 81.852 C 106.005 82.004 105.802 82.168 105.606 82.34 C 105.509 82.43 105.411 82.516 105.317 82.617 C 105.227 82.715 105.141 82.836 105.106 82.985 C 105.087 83.078 105.223 83.086 105.239 83.02" fill-opacity="1" fill-rule="nonzero" style="transform-box: fill-box; transform-origin: 50% 50%;"/>
  <path fill="#bf9b30" d="M 107.75 83.863 C 107.773 83.711 108.219 83.656 108.762 83.664 C 109.301 83.672 109.754 83.762 109.766 83.914 C 109.773 84.063 109.324 84.219 108.75 84.207 C 108.176 84.199 107.723 84.012 107.75 83.863" fill-opacity="1" fill-rule="nonzero" style="transform-box: fill-box; transform-origin: 50% 50%;"/>
  <path fill="#bf9b30" d="M 105.145 82.848 C 105.618 83.278 106.196 83.579 106.805 83.774 C 107.415 83.973 108.051 84.063 108.688 84.094 C 108.731 84.094 108.766 84.063 108.766 84.024 L 108.77 83.829 C 108.77 83.79 108.735 83.754 108.696 83.758 C 108.079 83.758 107.465 83.704 106.872 83.547 C 106.282 83.391 105.712 83.129 105.235 82.743 C 105.161 82.684 105.071 82.782 105.145 82.848" fill-opacity="1" fill-rule="nonzero" style="transform-box: fill-box; transform-origin: 50% 50%;"/>
  <path fill="#bf9b30" d="M 92.977 85.875 C 94.297 84.985 95.895 84.688 97.422 84.36 C 99.083 84.012 100.676 83.395 102.34 83.086 C 102.833 82.993 103.34 82.954 103.84 82.969 C 104.106 82.977 104.372 83 104.637 83.051 C 104.833 83.082 105.02 83.164 105.215 83.11 C 105.258 83.102 105.274 83.047 105.243 83.016 C 105.008 82.778 104.497 82.786 104.18 82.762 C 103.739 82.731 103.297 82.75 102.856 82.801 C 101.977 82.907 101.106 83.106 100.258 83.356 C 99.399 83.602 98.544 83.864 97.672 84.059 C 96.868 84.239 96.055 84.391 95.262 84.622 C 94.407 84.868 93.61 85.231 92.922 85.805 C 92.887 85.836 92.934 85.903 92.977 85.875" fill-opacity="1" fill-rule="nonzero" style="transform-box: fill-box; transform-origin: 50% 50%;"/>
  <path fill="#bf9b30" d="M 95.051 74.766 C 95.907 73.196 97.274 72.086 98.583 70.911 C 99.301 70.266 100.012 69.614 100.747 68.985 C 101.481 68.356 102.255 67.801 103.036 67.239 C 103.907 66.61 104.883 66.149 105.786 65.579 C 105.844 65.543 105.794 65.461 105.731 65.489 C 104.848 65.887 104.012 66.375 103.165 66.848 C 102.325 67.317 101.548 67.852 100.801 68.457 C 100.016 69.098 99.274 69.793 98.52 70.473 C 97.821 71.102 97.102 71.715 96.438 72.383 C 95.77 73.055 95.153 73.782 94.93 74.715 C 94.915 74.789 95.016 74.836 95.051 74.766" fill-opacity="1" fill-rule="nonzero" style="transform-box: fill-box; transform-origin: 50% 50%;"/>
  <path fill="#bf9b30" d="M 96.02 73.098 C 96.043 73.024 95.95 72.981 95.899 73.028 C 95.715 73.18 95.571 73.384 95.395 73.551 C 95.215 73.719 95.016 73.868 94.825 74.028 C 94.446 74.344 94.125 74.696 93.926 75.153 C 93.731 75.591 93.735 76.239 94.286 76.411 C 94.758 76.559 95.207 76.184 95.364 75.762 C 95.465 75.481 95.481 75.169 95.512 74.876 C 95.551 74.52 95.598 74.165 95.614 73.809 C 95.618 73.77 95.606 73.739 95.594 73.716 C 95.614 73.692 95.637 73.669 95.657 73.645 C 95.801 73.481 95.957 73.309 96.02 73.098" fill-opacity="1" fill-rule="nonzero" style="transform-box: fill-box; transform-origin: 50% 50%;"/>
  <path fill="#bf9b30" d="M 94.578 84.883 C 94.313 84.852 94.063 84.887 93.801 84.93 C 93.543 84.973 93.285 85.02 93.035 85.09 C 92.535 85.231 92.063 85.434 91.652 85.758 C 91.457 85.91 91.262 86.078 91.297 86.352 C 91.328 86.571 91.496 86.758 91.695 86.836 C 92.195 87.035 92.731 86.606 93.094 86.313 C 93.535 85.961 93.941 85.547 94.465 85.313 C 94.539 85.282 94.566 85.215 94.566 85.153 C 94.59 85.141 94.617 85.133 94.645 85.125 C 94.777 85.067 94.688 84.895 94.578 84.883" fill-opacity="1" fill-rule="nonzero" style="transform-box: fill-box; transform-origin: 50% 50%;"/>
</svg>