<svg xmlns="http://www.w3.org/2000/svg" xmlns:xlink="http://www.w3.org/1999/xlink" width="100" zoomAndPan="magnify" viewBox="0 0 75 225" height="300" preserveAspectRatio="xMidYMid meet" version="1.0"><defs><clipPath id="689f8ac1bb"><path d="M 2 0 L 58 0 L 58 79 L 2 79 Z M 2 0 " clip-rule="nonzero"/></clipPath><clipPath id="238e30add0"><path d="M 1.929688 1.058594 L 69.410156 -0.542969 L 74.71875 223.644531 L 7.238281 225.242188 Z M 1.929688 1.058594 " clip-rule="nonzero"/></clipPath><clipPath id="aa5781ddc8"><path d="M 1.929688 1.058594 L 69.410156 -0.542969 L 74.71875 223.644531 L 7.238281 225.242188 Z M 1.929688 1.058594 " clip-rule="nonzero"/></clipPath><clipPath id="5aacde9fa6"><path d="M 11 29 L 43 29 L 43 95 L 11 95 Z M 11 29 " clip-rule="nonzero"/></clipPath><clipPath id="2744146f86"><path d="M 1.929688 1.058594 L 69.410156 -0.542969 L 74.71875 223.644531 L 7.238281 225.242188 Z M 1.929688 1.058594 " clip-rule="nonzero"/></clipPath><clipPath id="cea2c9698b"><path d="M 1.929688 1.058594 L 69.410156 -0.542969 L 74.71875 223.644531 L 7.238281 225.242188 Z M 1.929688 1.058594 " clip-rule="nonzero"/></clipPath><clipPath id="a01fec7670"><path d="M 20 40 L 44 40 L 44 46 L 20 46 Z M 20 40 " clip-rule="nonzero"/></clipPath><clipPath id="93ba6c38fc"><path d="M 1.929688 1.058594 L 69.410156 -0.542969 L 74.71875 223.644531 L 7.238281 225.242188 Z M 1.929688 1.058594 " clip-rule="nonzero"/></clipPath><clipPath id="fe7afdf3d8"><path d="M 1.929688 1.058594 L 69.410156 -0.542969 L 74.71875 223.644531 L 7.238281 225.242188 Z M 1.929688 1.058594 " clip-rule="nonzero"/></clipPath><clipPath id="8aa38e1945"><path d="M 32 28 L 39 28 L 39 40 L 32 40 Z M 32 28 " clip-rule="nonzero"/></clipPath><clipPath id="09faf0e6ea"><path d="M 1.929688 1.058594 L 69.410156 -0.542969 L 74.71875 223.644531 L 7.238281 225.242188 Z M 1.929688 1.058594 " clip-rule="nonzero"/></clipPath><clipPath id="4c4b2c0e36"><path d="M 1.929688 1.058594 L 69.410156 -0.542969 L 74.71875 223.644531 L 7.238281 225.242188 Z M 1.929688 1.058594 " clip-rule="nonzero"/></clipPath><clipPath id="aa47bd9bf1"><path d="M 7 82 L 46 82 L 46 158 L 7 158 Z M 7 82 " clip-rule="nonzero"/></clipPath><clipPath id="92b30c46d4"><path d="M 1.929688 1.058594 L 69.410156 -0.542969 L 74.71875 223.644531 L 7.238281 225.242188 Z M 1.929688 1.058594 " clip-rule="nonzero"/></clipPath><clipPath id="98139c72ee"><path d="M 1.929688 1.058594 L 69.410156 -0.542969 L 74.71875 223.644531 L 7.238281 225.242188 Z M 1.929688 1.058594 " clip-rule="nonzero"/></clipPath><clipPath id="03b98c3b2c"><path d="M 44 81 L 60 81 L 60 169 L 44 169 Z M 44 81 " clip-rule="nonzero"/></clipPath><clipPath id="cc7eee2cc7"><path d="M 1.929688 1.058594 L 69.410156 -0.542969 L 74.71875 223.644531 L 7.238281 225.242188 Z M 1.929688 1.058594 " clip-rule="nonzero"/></clipPath><clipPath id="6af77a451a"><path d="M 1.929688 1.058594 L 69.410156 -0.542969 L 74.71875 223.644531 L 7.238281 225.242188 Z M 1.929688 1.058594 " clip-rule="nonzero"/></clipPath><clipPath id="596963f446"><path d="M 35 89 L 75 89 L 75 224 L 35 224 Z M 35 89 " clip-rule="nonzero"/></clipPath><clipPath id="b8c8a32fd0"><path d="M 1.929688 1.058594 L 69.410156 -0.542969 L 74.71875 223.644531 L 7.238281 225.242188 Z M 1.929688 1.058594 " clip-rule="nonzero"/></clipPath><clipPath id="76c9746db0"><path d="M 1.929688 1.058594 L 69.410156 -0.542969 L 74.71875 223.644531 L 7.238281 225.242188 Z M 1.929688 1.058594 " clip-rule="nonzero"/></clipPath><clipPath id="44db764238"><path d="M 33.941406 87.175781 L 71.695312 86.28125 L 74.953125 223.804688 L 37.199219 224.699219 Z M 33.941406 87.175781 " clip-rule="nonzero"/></clipPath></defs><g clip-path="url(#689f8ac1bb)"><g clip-path="url(#238e30add0)"><g clip-path="url(#aa5781ddc8)"><path fill="#bf9b30" d="M 17.628906 8.515625 C 16.386719 6.382812 14.878906 4.300781 12.945312 2.757812 C 11.984375 2.003906 10.855469 1.390625 9.660156 1.335938 C 8.484375 1.28125 7.304688 1.847656 6.429688 2.648438 C 4.65625 4.277344 3.761719 6.742188 3.570312 9.113281 C 3.394531 11.527344 3.992188 13.9375 4.90625 16.191406 C 8.6875 25.273438 16.339844 32.5 25.367188 36.175781 C 27.632812 37.074219 29.984375 37.738281 32.378906 38.195312 C 34.804688 38.625 37.105469 38.679688 39.785156 38.894531 C 41.105469 39.054688 42.515625 39.296875 43.835938 40.140625 C 45.171875 40.953125 46.046875 42.605469 46.121094 44.058594 C 46.316406 46.921875 45.351562 49.601562 43.871094 51.8125 C 40.941406 56.277344 36.445312 59.054688 33.101562 62.542969 C 31.429688 64.316406 29.945312 66.289062 29.015625 68.496094 C 28.070312 70.691406 27.875 73.179688 28.820312 75.359375 L 27.796875 75.589844 C 27.828125 70.566406 30.714844 65.8125 34.992188 63.367188 C 37.148438 62.152344 39.621094 61.761719 41.382812 60.265625 C 42.257812 59.53125 42.730469 58.492188 43.21875 57.382812 C 43.671875 56.277344 44.433594 55.109375 45.53125 54.4375 C 47.683594 53.054688 50.238281 52.902344 52.164062 51.707031 C 54.15625 50.601562 54.855469 48.257812 55.371094 45.976562 C 56.472656 41.398438 56.5 36.621094 55.714844 32.023438 C 54.921875 27.40625 53.125 23.019531 50.652344 19.074219 C 48.136719 15.160156 44.746094 11.789062 40.851562 9.15625 C 36.949219 6.527344 32.484375 4.6875 27.804688 3.835938 C 26.640625 3.617188 25.4375 3.488281 24.269531 3.433594 C 23.125 3.410156 22.09375 4.113281 21.402344 5.046875 C 20.6875 5.976562 20.210938 7.078125 19.730469 8.175781 C 19.460938 8.71875 19.328125 9.300781 18.824219 9.785156 C 18.695312 9.921875 18.371094 9.894531 18.269531 9.75 C 18.140625 9.628906 18.054688 9.488281 17.988281 9.351562 C 17.832031 9.082031 17.734375 8.792969 17.628906 8.515625 Z M 17.824219 8.425781 C 17.9375 8.714844 18.042969 8.992188 18.183594 9.246094 C 18.320312 9.484375 18.527344 9.75 18.679688 9.582031 C 19.042969 9.234375 19.242188 8.59375 19.480469 8.066406 C 19.933594 6.960938 20.394531 5.832031 21.125 4.839844 C 21.820312 3.847656 22.96875 3.015625 24.269531 3.019531 C 25.492188 3.066406 26.679688 3.160156 27.882812 3.3125 C 32.683594 3.921875 37.355469 5.566406 41.546875 8.066406 C 45.769531 10.53125 49.410156 13.996094 52.160156 18.078125 C 54.957031 22.148438 56.660156 26.902344 57.460938 31.734375 C 58.21875 36.589844 57.890625 41.589844 56.589844 46.296875 C 56.261719 47.460938 55.90625 48.644531 55.304688 49.777344 C 54.738281 50.910156 53.785156 51.941406 52.640625 52.53125 C 50.382812 53.726562 47.886719 53.859375 45.953125 55.082031 C 43.859375 56.148438 43.871094 59.070312 41.800781 60.75 C 39.835938 62.386719 37.339844 62.808594 35.347656 63.988281 C 31.296875 66.320312 28.707031 70.976562 28.867188 75.574219 L 28.953125 78.121094 L 27.84375 75.804688 C 26.679688 73.355469 26.816406 70.449219 27.761719 68.011719 C 28.703125 65.539062 30.191406 63.367188 31.917969 61.449219 C 33.632812 59.496094 35.640625 57.917969 37.421875 56.210938 C 39.226562 54.511719 40.941406 52.742188 42.222656 50.75 C 43.511719 48.78125 44.234375 46.453125 44.066406 44.273438 C 43.960938 43.226562 43.496094 42.449219 42.679688 41.933594 C 41.855469 41.40625 40.722656 41.183594 39.5625 41.0625 C 37.234375 40.910156 34.492188 40.882812 31.972656 40.398438 C 29.4375 39.894531 26.9375 39.175781 24.539062 38.207031 C 14.96875 34.335938 6.960938 26.457031 3.558594 16.695312 C 2.730469 14.257812 2.238281 11.621094 2.574219 9.011719 C 2.929688 6.4375 4 3.878906 6.039062 2.183594 C 7.0625 1.355469 8.347656 0.820312 9.691406 0.890625 C 11.027344 0.980469 12.203125 1.675781 13.179688 2.46875 C 15.140625 4.113281 16.597656 6.214844 17.824219 8.425781 " fill-opacity="1" fill-rule="nonzero"/></g></g></g><g clip-path="url(#5aacde9fa6)"><g clip-path="url(#2744146f86)"><g clip-path="url(#cea2c9698b)"><path fill="#bf9b30" d="M 11.964844 29.746094 C 13.699219 32.015625 15.398438 34.277344 17.492188 36.082031 C 18.535156 37 19.671875 37.800781 20.796875 38.617188 C 22.078125 39.53125 23.09375 40.742188 23.851562 42.039062 C 25.402344 44.625 26.238281 47.4375 26.902344 50.226562 C 27.53125 53.085938 27.75 55.976562 27.816406 58.832031 C 27.992188 64.511719 28.011719 70.265625 29.515625 75.675781 C 30.867188 81.121094 34.515625 85.472656 36.738281 91.015625 L 34.6875 91.023438 C 35.527344 88.496094 36.429688 85.980469 37.355469 83.46875 C 38.28125 80.945312 39.210938 78.574219 39.546875 76.027344 C 39.917969 73.460938 39.9375 70.785156 40.269531 68.09375 C 40.5625 65.414062 41.199219 62.636719 42.710938 60.371094 L 42.894531 60.476562 C 41.808594 62.917969 41.566406 65.546875 41.511719 68.171875 C 41.492188 70.804688 41.636719 73.484375 41.40625 76.238281 C 41.238281 79.023438 40.328125 81.734375 39.460938 84.222656 C 38.582031 86.742188 37.691406 89.261719 36.746094 91.757812 L 35.671875 94.582031 L 34.6875 91.765625 C 33.800781 89.207031 32.410156 86.746094 31.132812 84.179688 C 29.847656 81.625 28.753906 78.820312 28.289062 75.960938 C 27.257812 70.25 27.585938 64.519531 26.914062 58.890625 C 26.566406 56.085938 26.078125 53.308594 25.230469 50.679688 C 24.390625 48 23.582031 45.304688 22.277344 42.960938 C 21.609375 41.800781 20.816406 40.753906 19.8125 39.949219 C 18.671875 39.066406 17.589844 38.089844 16.582031 37.039062 C 14.511719 34.933594 13.0625 32.394531 11.785156 29.859375 L 11.964844 29.746094 " fill-opacity="1" fill-rule="nonzero"/></g></g></g><g clip-path="url(#a01fec7670)"><g clip-path="url(#93ba6c38fc)"><g clip-path="url(#fe7afdf3d8)"><path fill="#bf9b30" d="M 20.632812 40.085938 C 22.761719 40.011719 24.714844 40.378906 26.585938 41.089844 C 27.503906 41.488281 28.378906 42.078125 29.320312 42.398438 C 30.273438 42.730469 31.269531 42.839844 32.28125 42.863281 C 34.292969 42.890625 36.15625 42.921875 38.058594 42.8125 C 39.941406 42.792969 41.785156 42.648438 43.867188 42.40625 L 43.953125 42.597656 C 42.421875 44.109375 40.28125 44.851562 38.183594 45.070312 C 36.082031 45.183594 33.925781 44.863281 32.035156 44.003906 C 31.082031 43.605469 30.144531 43.238281 29.148438 43.0625 C 28.167969 42.871094 27.109375 42.9375 26.105469 42.789062 C 24.125 42.386719 22.25 41.59375 20.566406 40.296875 L 20.632812 40.085938 " fill-opacity="1" fill-rule="nonzero"/></g></g></g><g clip-path="url(#8aa38e1945)"><g clip-path="url(#09faf0e6ea)"><g clip-path="url(#4c4b2c0e36)"><path fill="#bf9b30" d="M 37.4375 39.789062 C 36.722656 37.984375 36.417969 36.234375 36.449219 34.421875 C 36.519531 33.519531 36.789062 32.59375 36.765625 31.695312 C 36.753906 31.246094 36.703125 30.773438 36.613281 30.363281 C 36.503906 29.929688 36.3125 30.007812 36.074219 30.0625 C 35.148438 30.511719 35.019531 32.40625 34.679688 34.066406 C 34.304688 35.738281 34.015625 37.421875 33.554688 39.277344 L 33.339844 39.304688 C 32.445312 37.570312 32.234375 35.601562 32.453125 33.699219 C 32.605469 32.726562 32.847656 31.867188 33.277344 30.898438 C 33.507812 30.421875 33.792969 29.917969 34.265625 29.5 C 34.734375 29.09375 35.382812 28.828125 36.0625 28.902344 C 36.394531 28.945312 36.753906 29.070312 37.011719 29.371094 C 37.265625 29.667969 37.296875 30.015625 37.320312 30.257812 C 37.332031 30.734375 37.375 31.171875 37.453125 31.625 C 37.597656 32.527344 38.015625 33.402344 38.210938 34.300781 C 38.503906 36.105469 38.394531 37.96875 37.644531 39.792969 L 37.4375 39.789062 " fill-opacity="1" fill-rule="nonzero"/></g></g></g><g clip-path="url(#aa47bd9bf1)"><g clip-path="url(#92b30c46d4)"><g clip-path="url(#98139c72ee)"><path fill="#bf9b30" d="M 30.175781 127.953125 C 33.191406 131.714844 34.488281 136.46875 36.515625 140.683594 C 37.515625 142.761719 39.058594 144.519531 40.566406 146.371094 C 42.074219 148.207031 43.546875 150.265625 44.335938 152.738281 L 45.71875 157.085938 L 42.660156 153.640625 C 38.246094 148.695312 32.300781 145.394531 26.636719 141.480469 C 23.824219 139.46875 21.097656 137.238281 18.800781 134.554688 C 16.507812 131.878906 14.75 128.847656 13.171875 125.808594 C 11.59375 122.773438 10.078125 119.648438 9.097656 116.300781 C 8.03125 112.957031 8.039062 109.425781 8.011719 106.039062 C 8.003906 99.226562 7.753906 92.414062 7.402344 85.601562 L 7.269531 82.882812 L 8.578125 85.308594 C 10.515625 88.886719 12.367188 92.535156 13.902344 96.308594 C 15.484375 100.070312 16.855469 103.917969 17.933594 107.847656 C 19.03125 111.765625 19.800781 115.742188 21.917969 119.136719 C 23.988281 122.570312 27.632812 124.769531 30.175781 127.953125 Z M 30.003906 128.082031 C 27.46875 124.929688 23.8125 122.90625 21.324219 119.546875 C 18.859375 116.171875 17.679688 112.117188 16.359375 108.339844 C 15.035156 104.53125 13.679688 100.75 12.214844 96.992188 C 10.703125 93.261719 9.199219 89.523438 7.472656 85.875 L 8.652344 85.582031 C 8.539062 92.402344 8.519531 99.214844 8.746094 106.03125 C 8.792969 109.433594 9.046875 112.816406 10.199219 115.953125 C 11.300781 119.113281 13.007812 122.035156 14.648438 125.003906 C 16.324219 127.933594 18.128906 130.769531 20.316406 133.246094 C 22.511719 135.699219 25.132812 137.765625 27.910156 139.652344 C 33.375 143.503906 39.640625 146.851562 44.144531 152.378906 L 42.460938 153.28125 C 41.375 149.011719 37.496094 145.640625 35.671875 141.050781 C 34.792969 138.8125 34.175781 136.515625 33.328125 134.308594 C 32.503906 132.097656 31.46875 129.941406 30.003906 128.082031 " fill-opacity="1" fill-rule="nonzero"/></g></g></g><g clip-path="url(#03b98c3b2c)"><g clip-path="url(#cc7eee2cc7)"><g clip-path="url(#6af77a451a)"><path fill="#bf9b30" d="M 47.039062 166.347656 C 46.882812 162.746094 48.390625 159.378906 48.898438 155.949219 C 49.386719 152.476562 49.816406 148.925781 49.089844 145.597656 C 48.398438 142.304688 46.375 139.347656 45.355469 135.769531 C 44.261719 132.265625 44.027344 128.59375 44.066406 125.007812 C 44.210938 117.835938 45.269531 110.777344 46.992188 103.859375 C 48.707031 96.957031 51.121094 90.21875 54.265625 83.84375 L 55.53125 81.273438 L 55.503906 84.105469 C 55.445312 91.707031 53.925781 99.140625 54.566406 106.609375 C 55.039062 114.113281 59.179688 120.769531 59.738281 128.601562 C 59.96875 132.472656 59.429688 136.292969 58.832031 139.996094 C 58.214844 143.703125 57.550781 147.402344 56.808594 151.085938 C 56.070312 154.753906 55.441406 158.550781 53.890625 162.054688 C 53.105469 163.789062 52.117188 165.453125 50.785156 166.8125 C 50.105469 167.460938 49.484375 168.226562 48.5 168.535156 C 47.949219 168.730469 47.433594 168.203125 47.3125 167.757812 C 47.144531 167.296875 47.09375 166.820312 47.039062 166.347656 Z M 47.253906 166.328125 C 47.308594 166.789062 47.367188 167.25 47.527344 167.679688 C 47.675781 168.097656 48.015625 168.445312 48.445312 168.292969 C 49.273438 168.027344 49.949219 167.28125 50.566406 166.613281 C 51.8125 165.226562 52.726562 163.582031 53.355469 161.835938 C 54.625 158.339844 54.980469 154.605469 55.449219 150.871094 C 55.882812 147.136719 56.414062 143.414062 56.980469 139.703125 C 57.5625 136.003906 58.164062 132.332031 58.035156 128.683594 C 57.910156 121.363281 54.332031 114.285156 53.886719 106.667969 C 53.34375 99.097656 54.558594 91.570312 54.207031 84.136719 L 55.445312 84.390625 C 52.71875 90.851562 50.535156 97.515625 48.964844 104.332031 C 48.195312 107.734375 47.589844 111.175781 47.148438 114.636719 C 46.691406 118.09375 46.320312 121.585938 46.246094 125.050781 C 46.152344 128.503906 46.449219 131.9375 47.253906 135.246094 C 48.003906 138.507812 49.949219 141.648438 50.410156 145.378906 C 50.894531 149.042969 50.183594 152.609375 49.453125 156.046875 C 48.691406 159.515625 47.128906 162.804688 47.253906 166.328125 " fill-opacity="1" fill-rule="nonzero"/></g></g></g><g clip-path="url(#596963f446)"><g clip-path="url(#b8c8a32fd0)"><g clip-path="url(#76c9746db0)"><g clip-path="url(#44db764238)"><path fill="#bf9b30" d="M 35.75 89.109375 C 36.503906 101.042969 39.773438 112.480469 42.046875 124.230469 C 43.128906 130.113281 43.839844 136.089844 44.296875 142.054688 C 44.492188 145.039062 44.695312 148.019531 44.832031 151.003906 C 44.976562 153.980469 45.03125 156.992188 45.445312 159.878906 C 45.863281 162.769531 47.078125 165.4375 48.113281 168.269531 C 49.230469 171.082031 49.890625 174.144531 50.347656 177.089844 C 50.84375 180.039062 51.273438 182.945312 52.214844 185.671875 C 53.117188 188.410156 54.320312 191.066406 55.765625 193.605469 C 58.609375 198.71875 62.207031 203.46875 65.640625 208.371094 C 67.363281 210.8125 68.996094 213.351562 70.488281 215.945312 C 72.050781 218.554688 72.984375 221.414062 74.957031 223.65625 L 74.804688 223.808594 C 72.585938 221.722656 71.261719 218.914062 69.574219 216.515625 C 67.945312 214.054688 66.117188 211.703125 64.308594 209.34375 C 60.6875 204.636719 56.816406 200.011719 53.796875 194.71875 C 52.300781 192.074219 50.984375 189.273438 50.105469 186.324219 C 49.171875 183.375 48.804688 180.320312 48.378906 177.390625 C 47.960938 174.4375 47.488281 171.609375 46.527344 168.820312 C 45.601562 166.027344 44.5625 163.097656 44.300781 160.023438 C 43.996094 156.984375 44.222656 154.007812 44.085938 151.03125 C 44.015625 148.054688 43.898438 145.078125 43.570312 142.113281 C 43.046875 136.175781 41.660156 130.382812 40.324219 124.585938 C 37.757812 113.023438 34.851562 101.148438 35.535156 89.105469 L 35.75 89.109375 " fill-opacity="1" fill-rule="nonzero"/></g></g></g></g></svg>