<svg xmlns="http://www.w3.org/2000/svg" xmlns:xlink="http://www.w3.org/1999/xlink" width="500" zoomAndPan="magnify" viewBox="0 0 375 374.999991" height="500" preserveAspectRatio="xMidYMid meet" version="1.0"><defs><g/><clipPath id="2cbc97843d"><rect x="0" width="142" y="0" height="19"/></clipPath></defs><g fill="#f2e8da" fill-opacity="1"><g transform="translate(102.891459, 295.613227)"><g><path d="M 71.28125 -33.5 C 69.8125 -28.957031 67.738281 -24.507812 65.0625 -20.15625 C 62.394531 -15.800781 59.289062 -11.828125 55.75 -8.234375 C 51.269531 -3.691406 46.578125 -0.207031 41.671875 2.21875 C 36.773438 4.644531 31.96875 5.859375 27.25 5.859375 C 23.738281 5.859375 20.476562 5.195312 17.46875 3.875 C 13.695312 2.269531 10.5625 0.296875 8.0625 -2.046875 C 5.5625 -4.390625 3.765625 -7.007812 2.671875 -9.90625 C 1.578125 -12.8125 1.25 -15.890625 1.6875 -19.140625 C 2.082031 -22.191406 3.15625 -25.164062 4.90625 -28.0625 C 6.664062 -30.96875 8.984375 -33.613281 11.859375 -36 C 12.773438 -36.78125 13.75 -37.515625 14.78125 -38.203125 C 15.820312 -38.890625 16.90625 -39.550781 18.03125 -40.1875 C 18.257812 -43.144531 18.566406 -46.144531 18.953125 -49.1875 C 19.335938 -52.238281 19.804688 -55.304688 20.359375 -58.390625 C 20.242188 -67.671875 20.289062 -77.113281 20.5 -86.71875 C 20.71875 -96.320312 21.085938 -106.007812 21.609375 -115.78125 C 21.609375 -116.09375 21.722656 -116.363281 21.953125 -116.59375 C 22.097656 -116.6875 22.234375 -116.757812 22.359375 -116.8125 C 22.484375 -116.875 22.617188 -116.890625 22.765625 -116.859375 C 23.085938 -116.859375 23.351562 -116.742188 23.5625 -116.515625 C 23.78125 -116.285156 23.875 -116.007812 23.84375 -115.6875 C 23.445312 -107.875 23.140625 -100.085938 22.921875 -92.328125 C 22.703125 -84.566406 22.578125 -76.90625 22.546875 -69.34375 C 23.328125 -72.675781 24.066406 -75.578125 24.765625 -78.046875 C 25.472656 -80.523438 26.054688 -82.46875 26.515625 -83.875 C 26.972656 -85.28125 27.21875 -86.039062 27.25 -86.15625 C 27.445312 -86.90625 27.8125 -87.96875 28.34375 -89.34375 C 28.882812 -90.726562 29.519531 -92.289062 30.25 -94.03125 C 30.976562 -95.769531 31.757812 -97.515625 32.59375 -99.265625 C 33.257812 -100.703125 33.898438 -101.988281 34.515625 -103.125 C 35.140625 -104.257812 35.707031 -105.226562 36.21875 -106.03125 C 37.019531 -107.269531 37.726562 -108.132812 38.34375 -108.625 C 38.96875 -109.113281 39.566406 -109.285156 40.140625 -109.140625 C 40.484375 -109.054688 40.785156 -108.863281 41.046875 -108.5625 C 41.304688 -108.257812 41.5 -107.710938 41.625 -106.921875 C 41.757812 -106.128906 41.769531 -104.976562 41.65625 -103.46875 C 41.539062 -101.957031 41.28125 -99.953125 40.875 -97.453125 C 40.476562 -94.953125 39.890625 -91.832031 39.109375 -88.09375 C 38.222656 -84.15625 37.332031 -80.738281 36.4375 -77.84375 C 35.539062 -74.957031 34.851562 -72.796875 34.375 -71.359375 C 34.226562 -70.960938 34.085938 -70.578125 33.953125 -70.203125 C 33.828125 -69.828125 33.691406 -69.46875 33.546875 -69.125 C 34.785156 -69.925781 36.238281 -70.757812 37.90625 -71.625 C 39.570312 -72.488281 41.378906 -73.25 43.328125 -73.90625 C 45.285156 -74.570312 47.328125 -75.019531 49.453125 -75.25 C 51.585938 -75.476562 53.734375 -75.347656 55.890625 -74.859375 C 62.359375 -73.390625 67.390625 -68.644531 70.984375 -60.625 C 72.703125 -56.800781 73.582031 -52.582031 73.625 -47.96875 C 73.664062 -43.351562 72.882812 -38.53125 71.28125 -33.5 Z M 22.546875 -1.546875 C 22.722656 -2.359375 22.832031 -3.695312 22.875 -5.5625 C 22.914062 -7.425781 22.75 -9.910156 22.375 -13.015625 C 22.351562 -13.078125 22.160156 -15.34375 21.796875 -19.8125 C 21.441406 -24.28125 21.101562 -30.710938 20.78125 -39.109375 C 20.664062 -39.078125 20.566406 -39.03125 20.484375 -38.96875 C 20.398438 -38.914062 20.300781 -38.863281 20.1875 -38.8125 C 19.832031 -34.125 19.675781 -29.519531 19.71875 -25 C 19.769531 -20.488281 20.023438 -16.125 20.484375 -11.90625 C 20.828125 -8.6875 21.191406 -6.300781 21.578125 -4.75 C 21.972656 -3.195312 22.296875 -2.128906 22.546875 -1.546875 Z M 18.203125 -11.6875 C 17.796875 -15.738281 17.554688 -19.921875 17.484375 -24.234375 C 17.410156 -28.546875 17.519531 -32.957031 17.8125 -37.46875 C 15.21875 -35.914062 12.9375 -34.140625 10.96875 -32.140625 C 9 -30.148438 7.410156 -28.023438 6.203125 -25.765625 C 4.992188 -23.503906 4.234375 -21.195312 3.921875 -18.84375 C 3.347656 -14.5 4.316406 -10.523438 6.828125 -6.921875 C 9.347656 -3.316406 13.195312 -0.40625 18.375 1.8125 C 19.78125 2.414062 21.222656 2.859375 22.703125 3.140625 C 24.179688 3.429688 25.695312 3.578125 27.25 3.578125 C 31.625 3.578125 36.125 2.429688 40.75 0.140625 C 45.375 -2.140625 49.84375 -5.460938 54.15625 -9.828125 C 56.6875 -12.390625 59.035156 -15.25 61.203125 -18.40625 C 63.378906 -21.570312 65.253906 -24.898438 66.828125 -28.390625 C 68.410156 -31.890625 69.597656 -35.441406 70.390625 -39.046875 C 71.179688 -42.648438 71.484375 -46.207031 71.296875 -49.71875 C 71.109375 -53.226562 70.3125 -56.550781 68.90625 -59.6875 C 65.625 -67.039062 61.125 -71.363281 55.40625 -72.65625 C 53.425781 -73.113281 51.441406 -73.21875 49.453125 -72.96875 C 47.472656 -72.726562 45.554688 -72.285156 43.703125 -71.640625 C 41.847656 -70.992188 40.128906 -70.242188 38.546875 -69.390625 C 36.960938 -68.546875 35.585938 -67.734375 34.421875 -66.953125 C 33.265625 -66.179688 32.367188 -65.550781 31.734375 -65.0625 C 31.453125 -64.550781 31.191406 -64.242188 30.953125 -64.140625 C 30.722656 -64.035156 30.492188 -64 30.265625 -64.03125 C 30.015625 -64.03125 29.769531 -64.128906 29.53125 -64.328125 C 29.300781 -64.535156 29.175781 -64.84375 29.15625 -65.25 C 29.09375 -65.644531 29.21875 -65.957031 29.53125 -66.1875 C 29.5625 -66.21875 29.617188 -66.257812 29.703125 -66.3125 C 29.796875 -66.375 29.898438 -66.460938 30.015625 -66.578125 C 30.410156 -67.328125 30.984375 -68.695312 31.734375 -70.6875 C 32.484375 -72.6875 33.3125 -75.210938 34.21875 -78.265625 C 35.125 -81.316406 36.007812 -84.753906 36.875 -88.578125 C 37.53125 -91.703125 38.046875 -94.34375 38.421875 -96.5 C 38.796875 -98.65625 39.0625 -100.410156 39.21875 -101.765625 C 39.375 -103.117188 39.46875 -104.164062 39.5 -104.90625 C 39.53125 -105.65625 39.515625 -106.203125 39.453125 -106.546875 C 39.222656 -106.316406 38.882812 -105.882812 38.4375 -105.25 C 38 -104.625 37.445312 -103.710938 36.78125 -102.515625 C 36.125 -101.328125 35.320312 -99.726562 34.375 -97.71875 C 33.59375 -96.050781 32.859375 -94.40625 32.171875 -92.78125 C 31.484375 -91.15625 30.898438 -89.703125 30.421875 -88.421875 C 29.941406 -87.140625 29.617188 -86.171875 29.453125 -85.515625 C 29.421875 -85.484375 29.40625 -85.457031 29.40625 -85.4375 C 29.40625 -85.425781 29.40625 -85.421875 29.40625 -85.421875 C 29.40625 -85.390625 29.179688 -84.710938 28.734375 -83.390625 C 28.296875 -82.066406 27.738281 -80.207031 27.0625 -77.8125 C 26.382812 -75.414062 25.648438 -72.554688 24.859375 -69.234375 C 24.066406 -65.910156 23.328125 -62.238281 22.640625 -58.21875 C 22.671875 -55.539062 22.707031 -52.894531 22.75 -50.28125 C 22.789062 -47.664062 22.851562 -45.078125 22.9375 -42.515625 C 26.757812 -44.035156 30.828125 -45.097656 35.140625 -45.703125 C 35.460938 -45.765625 35.738281 -45.695312 35.96875 -45.5 C 36.195312 -45.320312 36.335938 -45.078125 36.390625 -44.765625 C 36.453125 -44.441406 36.390625 -44.15625 36.203125 -43.90625 C 36.015625 -43.664062 35.765625 -43.519531 35.453125 -43.46875 C 30.992188 -42.800781 26.851562 -41.691406 23.03125 -40.140625 C 23.226562 -34.484375 23.445312 -29.65625 23.6875 -25.65625 C 23.9375 -21.65625 24.15625 -18.597656 24.34375 -16.484375 C 24.53125 -14.378906 24.625 -13.3125 24.625 -13.28125 C 24.675781 -12.707031 24.753906 -11.898438 24.859375 -10.859375 C 24.960938 -9.828125 25.039062 -8.703125 25.09375 -7.484375 C 25.15625 -6.265625 25.15625 -5.0625 25.09375 -3.875 C 25.039062 -2.695312 24.90625 -1.660156 24.6875 -0.765625 C 24.46875 0.117188 24.113281 0.734375 23.625 1.078125 C 23.132812 1.484375 22.601562 1.554688 22.03125 1.296875 C 20.332031 0.546875 19.054688 -3.78125 18.203125 -11.6875 Z M 20.390625 -41.390625 C 20.453125 -41.421875 20.507812 -41.453125 20.5625 -41.484375 C 20.625 -41.515625 20.671875 -41.539062 20.703125 -41.5625 C 20.703125 -41.96875 20.691406 -42.367188 20.671875 -42.765625 C 20.660156 -43.171875 20.65625 -43.578125 20.65625 -43.984375 C 20.59375 -43.554688 20.546875 -43.125 20.515625 -42.6875 C 20.492188 -42.257812 20.453125 -41.828125 20.390625 -41.390625 Z M 20.390625 -41.390625 "/></g></g></g><g fill="#f2e8da" fill-opacity="1"><g transform="translate(177.309007, 295.613227)"><g><path d="M 25.75 -30.75 C 26.0625 -30.65625 26.296875 -30.476562 26.453125 -30.21875 C 26.609375 -29.96875 26.644531 -29.679688 26.5625 -29.359375 C 26.53125 -29.242188 26.398438 -28.773438 26.171875 -27.953125 C 25.941406 -27.140625 25.601562 -26.109375 25.15625 -24.859375 C 24.71875 -23.609375 24.171875 -22.242188 23.515625 -20.765625 C 22.867188 -19.285156 22.113281 -17.816406 21.25 -16.359375 C 20.394531 -14.910156 19.4375 -13.585938 18.375 -12.390625 C 17.3125 -11.203125 16.128906 -10.238281 14.828125 -9.5 C 13.535156 -8.769531 12.144531 -8.40625 10.65625 -8.40625 C 7.664062 -8.40625 4.945312 -9.628906 2.5 -12.078125 C 0.832031 -13.742188 -0.628906 -15.875 -1.890625 -18.46875 C -3.160156 -21.070312 -4.257812 -23.960938 -5.1875 -27.140625 C -6.125 -30.316406 -6.914062 -33.632812 -7.5625 -37.09375 C -8.207031 -40.5625 -8.738281 -44.015625 -9.15625 -47.453125 C -9.570312 -50.890625 -9.894531 -54.160156 -10.125 -57.265625 C -10.363281 -60.367188 -10.53125 -63.15625 -10.625 -65.625 C -10.726562 -68.101562 -10.789062 -70.101562 -10.8125 -71.625 C -10.84375 -73.144531 -10.859375 -74.035156 -10.859375 -74.296875 C -10.859375 -81.484375 -10.378906 -87.957031 -9.421875 -93.71875 C -8.460938 -99.488281 -7.160156 -104.519531 -5.515625 -108.8125 C -3.878906 -113.113281 -2.046875 -116.648438 -0.015625 -119.421875 C 2.003906 -122.191406 4.078125 -124.171875 6.203125 -125.359375 C 7.734375 -126.191406 9.238281 -126.617188 10.71875 -126.640625 C 12.195312 -126.671875 13.554688 -126.300781 14.796875 -125.53125 C 16.953125 -124.207031 18.550781 -121.828125 19.59375 -118.390625 C 20.644531 -114.953125 21.039062 -110.789062 20.78125 -105.90625 C 20.550781 -101.1875 20.066406 -96.457031 19.328125 -91.71875 C 18.597656 -86.976562 17.71875 -82.320312 16.6875 -77.75 C 15.65625 -73.175781 14.535156 -68.757812 13.328125 -64.5 C 12.117188 -60.25 10.878906 -56.226562 9.609375 -52.4375 C 8.347656 -48.644531 7.148438 -45.164062 6.015625 -42 C 4.878906 -38.832031 3.863281 -36.054688 2.96875 -33.671875 C 2.65625 -32.816406 2.363281 -32.015625 2.09375 -31.265625 C 1.820312 -30.515625 1.570312 -29.835938 1.34375 -29.234375 C 1.25 -28.953125 1.046875 -28.738281 0.734375 -28.59375 C 0.472656 -28.476562 0.1875 -28.460938 -0.125 -28.546875 C -0.238281 -28.597656 -0.359375 -28.675781 -0.484375 -28.78125 C -0.617188 -28.882812 -0.71875 -29.007812 -0.78125 -29.15625 C -0.894531 -29.40625 -0.90625 -29.691406 -0.8125 -30.015625 C -0.582031 -30.648438 -0.320312 -31.332031 -0.03125 -32.0625 C 0.25 -32.789062 0.546875 -33.585938 0.859375 -34.453125 C 1.753906 -36.804688 2.769531 -39.554688 3.90625 -42.703125 C 5.039062 -45.859375 6.222656 -49.3125 7.453125 -53.0625 C 8.691406 -56.8125 9.914062 -60.796875 11.125 -65.015625 C 12.332031 -69.242188 13.445312 -73.625 14.46875 -78.15625 C 15.488281 -82.6875 16.359375 -87.289062 17.078125 -91.96875 C 17.796875 -96.65625 18.269531 -101.332031 18.5 -106 C 18.726562 -110.476562 18.410156 -114.25 17.546875 -117.3125 C 16.679688 -120.375 15.359375 -122.460938 13.578125 -123.578125 C 11.765625 -124.734375 9.679688 -124.664062 7.328125 -123.375 C 5.347656 -122.28125 3.40625 -120.410156 1.5 -117.765625 C -0.394531 -115.117188 -2.101562 -111.734375 -3.625 -107.609375 C -5.144531 -103.484375 -6.359375 -98.640625 -7.265625 -93.078125 C -8.171875 -87.515625 -8.625 -81.253906 -8.625 -74.296875 C -8.625 -74.242188 -8.613281 -73.519531 -8.59375 -72.125 C -8.582031 -70.726562 -8.523438 -68.835938 -8.421875 -66.453125 C -8.328125 -64.066406 -8.164062 -61.34375 -7.9375 -58.28125 C -7.707031 -55.21875 -7.394531 -51.984375 -7 -48.578125 C -6.613281 -45.171875 -6.113281 -41.75 -5.5 -38.3125 C -4.882812 -34.875 -4.128906 -31.570312 -3.234375 -28.40625 C -2.335938 -25.25 -1.28125 -22.398438 -0.0625 -19.859375 C 1.15625 -17.316406 2.554688 -15.253906 4.140625 -13.671875 C 6.097656 -11.679688 8.269531 -10.6875 10.65625 -10.6875 C 11.882812 -10.6875 13.046875 -11.03125 14.140625 -11.71875 C 15.234375 -12.414062 16.242188 -13.332031 17.171875 -14.46875 C 18.109375 -15.601562 18.953125 -16.84375 19.703125 -18.1875 C 20.453125 -19.539062 21.113281 -20.898438 21.6875 -22.265625 C 22.257812 -23.640625 22.75 -24.898438 23.15625 -26.046875 C 23.5625 -27.191406 23.863281 -28.117188 24.0625 -28.828125 C 24.257812 -29.535156 24.359375 -29.898438 24.359375 -29.921875 C 24.453125 -30.242188 24.632812 -30.472656 24.90625 -30.609375 C 25.175781 -30.753906 25.457031 -30.800781 25.75 -30.75 Z M 25.75 -30.75 "/></g></g></g><g fill="#f2e8da" fill-opacity="1"><g transform="translate(202.704108, 295.613227)"><g><path d="M 6.375 -13.625 C 5.945312 -13.625 5.5625 -13.695312 5.21875 -13.84375 C 4.5 -14.125 3.894531 -14.609375 3.40625 -15.296875 C 2.914062 -15.992188 2.519531 -16.75 2.21875 -17.5625 C 1.914062 -18.382812 1.6875 -19.140625 1.53125 -19.828125 C 1.375 -20.523438 1.265625 -21.003906 1.203125 -21.265625 C 1.179688 -21.398438 1.117188 -21.925781 1.015625 -22.84375 C 0.910156 -23.769531 0.929688 -24.863281 1.078125 -26.125 C 0.992188 -26.238281 0.90625 -26.335938 0.8125 -26.421875 C 0.726562 -26.515625 0.660156 -26.617188 0.609375 -26.734375 C -0.941406 -29.003906 -0.882812 -31.273438 0.78125 -33.546875 C 2.300781 -35.765625 3.929688 -37.367188 5.671875 -38.359375 C 7.410156 -39.347656 9.039062 -39.628906 10.5625 -39.203125 C 11.738281 -38.878906 12.691406 -38.148438 13.421875 -37.015625 C 14.160156 -35.878906 14.585938 -34.460938 14.703125 -32.765625 C 14.847656 -30.929688 14.832031 -29.148438 14.65625 -27.421875 C 14.488281 -25.703125 14.203125 -24.09375 13.796875 -22.59375 C 14.398438 -22.539062 14.832031 -22.539062 15.09375 -22.59375 L 15.171875 -22.640625 L 15.265625 -22.640625 C 15.316406 -22.640625 15.601562 -22.703125 16.125 -22.828125 C 16.644531 -22.960938 17.285156 -23.25 18.046875 -23.6875 C 18.804688 -24.132812 19.5625 -24.789062 20.3125 -25.65625 C 21.0625 -26.519531 21.691406 -27.6875 22.203125 -29.15625 C 22.316406 -29.46875 22.519531 -29.695312 22.8125 -29.84375 C 23.101562 -29.988281 23.390625 -30.003906 23.671875 -29.890625 C 23.984375 -29.765625 24.210938 -29.554688 24.359375 -29.265625 C 24.503906 -28.984375 24.519531 -28.6875 24.40625 -28.375 C 23.800781 -26.644531 23.046875 -25.25 22.140625 -24.1875 C 21.234375 -23.125 20.3125 -22.316406 19.375 -21.765625 C 18.445312 -21.222656 17.628906 -20.851562 16.921875 -20.65625 C 16.222656 -20.457031 15.769531 -20.34375 15.5625 -20.3125 C 15.019531 -20.195312 14.171875 -20.222656 13.015625 -20.390625 C 11.953125 -17.804688 10.515625 -15.835938 8.703125 -14.484375 C 8.273438 -14.171875 7.859375 -13.945312 7.453125 -13.8125 C 7.054688 -13.6875 6.695312 -13.625 6.375 -13.625 Z M 3.28125 -24.140625 C 3.28125 -23.421875 3.316406 -22.835938 3.390625 -22.390625 C 3.460938 -21.953125 3.5 -21.71875 3.5 -21.6875 L 3.5 -21.640625 C 3.613281 -20.984375 3.796875 -20.242188 4.046875 -19.421875 C 4.304688 -18.609375 4.609375 -17.875 4.953125 -17.21875 C 5.296875 -16.570312 5.671875 -16.164062 6.078125 -16 C 6.140625 -15.96875 6.269531 -15.953125 6.46875 -15.953125 C 6.664062 -15.953125 6.953125 -16.082031 7.328125 -16.34375 C 8.679688 -17.351562 9.800781 -18.863281 10.6875 -20.875 C 9.488281 -21.1875 8.226562 -21.625 6.90625 -22.1875 C 5.582031 -22.75 4.375 -23.398438 3.28125 -24.140625 Z M 3.53125 -26.90625 C 4.539062 -26.019531 5.789062 -25.238281 7.28125 -24.5625 C 8.78125 -23.882812 10.191406 -23.382812 11.515625 -23.0625 C 11.910156 -24.445312 12.1875 -25.941406 12.34375 -27.546875 C 12.507812 -29.160156 12.519531 -30.84375 12.375 -32.59375 C 12.289062 -33.78125 12.03125 -34.753906 11.59375 -35.515625 C 11.164062 -36.273438 10.609375 -36.753906 9.921875 -36.953125 C 8.941406 -37.242188 7.789062 -36.957031 6.46875 -36.09375 C 5.144531 -35.226562 3.878906 -33.9375 2.671875 -32.21875 C 2.015625 -31.289062 1.753906 -30.394531 1.890625 -29.53125 C 2.148438 -30.25 2.492188 -30.945312 2.921875 -31.625 C 3.359375 -32.300781 3.894531 -32.925781 4.53125 -33.5 C 4.757812 -33.726562 5.035156 -33.835938 5.359375 -33.828125 C 5.691406 -33.816406 5.960938 -33.695312 6.171875 -33.46875 C 6.398438 -33.238281 6.503906 -32.960938 6.484375 -32.640625 C 6.472656 -32.328125 6.351562 -32.054688 6.125 -31.828125 C 5.375 -31.128906 4.796875 -30.347656 4.390625 -29.484375 C 3.992188 -28.628906 3.707031 -27.769531 3.53125 -26.90625 Z M 3.53125 -26.90625 "/></g></g></g><g fill="#f2e8da" fill-opacity="1"><g transform="translate(226.07277, 295.613227)"><g><path d="M 6.375 -13.625 C 5.945312 -13.625 5.5625 -13.695312 5.21875 -13.84375 C 4.5 -14.125 3.894531 -14.609375 3.40625 -15.296875 C 2.914062 -15.992188 2.519531 -16.75 2.21875 -17.5625 C 1.914062 -18.382812 1.6875 -19.140625 1.53125 -19.828125 C 1.375 -20.523438 1.265625 -21.003906 1.203125 -21.265625 C 1.179688 -21.398438 1.117188 -21.925781 1.015625 -22.84375 C 0.910156 -23.769531 0.929688 -24.863281 1.078125 -26.125 C 0.992188 -26.238281 0.90625 -26.335938 0.8125 -26.421875 C 0.726562 -26.515625 0.660156 -26.617188 0.609375 -26.734375 C -0.941406 -29.003906 -0.882812 -31.273438 0.78125 -33.546875 C 2.300781 -35.765625 3.929688 -37.367188 5.671875 -38.359375 C 7.410156 -39.347656 9.039062 -39.628906 10.5625 -39.203125 C 11.738281 -38.878906 12.691406 -38.148438 13.421875 -37.015625 C 14.160156 -35.878906 14.585938 -34.460938 14.703125 -32.765625 C 14.847656 -30.929688 14.832031 -29.148438 14.65625 -27.421875 C 14.488281 -25.703125 14.203125 -24.09375 13.796875 -22.59375 C 14.398438 -22.539062 14.832031 -22.539062 15.09375 -22.59375 L 15.171875 -22.640625 L 15.265625 -22.640625 C 15.316406 -22.640625 15.601562 -22.703125 16.125 -22.828125 C 16.644531 -22.960938 17.285156 -23.25 18.046875 -23.6875 C 18.804688 -24.132812 19.5625 -24.789062 20.3125 -25.65625 C 21.0625 -26.519531 21.691406 -27.6875 22.203125 -29.15625 C 22.316406 -29.46875 22.519531 -29.695312 22.8125 -29.84375 C 23.101562 -29.988281 23.390625 -30.003906 23.671875 -29.890625 C 23.984375 -29.765625 24.210938 -29.554688 24.359375 -29.265625 C 24.503906 -28.984375 24.519531 -28.6875 24.40625 -28.375 C 23.800781 -26.644531 23.046875 -25.25 22.140625 -24.1875 C 21.234375 -23.125 20.3125 -22.316406 19.375 -21.765625 C 18.445312 -21.222656 17.628906 -20.851562 16.921875 -20.65625 C 16.222656 -20.457031 15.769531 -20.34375 15.5625 -20.3125 C 15.019531 -20.195312 14.171875 -20.222656 13.015625 -20.390625 C 11.953125 -17.804688 10.515625 -15.835938 8.703125 -14.484375 C 8.273438 -14.171875 7.859375 -13.945312 7.453125 -13.8125 C 7.054688 -13.6875 6.695312 -13.625 6.375 -13.625 Z M 3.28125 -24.140625 C 3.28125 -23.421875 3.316406 -22.835938 3.390625 -22.390625 C 3.460938 -21.953125 3.5 -21.71875 3.5 -21.6875 L 3.5 -21.640625 C 3.613281 -20.984375 3.796875 -20.242188 4.046875 -19.421875 C 4.304688 -18.609375 4.609375 -17.875 4.953125 -17.21875 C 5.296875 -16.570312 5.671875 -16.164062 6.078125 -16 C 6.140625 -15.96875 6.269531 -15.953125 6.46875 -15.953125 C 6.664062 -15.953125 6.953125 -16.082031 7.328125 -16.34375 C 8.679688 -17.351562 9.800781 -18.863281 10.6875 -20.875 C 9.488281 -21.1875 8.226562 -21.625 6.90625 -22.1875 C 5.582031 -22.75 4.375 -23.398438 3.28125 -24.140625 Z M 3.53125 -26.90625 C 4.539062 -26.019531 5.789062 -25.238281 7.28125 -24.5625 C 8.78125 -23.882812 10.191406 -23.382812 11.515625 -23.0625 C 11.910156 -24.445312 12.1875 -25.941406 12.34375 -27.546875 C 12.507812 -29.160156 12.519531 -30.84375 12.375 -32.59375 C 12.289062 -33.78125 12.03125 -34.753906 11.59375 -35.515625 C 11.164062 -36.273438 10.609375 -36.753906 9.921875 -36.953125 C 8.941406 -37.242188 7.789062 -36.957031 6.46875 -36.09375 C 5.144531 -35.226562 3.878906 -33.9375 2.671875 -32.21875 C 2.015625 -31.289062 1.753906 -30.394531 1.890625 -29.53125 C 2.148438 -30.25 2.492188 -30.945312 2.921875 -31.625 C 3.359375 -32.300781 3.894531 -32.925781 4.53125 -33.5 C 4.757812 -33.726562 5.035156 -33.835938 5.359375 -33.828125 C 5.691406 -33.816406 5.960938 -33.695312 6.171875 -33.46875 C 6.398438 -33.238281 6.503906 -32.960938 6.484375 -32.640625 C 6.472656 -32.328125 6.351562 -32.054688 6.125 -31.828125 C 5.375 -31.128906 4.796875 -30.347656 4.390625 -29.484375 C 3.992188 -28.628906 3.707031 -27.769531 3.53125 -26.90625 Z M 3.53125 -26.90625 "/></g></g></g><g fill="#f2e8da" fill-opacity="1"><g transform="translate(249.441432, 295.613227)"><g><path d="M 29.328125 -6.203125 C 29.035156 -6.203125 28.6875 -6.289062 28.28125 -6.46875 C 27.882812 -6.644531 27.5 -7.03125 27.125 -7.625 C 26.570312 -8.488281 26.140625 -9.769531 25.828125 -11.46875 C 25.515625 -13.164062 25.289062 -15.140625 25.15625 -17.390625 C 25.03125 -19.648438 24.972656 -22.082031 24.984375 -24.6875 C 25.003906 -27.289062 25.078125 -29.941406 25.203125 -32.640625 C 25.335938 -35.347656 25.519531 -37.976562 25.75 -40.53125 C 25.976562 -43.09375 26.21875 -45.46875 26.46875 -47.65625 C 26.613281 -48.570312 26.648438 -49.226562 26.578125 -49.625 C 26.503906 -50.03125 26.441406 -50.273438 26.390625 -50.359375 C 26.097656 -50.335938 25.535156 -49.921875 24.703125 -49.109375 C 23.867188 -48.304688 22.878906 -46.925781 21.734375 -44.96875 C 21.273438 -44.164062 20.707031 -43.066406 20.03125 -41.671875 C 19.351562 -40.273438 18.679688 -38.597656 18.015625 -36.640625 C 17.359375 -34.691406 16.785156 -32.5 16.296875 -30.0625 C 16.128906 -29.164062 15.953125 -28.359375 15.765625 -27.640625 C 15.578125 -26.921875 15.394531 -26.273438 15.21875 -25.703125 C 15.101562 -25.378906 14.96875 -25.015625 14.8125 -24.609375 C 14.65625 -24.210938 14.4375 -23.882812 14.15625 -23.625 C 13.882812 -23.375 13.535156 -23.257812 13.109375 -23.28125 C 12.679688 -23.34375 12.363281 -23.53125 12.15625 -23.84375 C 11.957031 -24.164062 11.835938 -24.535156 11.796875 -24.953125 C 11.753906 -25.367188 11.71875 -25.734375 11.6875 -26.046875 C 11.65625 -26.679688 11.644531 -27.445312 11.65625 -28.34375 C 11.675781 -29.25 11.710938 -30.304688 11.765625 -31.515625 C 11.796875 -31.742188 11.816406 -31.988281 11.828125 -32.25 C 11.847656 -32.507812 11.859375 -32.785156 11.859375 -33.078125 C 11.910156 -33.679688 11.957031 -34.410156 12 -35.265625 C 12.050781 -36.128906 12.085938 -36.984375 12.109375 -37.828125 C 12.140625 -38.679688 12.113281 -39.394531 12.03125 -39.96875 C 11.832031 -39.6875 11.582031 -39.285156 11.28125 -38.765625 C 10.976562 -38.242188 10.625 -37.523438 10.21875 -36.609375 C 9.300781 -34.679688 8.53125 -32.773438 7.90625 -30.890625 C 7.289062 -29.015625 6.773438 -27.238281 6.359375 -25.5625 C 5.941406 -23.894531 5.585938 -22.414062 5.296875 -21.125 C 4.898438 -19.257812 4.554688 -17.929688 4.265625 -17.140625 C 3.984375 -16.347656 3.507812 -15.910156 2.84375 -15.828125 C 2.300781 -15.796875 1.878906 -15.976562 1.578125 -16.375 C 1.273438 -16.78125 1.078125 -17.085938 0.984375 -17.296875 L 0.953125 -17.421875 L 0.90625 -17.546875 C 0.53125 -19.503906 0.207031 -21.351562 -0.0625 -23.09375 C -0.332031 -24.832031 -0.570312 -26.445312 -0.78125 -27.9375 C -0.894531 -28.082031 -0.988281 -28.253906 -1.0625 -28.453125 C -1.132812 -28.660156 -1.140625 -28.863281 -1.078125 -29.0625 C -1.046875 -29.144531 -1.019531 -29.238281 -1 -29.34375 C -0.988281 -29.445312 -0.972656 -29.539062 -0.953125 -29.625 C -1.148438 -31.488281 -1.289062 -33.15625 -1.375 -34.625 C -1.46875 -36.09375 -1.515625 -37.359375 -1.515625 -38.421875 C -1.535156 -40.515625 -1.46875 -42.171875 -1.3125 -43.390625 C -1.15625 -44.617188 -0.960938 -45.535156 -0.734375 -46.140625 C -0.503906 -46.742188 -0.265625 -47.148438 -0.015625 -47.359375 C 0.222656 -47.578125 0.414062 -47.71875 0.5625 -47.78125 L 0.640625 -47.828125 L 0.734375 -47.828125 C 1.273438 -47.960938 1.78125 -47.800781 2.25 -47.34375 C 4 -45.625 3.707031 -39.675781 1.375 -29.5 C 1.519531 -28.175781 1.707031 -26.757812 1.9375 -25.25 C 2.164062 -23.738281 2.441406 -22.109375 2.765625 -20.359375 C 2.816406 -20.585938 2.863281 -20.804688 2.90625 -21.015625 C 2.945312 -21.234375 2.984375 -21.441406 3.015625 -21.640625 C 3.335938 -22.960938 3.707031 -24.476562 4.125 -26.1875 C 4.539062 -27.90625 5.070312 -29.734375 5.71875 -31.671875 C 6.363281 -33.609375 7.160156 -35.585938 8.109375 -37.609375 C 9.109375 -39.734375 9.960938 -41.195312 10.671875 -42 C 11.378906 -42.800781 12.09375 -43.101562 12.8125 -42.90625 C 13.726562 -42.675781 14.242188 -41.773438 14.359375 -40.203125 C 14.472656 -38.640625 14.414062 -36.207031 14.1875 -32.90625 C 14.15625 -32.613281 14.140625 -32.34375 14.140625 -32.09375 C 14.140625 -31.851562 14.125 -31.617188 14.09375 -31.390625 C 14.09375 -31.304688 14.09375 -31.21875 14.09375 -31.125 C 14.09375 -31.039062 14.082031 -30.957031 14.0625 -30.875 C 14.632812 -33.6875 15.421875 -36.421875 16.421875 -39.078125 C 17.429688 -41.742188 18.566406 -44.171875 19.828125 -46.359375 C 20.203125 -46.984375 20.65625 -47.675781 21.1875 -48.4375 C 21.71875 -49.207031 22.300781 -49.9375 22.9375 -50.625 C 23.570312 -51.3125 24.21875 -51.847656 24.875 -52.234375 C 25.539062 -52.628906 26.191406 -52.78125 26.828125 -52.6875 C 27.222656 -52.632812 27.609375 -52.441406 27.984375 -52.109375 C 28.359375 -51.773438 28.628906 -51.242188 28.796875 -50.515625 C 28.972656 -49.785156 28.976562 -48.742188 28.8125 -47.390625 C 28.4375 -44.398438 28.125 -41.285156 27.875 -38.046875 C 27.632812 -34.816406 27.46875 -31.640625 27.375 -28.515625 C 27.289062 -25.398438 27.289062 -22.5 27.375 -19.8125 C 27.46875 -17.125 27.65625 -14.820312 27.9375 -12.90625 C 28.226562 -11 28.617188 -9.644531 29.109375 -8.84375 C 29.160156 -8.75 29.207031 -8.679688 29.25 -8.640625 C 29.300781 -8.597656 29.335938 -8.5625 29.359375 -8.53125 C 29.421875 -8.5625 29.609375 -8.695312 29.921875 -8.9375 C 30.242188 -9.1875 30.71875 -9.769531 31.34375 -10.6875 C 31.976562 -11.613281 32.769531 -13.082031 33.71875 -15.09375 C 34.695312 -17.164062 35.675781 -19.453125 36.65625 -21.953125 C 37.632812 -24.453125 38.550781 -26.863281 39.40625 -29.1875 C 39.519531 -29.507812 39.726562 -29.734375 40.03125 -29.859375 C 40.332031 -29.992188 40.628906 -30.003906 40.921875 -29.890625 C 41.234375 -29.765625 41.453125 -29.554688 41.578125 -29.265625 C 41.710938 -28.984375 41.722656 -28.6875 41.609375 -28.375 C 39.628906 -23.03125 37.921875 -18.753906 36.484375 -15.546875 C 35.046875 -12.335938 33.78125 -10.003906 32.6875 -8.546875 C 31.59375 -7.097656 30.554688 -6.316406 29.578125 -6.203125 C 29.546875 -6.203125 29.507812 -6.203125 29.46875 -6.203125 C 29.425781 -6.203125 29.378906 -6.203125 29.328125 -6.203125 Z M 1.03125 -43.515625 C 0.976562 -42.992188 0.921875 -42.375 0.859375 -41.65625 C 0.804688 -40.9375 0.78125 -40.070312 0.78125 -39.0625 C 0.914062 -40.070312 1 -40.941406 1.03125 -41.671875 C 1.0625 -42.410156 1.0625 -43.023438 1.03125 -43.515625 Z M 1.03125 -43.515625 "/></g></g></g><g fill="#f2e8da" fill-opacity="1"><g transform="translate(289.840768, 295.613227)"><g/></g></g><g fill="#f2e8da" fill-opacity="1"><g transform="translate(323.643397, 295.613227)"><g><path d="M 15.734375 -33.640625 C 15.191406 -33.722656 14.539062 -33.546875 13.78125 -33.109375 C 13.019531 -32.679688 12.234375 -32.050781 11.421875 -31.21875 C 10.617188 -30.382812 9.863281 -29.40625 9.15625 -28.28125 C 8.457031 -27.164062 7.890625 -25.960938 7.453125 -24.671875 C 6.847656 -22.859375 6.257812 -21.566406 5.6875 -20.796875 C 5.113281 -20.035156 4.484375 -19.6875 3.796875 -19.75 C 3.273438 -19.800781 2.851562 -20.019531 2.53125 -20.40625 C 2.21875 -20.800781 1.988281 -21.242188 1.84375 -21.734375 C 1.707031 -22.222656 1.609375 -22.609375 1.546875 -22.890625 L 1.546875 -22.984375 C 1.492188 -23.472656 1.410156 -24.253906 1.296875 -25.328125 C 1.179688 -26.410156 1.050781 -27.570312 0.90625 -28.8125 C 0.789062 -28.6875 0.617188 -28.597656 0.390625 -28.546875 C 0.0976562 -28.515625 -0.1875 -28.585938 -0.46875 -28.765625 C -0.726562 -28.929688 -0.890625 -29.175781 -0.953125 -29.5 C -1.003906 -29.8125 -0.929688 -30.082031 -0.734375 -30.3125 C -0.160156 -31.144531 0.269531 -31.9375 0.5625 -32.6875 C 0.382812 -34.957031 0.34375 -36.320312 0.4375 -36.78125 C 0.488281 -37.269531 0.644531 -37.59375 0.90625 -37.75 C 1.164062 -37.90625 1.351562 -38 1.46875 -38.03125 C 1.582031 -38.0625 1.78125 -38.0625 2.0625 -38.03125 C 2.351562 -38 2.628906 -37.785156 2.890625 -37.390625 C 3.148438 -36.984375 3.316406 -36.332031 3.390625 -35.4375 C 3.460938 -34.550781 3.296875 -33.535156 2.890625 -32.390625 C 3.003906 -31.148438 3.132812 -29.738281 3.28125 -28.15625 C 3.425781 -26.570312 3.597656 -24.9375 3.796875 -23.25 C 3.847656 -22.957031 3.921875 -22.664062 4.015625 -22.375 C 4.148438 -22.601562 4.332031 -22.945312 4.5625 -23.40625 C 4.800781 -23.875 5.0625 -24.539062 5.34375 -25.40625 C 5.863281 -26.925781 6.539062 -28.347656 7.375 -29.671875 C 8.207031 -30.992188 9.125 -32.140625 10.125 -33.109375 C 11.132812 -34.085938 12.15625 -34.828125 13.1875 -35.328125 C 14.226562 -35.835938 15.191406 -36.019531 16.078125 -35.875 C 16.515625 -35.820312 17.003906 -35.613281 17.546875 -35.25 C 18.097656 -34.894531 18.582031 -34.273438 19 -33.390625 C 19.414062 -32.515625 19.625 -31.242188 19.625 -29.578125 C 19.675781 -26.503906 19.796875 -23.929688 19.984375 -21.859375 C 20.171875 -19.785156 20.394531 -18.117188 20.65625 -16.859375 C 20.914062 -15.597656 21.179688 -14.640625 21.453125 -13.984375 C 21.722656 -13.335938 21.976562 -12.894531 22.21875 -12.65625 C 22.46875 -12.414062 22.648438 -12.28125 22.765625 -12.25 C 23.085938 -12.1875 23.570312 -12.378906 24.21875 -12.828125 C 24.863281 -13.273438 25.773438 -14.347656 26.953125 -16.046875 C 27.785156 -17.253906 28.617188 -18.5625 29.453125 -19.96875 C 30.285156 -21.375 31.019531 -22.640625 31.65625 -23.765625 C 32.257812 -24.828125 32.847656 -25.835938 33.421875 -26.796875 C 33.992188 -27.765625 34.507812 -28.609375 34.96875 -29.328125 C 35.144531 -29.578125 35.390625 -29.734375 35.703125 -29.796875 C 36.046875 -29.859375 36.332031 -29.800781 36.5625 -29.625 C 36.820312 -29.425781 36.976562 -29.175781 37.03125 -28.875 C 37.09375 -28.570312 37.039062 -28.289062 36.875 -28.03125 C 36.40625 -27.363281 35.898438 -26.554688 35.359375 -25.609375 C 34.816406 -24.660156 34.242188 -23.671875 33.640625 -22.640625 C 32.742188 -21.085938 31.847656 -19.554688 30.953125 -18.046875 C 30.066406 -16.535156 29.171875 -15.164062 28.265625 -13.9375 C 27.359375 -12.71875 26.457031 -11.75 25.5625 -11.03125 C 24.675781 -10.320312 23.800781 -9.96875 22.9375 -9.96875 C 22.820312 -9.96875 22.707031 -9.972656 22.59375 -9.984375 C 22.476562 -9.992188 22.347656 -10.015625 22.203125 -10.046875 C 21.660156 -10.191406 21.113281 -10.535156 20.5625 -11.078125 C 20.019531 -11.628906 19.523438 -12.578125 19.078125 -13.921875 C 18.628906 -15.273438 18.253906 -17.203125 17.953125 -19.703125 C 17.648438 -22.203125 17.457031 -25.476562 17.375 -29.53125 C 17.375 -29.9375 17.335938 -30.445312 17.265625 -31.0625 C 17.191406 -31.6875 17.039062 -32.253906 16.8125 -32.765625 C 16.582031 -33.285156 16.222656 -33.578125 15.734375 -33.640625 Z M 15.734375 -33.640625 "/></g></g></g><g transform="matrix(1, 0, 0, 1, 154, 292)"><g clip-path="url(#2cbc97843d)"><g fill="#000000" fill-opacity="0.4"><g transform="translate(1.165815, 14.40804)"><g><path d="M 7.359375 0 L 1.15625 0 L 1.15625 -10.453125 L 7.359375 -10.453125 L 7.359375 -9.453125 L 2.234375 -9.453125 L 2.234375 -5.734375 L 7.203125 -5.734375 L 7.203125 -4.71875 L 2.234375 -4.71875 L 2.234375 -1 L 7.359375 -1 Z M 7.359375 0 "/></g></g></g><g fill="#000000" fill-opacity="0.4"><g transform="translate(15.411775, 14.40804)"><g><path d="M 4.90625 0.625 L 0.15625 -10.453125 L 1.328125 -10.453125 L 4.90625 -2.03125 L 8.46875 -10.453125 L 9.640625 -10.453125 Z M 4.90625 0.625 "/></g></g></g><g fill="#000000" fill-opacity="0.4"><g transform="translate(30.932643, 14.40804)"><g><path d="M 7.359375 0 L 1.15625 0 L 1.15625 -10.453125 L 7.359375 -10.453125 L 7.359375 -9.453125 L 2.234375 -9.453125 L 2.234375 -5.734375 L 7.203125 -5.734375 L 7.203125 -4.71875 L 2.234375 -4.71875 L 2.234375 -1 L 7.359375 -1 Z M 7.359375 0 "/></g></g></g><g fill="#000000" fill-opacity="0.4"><g transform="translate(45.178603, 14.40804)"><g><path d="M 2.234375 -7.703125 L 2.234375 0 L 1.15625 0 L 1.15625 -11.109375 L 7.03125 -2.765625 L 7.03125 -10.453125 L 8.109375 -10.453125 L 8.109375 0.640625 Z M 2.234375 -7.703125 "/></g></g></g><g fill="#000000" fill-opacity="0.4"><g transform="translate(60.161861, 14.40804)"><g><path d="M 0.3125 -9.484375 L 0.3125 -10.484375 L 6.453125 -10.484375 L 6.453125 -9.484375 L 3.921875 -9.484375 L 3.921875 -0.03125 L 2.84375 -0.03125 L 2.84375 -9.484375 Z M 0.3125 -9.484375 "/></g></g></g><g fill="#000000" fill-opacity="0.4"><g transform="translate(72.656729, 14.40804)"><g><path d="M 4.0625 -4.9375 C 1.925781 -5.425781 0.859375 -6.335938 0.859375 -7.671875 C 0.859375 -8.648438 1.203125 -9.390625 1.890625 -9.890625 C 2.578125 -10.367188 3.382812 -10.609375 4.3125 -10.609375 C 6.34375 -10.609375 7.550781 -9.847656 7.9375 -8.328125 L 6.765625 -8.328125 C 6.554688 -9.234375 5.738281 -9.6875 4.3125 -9.6875 C 3.300781 -9.6875 2.597656 -9.390625 2.203125 -8.796875 C 2.046875 -8.566406 1.96875 -8.285156 1.96875 -7.953125 C 1.96875 -7.304688 2.316406 -6.804688 3.015625 -6.453125 C 3.335938 -6.285156 4.035156 -6.0625 5.109375 -5.78125 C 6.171875 -5.5 6.941406 -5.191406 7.421875 -4.859375 C 8.085938 -4.390625 8.421875 -3.726562 8.421875 -2.875 C 8.421875 -1.820312 8.007812 -1.023438 7.1875 -0.484375 C 6.488281 -0.0234375 5.625 0.203125 4.59375 0.203125 C 2.28125 0.203125 0.9375 -0.675781 0.5625 -2.4375 L 1.84375 -2.4375 C 2.039062 -1.332031 2.957031 -0.78125 4.59375 -0.78125 C 5.757812 -0.78125 6.578125 -1.101562 7.046875 -1.75 C 7.222656 -2.007812 7.3125 -2.359375 7.3125 -2.796875 C 7.3125 -3.222656 7.144531 -3.578125 6.8125 -3.859375 C 6.332031 -4.242188 5.414062 -4.601562 4.0625 -4.9375 Z M 4.0625 -4.9375 "/></g></g></g><g fill="#000000" fill-opacity="0.4"><g transform="translate(87.209896, 14.40804)"><g/></g></g><g fill="#000000" fill-opacity="0.4"><g transform="translate(97.093505, 14.40804)"><g><path d="M 10.75 -3.203125 C 10.351562 -2.191406 9.71875 -1.382812 8.84375 -0.78125 C 7.945312 -0.15625 6.96875 0.15625 5.90625 0.15625 C 4.457031 0.15625 3.222656 -0.375 2.203125 -1.4375 C 1.191406 -2.488281 0.6875 -3.75 0.6875 -5.21875 C 0.6875 -5.9375 0.820312 -6.625 1.09375 -7.28125 C 1.351562 -7.925781 1.722656 -8.5 2.203125 -9 C 3.222656 -10.0625 4.457031 -10.59375 5.90625 -10.59375 C 6.96875 -10.59375 7.941406 -10.289062 8.828125 -9.6875 C 9.703125 -9.070312 10.335938 -8.265625 10.734375 -7.265625 L 9.546875 -7.265625 C 8.984375 -8.304688 8.144531 -8.992188 7.03125 -9.328125 C 6.65625 -9.429688 6.226562 -9.484375 5.75 -9.484375 C 5.269531 -9.484375 4.78125 -9.367188 4.28125 -9.140625 C 3.769531 -8.910156 3.332031 -8.597656 2.96875 -8.203125 C 2.164062 -7.378906 1.765625 -6.382812 1.765625 -5.21875 C 1.765625 -4.050781 2.164062 -3.054688 2.96875 -2.234375 C 3.78125 -1.378906 4.757812 -0.953125 5.90625 -0.953125 C 6.6875 -0.953125 7.40625 -1.15625 8.0625 -1.5625 C 8.707031 -1.976562 9.207031 -2.523438 9.5625 -3.203125 Z M 10.75 -3.203125 "/></g></g></g><g fill="#000000" fill-opacity="0.4"><g transform="translate(114.027529, 14.40804)"><g><path d="M 10.359375 -5.265625 C 10.359375 -6.441406 9.941406 -7.445312 9.109375 -8.28125 C 8.265625 -9.125 7.25 -9.546875 6.0625 -9.546875 C 4.882812 -9.546875 3.875 -9.125 3.03125 -8.28125 C 2.1875 -7.445312 1.765625 -6.441406 1.765625 -5.265625 C 1.765625 -4.066406 2.1875 -3.050781 3.03125 -2.21875 C 3.875 -1.375 4.882812 -0.953125 6.0625 -0.953125 C 7.25 -0.953125 8.265625 -1.375 9.109375 -2.21875 C 9.941406 -3.050781 10.359375 -4.066406 10.359375 -5.265625 Z M 11.4375 -5.265625 C 11.4375 -4.523438 11.300781 -3.828125 11.03125 -3.171875 C 10.738281 -2.515625 10.351562 -1.941406 9.875 -1.453125 C 9.375 -0.960938 8.800781 -0.582031 8.15625 -0.3125 C 7.5 -0.0195312 6.800781 0.125 6.0625 0.125 C 5.320312 0.125 4.628906 -0.0195312 3.984375 -0.3125 C 3.328125 -0.582031 2.757812 -0.960938 2.28125 -1.453125 C 1.78125 -1.941406 1.394531 -2.515625 1.125 -3.171875 C 0.832031 -3.828125 0.6875 -4.523438 0.6875 -5.265625 C 0.6875 -5.992188 0.832031 -6.6875 1.125 -7.34375 C 1.394531 -8 1.78125 -8.570312 2.28125 -9.0625 C 2.757812 -9.539062 3.328125 -9.921875 3.984375 -10.203125 C 4.628906 -10.484375 5.320312 -10.625 6.0625 -10.625 C 6.800781 -10.625 7.5 -10.484375 8.15625 -10.203125 C 8.800781 -9.921875 9.375 -9.539062 9.875 -9.0625 C 10.351562 -8.570312 10.738281 -8 11.03125 -7.34375 C 11.300781 -6.6875 11.4375 -5.992188 11.4375 -5.265625 Z M 11.4375 -5.265625 "/></g></g></g><g fill="#000000" fill-opacity="0.4"><g transform="translate(131.883176, 14.40804)"><g><path d="M 2.046875 0.15625 C 1.804688 0.15625 1.601562 0.0664062 1.4375 -0.109375 C 1.25 -0.273438 1.15625 -0.472656 1.15625 -0.703125 C 1.15625 -0.941406 1.242188 -1.148438 1.421875 -1.328125 C 1.585938 -1.492188 1.796875 -1.578125 2.046875 -1.578125 C 2.285156 -1.578125 2.5 -1.5 2.6875 -1.34375 C 2.863281 -1.164062 2.953125 -0.957031 2.953125 -0.71875 C 2.953125 -0.476562 2.859375 -0.273438 2.671875 -0.109375 C 2.492188 0.0664062 2.285156 0.15625 2.046875 0.15625 Z M 2.046875 0.15625 "/></g></g></g><g fill="#f2e8da" fill-opacity="1"><g transform="translate(0.486157, 13.728382)"><g><path d="M 7.359375 0 L 1.15625 0 L 1.15625 -10.453125 L 7.359375 -10.453125 L 7.359375 -9.453125 L 2.234375 -9.453125 L 2.234375 -5.734375 L 7.203125 -5.734375 L 7.203125 -4.71875 L 2.234375 -4.71875 L 2.234375 -1 L 7.359375 -1 Z M 7.359375 0 "/></g></g></g><g fill="#f2e8da" fill-opacity="1"><g transform="translate(14.732117, 13.728382)"><g><path d="M 4.90625 0.625 L 0.15625 -10.453125 L 1.328125 -10.453125 L 4.90625 -2.03125 L 8.46875 -10.453125 L 9.640625 -10.453125 Z M 4.90625 0.625 "/></g></g></g><g fill="#f2e8da" fill-opacity="1"><g transform="translate(30.252985, 13.728382)"><g><path d="M 7.359375 0 L 1.15625 0 L 1.15625 -10.453125 L 7.359375 -10.453125 L 7.359375 -9.453125 L 2.234375 -9.453125 L 2.234375 -5.734375 L 7.203125 -5.734375 L 7.203125 -4.71875 L 2.234375 -4.71875 L 2.234375 -1 L 7.359375 -1 Z M 7.359375 0 "/></g></g></g><g fill="#f2e8da" fill-opacity="1"><g transform="translate(44.498944, 13.728382)"><g><path d="M 2.234375 -7.703125 L 2.234375 0 L 1.15625 0 L 1.15625 -11.109375 L 7.03125 -2.765625 L 7.03125 -10.453125 L 8.109375 -10.453125 L 8.109375 0.640625 Z M 2.234375 -7.703125 "/></g></g></g><g fill="#f2e8da" fill-opacity="1"><g transform="translate(59.482203, 13.728382)"><g><path d="M 0.3125 -9.484375 L 0.3125 -10.484375 L 6.453125 -10.484375 L 6.453125 -9.484375 L 3.921875 -9.484375 L 3.921875 -0.03125 L 2.84375 -0.03125 L 2.84375 -9.484375 Z M 0.3125 -9.484375 "/></g></g></g><g fill="#f2e8da" fill-opacity="1"><g transform="translate(71.97707, 13.728382)"><g><path d="M 4.0625 -4.9375 C 1.925781 -5.425781 0.859375 -6.335938 0.859375 -7.671875 C 0.859375 -8.648438 1.203125 -9.390625 1.890625 -9.890625 C 2.578125 -10.367188 3.382812 -10.609375 4.3125 -10.609375 C 6.34375 -10.609375 7.550781 -9.847656 7.9375 -8.328125 L 6.765625 -8.328125 C 6.554688 -9.234375 5.738281 -9.6875 4.3125 -9.6875 C 3.300781 -9.6875 2.597656 -9.390625 2.203125 -8.796875 C 2.046875 -8.566406 1.96875 -8.285156 1.96875 -7.953125 C 1.96875 -7.304688 2.316406 -6.804688 3.015625 -6.453125 C 3.335938 -6.285156 4.035156 -6.0625 5.109375 -5.78125 C 6.171875 -5.5 6.941406 -5.191406 7.421875 -4.859375 C 8.085938 -4.390625 8.421875 -3.726562 8.421875 -2.875 C 8.421875 -1.820312 8.007812 -1.023438 7.1875 -0.484375 C 6.488281 -0.0234375 5.625 0.203125 4.59375 0.203125 C 2.28125 0.203125 0.9375 -0.675781 0.5625 -2.4375 L 1.84375 -2.4375 C 2.039062 -1.332031 2.957031 -0.78125 4.59375 -0.78125 C 5.757812 -0.78125 6.578125 -1.101562 7.046875 -1.75 C 7.222656 -2.007812 7.3125 -2.359375 7.3125 -2.796875 C 7.3125 -3.222656 7.144531 -3.578125 6.8125 -3.859375 C 6.332031 -4.242188 5.414062 -4.601562 4.0625 -4.9375 Z M 4.0625 -4.9375 "/></g></g></g><g fill="#f2e8da" fill-opacity="1"><g transform="translate(86.530238, 13.728382)"><g/></g></g><g fill="#f2e8da" fill-opacity="1"><g transform="translate(96.413847, 13.728382)"><g><path d="M 10.75 -3.203125 C 10.351562 -2.191406 9.71875 -1.382812 8.84375 -0.78125 C 7.945312 -0.15625 6.96875 0.15625 5.90625 0.15625 C 4.457031 0.15625 3.222656 -0.375 2.203125 -1.4375 C 1.191406 -2.488281 0.6875 -3.75 0.6875 -5.21875 C 0.6875 -5.9375 0.820312 -6.625 1.09375 -7.28125 C 1.351562 -7.925781 1.722656 -8.5 2.203125 -9 C 3.222656 -10.0625 4.457031 -10.59375 5.90625 -10.59375 C 6.96875 -10.59375 7.941406 -10.289062 8.828125 -9.6875 C 9.703125 -9.070312 10.335938 -8.265625 10.734375 -7.265625 L 9.546875 -7.265625 C 8.984375 -8.304688 8.144531 -8.992188 7.03125 -9.328125 C 6.65625 -9.429688 6.226562 -9.484375 5.75 -9.484375 C 5.269531 -9.484375 4.78125 -9.367188 4.28125 -9.140625 C 3.769531 -8.910156 3.332031 -8.597656 2.96875 -8.203125 C 2.164062 -7.378906 1.765625 -6.382812 1.765625 -5.21875 C 1.765625 -4.050781 2.164062 -3.054688 2.96875 -2.234375 C 3.78125 -1.378906 4.757812 -0.953125 5.90625 -0.953125 C 6.6875 -0.953125 7.40625 -1.15625 8.0625 -1.5625 C 8.707031 -1.976562 9.207031 -2.523438 9.5625 -3.203125 Z M 10.75 -3.203125 "/></g></g></g><g fill="#f2e8da" fill-opacity="1"><g transform="translate(113.347871, 13.728382)"><g><path d="M 10.359375 -5.265625 C 10.359375 -6.441406 9.941406 -7.445312 9.109375 -8.28125 C 8.265625 -9.125 7.25 -9.546875 6.0625 -9.546875 C 4.882812 -9.546875 3.875 -9.125 3.03125 -8.28125 C 2.1875 -7.445312 1.765625 -6.441406 1.765625 -5.265625 C 1.765625 -4.066406 2.1875 -3.050781 3.03125 -2.21875 C 3.875 -1.375 4.882812 -0.953125 6.0625 -0.953125 C 7.25 -0.953125 8.265625 -1.375 9.109375 -2.21875 C 9.941406 -3.050781 10.359375 -4.066406 10.359375 -5.265625 Z M 11.4375 -5.265625 C 11.4375 -4.523438 11.300781 -3.828125 11.03125 -3.171875 C 10.738281 -2.515625 10.351562 -1.941406 9.875 -1.453125 C 9.375 -0.960938 8.800781 -0.582031 8.15625 -0.3125 C 7.5 -0.0195312 6.800781 0.125 6.0625 0.125 C 5.320312 0.125 4.628906 -0.0195312 3.984375 -0.3125 C 3.328125 -0.582031 2.757812 -0.960938 2.28125 -1.453125 C 1.78125 -1.941406 1.394531 -2.515625 1.125 -3.171875 C 0.832031 -3.828125 0.6875 -4.523438 0.6875 -5.265625 C 0.6875 -5.992188 0.832031 -6.6875 1.125 -7.34375 C 1.394531 -8 1.78125 -8.570312 2.28125 -9.0625 C 2.757812 -9.539062 3.328125 -9.921875 3.984375 -10.203125 C 4.628906 -10.484375 5.320312 -10.625 6.0625 -10.625 C 6.800781 -10.625 7.5 -10.484375 8.15625 -10.203125 C 8.800781 -9.921875 9.375 -9.539062 9.875 -9.0625 C 10.351562 -8.570312 10.738281 -8 11.03125 -7.34375 C 11.300781 -6.6875 11.4375 -5.992188 11.4375 -5.265625 Z M 11.4375 -5.265625 "/></g></g></g><g fill="#f2e8da" fill-opacity="1"><g transform="translate(131.203518, 13.728382)"><g><path d="M 2.046875 0.15625 C 1.804688 0.15625 1.601562 0.0664062 1.4375 -0.109375 C 1.25 -0.273438 1.15625 -0.472656 1.15625 -0.703125 C 1.15625 -0.941406 1.242188 -1.148438 1.421875 -1.328125 C 1.585938 -1.492188 1.796875 -1.578125 2.046875 -1.578125 C 2.285156 -1.578125 2.5 -1.5 2.6875 -1.34375 C 2.863281 -1.164062 2.953125 -0.957031 2.953125 -0.71875 C 2.953125 -0.476562 2.859375 -0.273438 2.671875 -0.109375 C 2.492188 0.0664062 2.285156 0.15625 2.046875 0.15625 Z M 2.046875 0.15625 "/></g></g></g></g></g></svg>